{
.appVersion = "1342";
DisplayStrings = (
"/Hbar/Iogonek/Kcommaaccent/Eng/Tbar/Uogonek/iogonek/kcommaaccent/longs/tbar/uogonek/fi/fl \012/Gheupturn-cy/Dzhe-cy/Lje-cy/Nje-cy/E-cy/Tshe-cy/Dje-cy \012/gheupturn-cy/dzhe-cy/lje-cy/nje-cy/e-cy/tshe-cy/dje-cy/florin",
"/Cdotaccent",
"/fraction"
);
copyright = "Font Copyright Copyright 2019 Morisawa Inc. All rights reserved.";
customParameters = (
{
name = trademark;
value = "BIZ UDGothic is a trademark of Morisawa Inc.";
},
{
name = license;
value = "Google font";
},
{
name = vendorID;
value = MRSW;
},
{
name = panose;
value = (
2,
11,
4,
0,
0,
0,
0,
0,
0,
0
);
},
{
name = unicodeRanges;
value = (
0,
1,
2,
4,
5,
6,
7,
9,
29,
30,
31,
35,
36,
37,
38,
39,
40,
42,
43,
45,
46,
47,
48,
49,
50,
54,
55,
57,
59,
61,
65,
68
);
},
{
name = fsType;
value = (
);
}
);
date = "2019-04-02 01:04:19 +0000";
designer = "TypeBank Co., Ltd.";
designerURL = "http://www.morisawa.co.jp/";
disablesAutomaticAlignment = 1;
familyName = "BIZ-UDGothicExt";
fontMaster = (
{
ascender = 1802;
capHeight = 1567;
customParameters = (
{
name = typoAscender;
value = 1802;
},
{
name = typoDescender;
value = -246;
},
{
name = typoLineGap;
value = 0;
},
{
name = winAscent;
value = 1802;
},
{
name = winDescent;
value = 246;
},
{
name = hheaAscender;
value = 1802;
},
{
name = hheaDescender;
value = -246;
},
{
name = strikeoutPosition;
value = 727;
},
{
name = strikeoutSize;
value = 102;
},
{
name = underlinePosition;
value = -246;
},
{
name = underlineThickness;
value = 102;
},
{
name = hheaLineGap;
value = 0;
},
{
name = vheaVertAscender;
value = 1802;
},
{
name = vheaVertDescender;
value = 246;
},
{
name = vheaVertLineGap;
value = 0;
}
);
descender = -246;
id = "4E782664-D0D5-4FED-AFC2-B9212141A2ED";
weight = Bold;
weightValue = 700;
widthValue = 5;
xHeight = 1108;
}
);
glyphs = (
{
color = 6;
glyphname = Cdotaccent;
lastChange = "2022-04-07 18:21:36 +0000";
layers = (
{
background = {
paths = (
{
closed = 1;
nodes = (
"516 1800 LINE",
"756 1565 LINE",
"534 1565 LINE",
"186 1800 LINE"
);
},
{
closed = 1;
nodes = (
"658 1524 OFFCURVE",
"771 1452 OFFCURVE",
"852 1308 CURVE SMOOTH",
"933 1165 OFFCURVE",
"973 969 OFFCURVE",
"973 720 CURVE SMOOTH",
"973 511 OFFCURVE",
"944 337 OFFCURVE",
"887 200 CURVE SMOOTH",
"806 7 OFFCURVE",
"681 -90 OFFCURVE",
"510 -90 CURVE SMOOTH",
"357 -90 OFFCURVE",
"241 -10 OFFCURVE",
"160 151 CURVE SMOOTH",
"87 294 OFFCURVE",
"51 484 OFFCURVE",
"51 719 CURVE SMOOTH",
"51 990 OFFCURVE",
"98 1198 OFFCURVE",
"192 1341 CURVE SMOOTH",
"273 1463 OFFCURVE",
"380 1524 OFFCURVE",
"514 1524 CURVE SMOOTH"
);
},
{
closed = 1;
nodes = (
"451 1323 OFFCURVE",
"402 1279 OFFCURVE",
"365 1192 CURVE SMOOTH",
"320 1086 OFFCURVE",
"297 929 OFFCURVE",
"297 720 CURVE SMOOTH",
"297 506 OFFCURVE",
"320 346 OFFCURVE",
"367 241 CURVE SMOOTH",
"404 157 OFFCURVE",
"452 115 OFFCURVE",
"512 115 CURVE SMOOTH",
"573 115 OFFCURVE",
"622 159 OFFCURVE",
"659 247 CURVE SMOOTH",
"704 353 OFFCURVE",
"727 510 OFFCURVE",
"727 719 CURVE SMOOTH",
"727 936 OFFCURVE",
"703 1097 OFFCURVE",
"654 1204 CURVE SMOOTH",
"617 1283 OFFCURVE",
"570 1323 OFFCURVE",
"511 1323 CURVE SMOOTH"
);
}
);
};
layerId = "4E782664-D0D5-4FED-AFC2-B9212141A2ED";
paths = (
{
closed = 1;
nodes = (
"446 1800 LINE",
"712 1800 LINE",
"712 1595 LINE",
"446 1595 LINE"
);
},
{
closed = 1;
nodes = (
"952 145 LINE",
"865 -12 OFFCURVE",
"745 -90 OFFCURVE",
"592 -90 CURVE SMOOTH",
"242 -90 OFFCURVE",
"80 297 OFFCURVE",
"80 713 CURVE SMOOTH",
"80 1117 OFFCURVE",
"237 1524 OFFCURVE",
"578 1524 CURVE SMOOTH",
"722 1524 OFFCURVE",
"842 1449 OFFCURVE",
"938 1300 CURVE",
"805 1147 LINE",
"745 1247 OFFCURVE",
"685 1321 OFFCURVE",
"584 1321 CURVE SMOOTH",
"402 1321 OFFCURVE",
"322 970 OFFCURVE",
"322 708 CURVE SMOOTH",
"322 460 OFFCURVE",
"413 117 OFFCURVE",
"595 117 CURVE SMOOTH",
"682 117 OFFCURVE",
"754 181 OFFCURVE",
"813 309 CURVE"
);
}
);
vertWidth = 2048;
width = 1024;
}
);
unicode = 010A;
},
{
color = 6;
glyphname = Dcroat;
lastChange = "2022-04-07 18:21:36 +0000";
layers = (
{
layerId = "4E782664-D0D5-4FED-AFC2-B9212141A2ED";
paths = (
{
closed = 1;
nodes = (
"112 1608 LINE",
"367 1608 LINE SMOOTH",
"490 1608 OFFCURVE",
"600 1578 OFFCURVE",
"696 1518 CURVE SMOOTH",
"779 1465 OFFCURVE",
"845 1384 OFFCURVE",
"894 1275 CURVE SMOOTH",
"955 1138 OFFCURVE",
"986 974 OFFCURVE",
"986 781 CURVE SMOOTH",
"986 583 OFFCURVE",
"954 413 OFFCURVE",
"890 272 CURVE SMOOTH",
"838 157 OFFCURVE",
"772 76 OFFCURVE",
"693 29 CURVE SMOOTH",
"603 -24 OFFCURVE",
"492 -51 OFFCURVE",
"359 -51 CURVE SMOOTH",
"112 -51 LINE",
"112 779 LINE",
"20 779 LINE",
"20 891 LINE",
"112 891 LINE"
);
},
{
closed = 1;
nodes = (
"345 1393 LINE",
"345 891 LINE",
"531 891 LINE",
"531 779 LINE",
"345 779 LINE",
"345 168 LINE",
"378 168 LINE SMOOTH",
"480 168 OFFCURVE",
"560 204 OFFCURVE",
"618 275 CURVE SMOOTH",
"702 379 OFFCURVE",
"744 547 OFFCURVE",
"744 780 CURVE SMOOTH",
"744 1008 OFFCURVE",
"700 1178 OFFCURVE",
"611 1291 CURVE SMOOTH",
"557 1359 OFFCURVE",
"481 1393 OFFCURVE",
"384 1393 CURVE SMOOTH"
);
}
);
vertWidth = 2048;
width = 1024;
}
);
unicode = 0110;
},
{
color = 6;
glyphname = Ebreve;
lastChange = "2022-04-07 18:21:36 +0000";
layers = (
{
layerId = "4E782664-D0D5-4FED-AFC2-B9212141A2ED";
paths = (
{
closed = 1;
nodes = (
"158 1493 LINE",
"881 1493 LINE",
"881 1294 LINE",
"389 1294 LINE",
"389 840 LINE",
"822 840 LINE",
"822 643 LINE",
"389 643 LINE",
"389 154 LINE",
"899 154 LINE",
"899 -51 LINE",
"158 -51 LINE"
);
},
{
closed = 1;
nodes = (
"902 1800 LINE",
"870 1724 OFFCURVE",
"830 1668 OFFCURVE",
"781 1631 CURVE SMOOTH",
"721 1586 OFFCURVE",
"641 1563 OFFCURVE",
"540 1563 CURVE SMOOTH",
"425 1563 OFFCURVE",
"336 1594 OFFCURVE",
"273 1656 CURVE SMOOTH",
"237 1691 OFFCURVE",
"206 1739 OFFCURVE",
"181 1800 CURVE",
"320 1800 LINE",
"341 1759 OFFCURVE",
"367 1729 OFFCURVE",
"399 1711 CURVE SMOOTH",
"434 1690 OFFCURVE",
"482 1680 OFFCURVE",
"543 1680 CURVE SMOOTH",
"609 1680 OFFCURVE",
"660 1693 OFFCURVE",
"697 1719 CURVE SMOOTH",
"722 1737 OFFCURVE",
"744 1764 OFFCURVE",
"763 1800 CURVE"
);
}
);
vertWidth = 2048;
width = 1024;
}
);
unicode = 0114;
},
{
color = 6;
glyphname = Edotaccent;
lastChange = "2022-04-07 18:21:36 +0000";
layers = (
{
layerId = "4E782664-D0D5-4FED-AFC2-B9212141A2ED";
paths = (
{
closed = 1;
nodes = (
"158 1493 LINE",
"881 1493 LINE",
"881 1294 LINE",
"389 1294 LINE",
"389 840 LINE",
"822 840 LINE",
"822 643 LINE",
"389 643 LINE",
"389 154 LINE",
"899 154 LINE",
"899 -51 LINE",
"158 -51 LINE"
);
},
{
closed = 1;
nodes = (
"406 1800 LINE",
"672 1800 LINE",
"672 1595 LINE",
"406 1595 LINE"
);
}
);
vertWidth = 2048;
width = 1024;
}
);
unicode = 0116;
},
{
color = 6;
glyphname = Gbreve;
lastChange = "2022-04-07 18:21:36 +0000";
layers = (
{
background = {
paths = (
{
closed = 1;
nodes = (
"952 145 LINE",
"865 -12 OFFCURVE",
"745 -90 OFFCURVE",
"592 -90 CURVE SMOOTH",
"242 -90 OFFCURVE",
"80 297 OFFCURVE",
"80 713 CURVE SMOOTH",
"80 1117 OFFCURVE",
"237 1524 OFFCURVE",
"578 1524 CURVE SMOOTH",
"722 1524 OFFCURVE",
"842 1449 OFFCURVE",
"938 1300 CURVE",
"805 1147 LINE",
"745 1247 OFFCURVE",
"685 1321 OFFCURVE",
"584 1321 CURVE SMOOTH",
"402 1321 OFFCURVE",
"322 970 OFFCURVE",
"322 708 CURVE SMOOTH",
"322 460 OFFCURVE",
"413 117 OFFCURVE",
"595 117 CURVE SMOOTH",
"682 117 OFFCURVE",
"754 181 OFFCURVE",
"813 309 CURVE"
);
}
);
};
layerId = "4E782664-D0D5-4FED-AFC2-B9212141A2ED";
paths = (
{
closed = 1;
nodes = (
"779 -60 LINE",
"767 126 LINE",
"729 -6 OFFCURVE",
"642 -89 OFFCURVE",
"511 -89 CURVE SMOOTH",
"164 -89 OFFCURVE",
"41 302 OFFCURVE",
"41 710 CURVE SMOOTH",
"41 1118 OFFCURVE",
"191 1526 OFFCURVE",
"558 1526 CURVE SMOOTH",
"701 1526 OFFCURVE",
"827 1450 OFFCURVE",
"938 1299 CURVE",
"795 1133 LINE",
"726 1250 OFFCURVE",
"647 1309 OFFCURVE",
"558 1309 CURVE SMOOTH",
"350 1309 OFFCURVE",
"291 984 OFFCURVE",
"291 704 CURVE SMOOTH",
"291 474 OFFCURVE",
"332 130 OFFCURVE",
"527 130 CURVE SMOOTH",
"635 130 OFFCURVE",
"705 220 OFFCURVE",
"733 331 CURVE SMOOTH",
"740 361 OFFCURVE",
"744 381 OFFCURVE",
"744 390 CURVE SMOOTH",
"744 523 LINE",
"520 523 LINE",
"520 726 LINE",
"967 726 LINE",
"967 -60 LINE"
);
},
{
closed = 1;
nodes = (
"920 1800 LINE",
"888 1724 OFFCURVE",
"848 1668 OFFCURVE",
"799 1631 CURVE SMOOTH",
"739 1586 OFFCURVE",
"659 1563 OFFCURVE",
"558 1563 CURVE SMOOTH",
"443 1563 OFFCURVE",
"354 1594 OFFCURVE",
"291 1656 CURVE SMOOTH",
"255 1691 OFFCURVE",
"224 1739 OFFCURVE",
"199 1800 CURVE",
"338 1800 LINE",
"359 1759 OFFCURVE",
"385 1729 OFFCURVE",
"417 1711 CURVE SMOOTH",
"452 1690 OFFCURVE",
"500 1680 OFFCURVE",
"561 1680 CURVE SMOOTH",
"627 1680 OFFCURVE",
"678 1693 OFFCURVE",
"715 1719 CURVE SMOOTH",
"740 1737 OFFCURVE",
"762 1764 OFFCURVE",
"781 1800 CURVE"
);
}
);
vertWidth = 2048;
width = 1024;
}
);
unicode = 011E;
},
{
color = 6;
glyphname = Gcommaaccent;
lastChange = "2022-04-07 18:21:36 +0000";
layers = (
{
background = {
paths = (
{
closed = 1;
nodes = (
"419 0 LINE",
"695 0 LINE",
"695 -40 LINE SMOOTH",
"695 -124 OFFCURVE",
"674 -193 OFFCURVE",
"631 -246 CURVE",
"494 -246 LINE",
"520 -211 OFFCURVE",
"535 -172 OFFCURVE",
"540 -130 CURVE",
"419 -130 LINE"
);
},
{
closed = 1;
nodes = (
"1078 90 LINE",
"1045 303 LINE",
"925 142 OFFCURVE",
"774 68 OFFCURVE",
"565 68 CURVE SMOOTH",
"90 68 OFFCURVE",
"-216 395 OFFCURVE",
"-216 848 CURVE SMOOTH",
"-216 1296 OFFCURVE",
"95 1641 OFFCURVE",
"579 1641 CURVE SMOOTH",
"818 1641 OFFCURVE",
"976 1584 OFFCURVE",
"1162 1438 CURVE",
"1055 1297 LINE",
"914 1422 OFFCURVE",
"782 1473 OFFCURVE",
"586 1473 CURVE SMOOTH",
"204 1473 OFFCURVE",
"-11 1211 OFFCURVE",
"-11 845 CURVE SMOOTH",
"-11 495 OFFCURVE",
"202 236 OFFCURVE",
"575 236 CURVE SMOOTH",
"788 236 OFFCURVE",
"935 318 OFFCURVE",
"1041 496 CURVE",
"1041 677 LINE",
"570 677 LINE",
"570 835 LINE",
"1221 835 LINE",
"1221 90 LINE"
);
}
);
};
layerId = "4E782664-D0D5-4FED-AFC2-B9212141A2ED";
paths = (
{
closed = 1;
nodes = (
"779 100 LINE",
"767 286 LINE",
"729 154 OFFCURVE",
"642 71 OFFCURVE",
"511 71 CURVE SMOOTH",
"164 71 OFFCURVE",
"41 452 OFFCURVE",
"41 850 CURVE SMOOTH",
"41 1248 OFFCURVE",
"191 1646 OFFCURVE",
"558 1646 CURVE SMOOTH",
"701 1646 OFFCURVE",
"827 1570 OFFCURVE",
"938 1419 CURVE",
"795 1253 LINE",
"726 1370 OFFCURVE",
"647 1429 OFFCURVE",
"558 1429 CURVE SMOOTH",
"350 1429 OFFCURVE",
"291 1114 OFFCURVE",
"291 844 CURVE SMOOTH",
"291 582 OFFCURVE",
"345 290 OFFCURVE",
"527 290 CURVE SMOOTH",
"635 290 OFFCURVE",
"705 380 OFFCURVE",
"733 491 CURVE SMOOTH",
"740 521 OFFCURVE",
"744 541 OFFCURVE",
"744 550 CURVE SMOOTH",
"744 663 LINE",
"520 663 LINE",
"520 866 LINE",
"967 866 LINE",
"967 100 LINE"
);
},
{
closed = 1;
nodes = (
"399 0 LINE",
"715 0 LINE",
"715 -40 LINE SMOOTH",
"715 -124 OFFCURVE",
"694 -193 OFFCURVE",
"651 -246 CURVE",
"474 -246 LINE",
"500 -223 OFFCURVE",
"515 -198 OFFCURVE",
"520 -170 CURVE",
"399 -170 LINE"
);
}
);
vertWidth = 2048;
width = 1024;
}
);
unicode = 0122;
},
{
color = 6;
glyphname = Gdotaccent;
lastChange = "2022-04-07 18:21:36 +0000";
layers = (
{
layerId = "4E782664-D0D5-4FED-AFC2-B9212141A2ED";
paths = (
{
closed = 1;
nodes = (
"779 -60 LINE",
"767 126 LINE",
"729 -6 OFFCURVE",
"642 -89 OFFCURVE",
"511 -89 CURVE SMOOTH",
"164 -89 OFFCURVE",
"41 302 OFFCURVE",
"41 710 CURVE SMOOTH",
"41 1118 OFFCURVE",
"191 1526 OFFCURVE",
"558 1526 CURVE SMOOTH",
"701 1526 OFFCURVE",
"827 1450 OFFCURVE",
"938 1299 CURVE",
"795 1133 LINE",
"726 1250 OFFCURVE",
"647 1309 OFFCURVE",
"558 1309 CURVE SMOOTH",
"350 1309 OFFCURVE",
"291 984 OFFCURVE",
"291 704 CURVE SMOOTH",
"291 474 OFFCURVE",
"332 130 OFFCURVE",
"527 130 CURVE SMOOTH",
"635 130 OFFCURVE",
"705 220 OFFCURVE",
"733 331 CURVE SMOOTH",
"740 361 OFFCURVE",
"744 381 OFFCURVE",
"744 390 CURVE SMOOTH",
"744 523 LINE",
"520 523 LINE",
"520 726 LINE",
"967 726 LINE",
"967 -60 LINE"
);
},
{
closed = 1;
nodes = (
"421 1800 LINE",
"687 1800 LINE",
"687 1595 LINE",
"421 1595 LINE"
);
}
);
vertWidth = 2048;
width = 1024;
}
);
unicode = 0120;
},
{
color = 6;
glyphname = Hbar;
lastChange = "2022-04-07 18:21:36 +0000";
layers = (
{
background = {
paths = (
{
closed = 1;
nodes = (
"82 1608 LINE",
"311 1608 LINE",
"311 1295 LINE",
"713 1295 LINE",
"713 1608 LINE",
"942 1608 LINE",
"942 -51 LINE",
"713 -51 LINE",
"713 700 LINE",
"311 700 LINE",
"311 -51 LINE",
"82 -51 LINE"
);
},
{
closed = 1;
nodes = (
"713 915 LINE",
"713 1080 LINE",
"311 1080 LINE",
"311 915 LINE"
);
}
);
};
layerId = "4E782664-D0D5-4FED-AFC2-B9212141A2ED";
paths = (
{
closed = 1;
nodes = (
"82 1608 LINE",
"311 1608 LINE",
"311 1295 LINE",
"713 1295 LINE",
"713 1608 LINE",
"942 1608 LINE",
"942 -51 LINE",
"713 -51 LINE",
"713 700 LINE",
"311 700 LINE",
"311 -51 LINE",
"82 -51 LINE"
);
},
{
closed = 1;
nodes = (
"713 915 LINE",
"713 1080 LINE",
"311 1080 LINE",
"311 915 LINE"
);
}
);
vertWidth = 2048;
width = 1024;
}
);
unicode = 0126;
},
{
color = 6;
glyphname = IJ;
lastChange = "2022-04-07 18:21:36 +0000";
layers = (
{
background = {
paths = (
{
closed = 1;
nodes = (
"755 1608 LINE",
"925 1608 LINE",
"925 359 LINE SMOOTH",
"925 91 OFFCURVE",
"821 -84 OFFCURVE",
"549 -84 CURVE SMOOTH",
"399 -84 OFFCURVE",
"268 12 OFFCURVE",
"209 142 CURVE",
"305 252 LINE",
"351 156 OFFCURVE",
"443 76 OFFCURVE",
"549 76 CURVE SMOOTH",
"717 76 OFFCURVE",
"755 200 OFFCURVE",
"755 373 CURVE SMOOTH"
);
},
{
closed = 1;
nodes = (
"77 1608 LINE",
"591 1608 LINE",
"591 1465 LINE",
"419 1465 LINE",
"419 502 LINE",
"591 502 LINE",
"591 359 LINE",
"77 359 LINE",
"77 502 LINE",
"249 502 LINE",
"249 1465 LINE",
"77 1465 LINE"
);
}
);
};
layerId = "4E782664-D0D5-4FED-AFC2-B9212141A2ED";
paths = (
{
closed = 1;
nodes = (
"709 1608 LINE",
"942 1608 LINE",
"942 377 LINE SMOOTH",
"942 87 OFFCURVE",
"828 -90 OFFCURVE",
"537 -90 CURVE SMOOTH",
"373 -90 OFFCURVE",
"213 -1 OFFCURVE",
"148 117 CURVE",
"264 277 LINE",
"335 178 OFFCURVE",
"424 129 OFFCURVE",
"536 129 CURVE SMOOTH",
"687 129 OFFCURVE",
"709 242 OFFCURVE",
"709 404 CURVE SMOOTH"
);
},
{
closed = 1;
nodes = (
"35 1608 LINE",
"609 1608 LINE",
"609 1424 LINE",
"441 1424 LINE",
"441 543 LINE",
"609 543 LINE",
"609 359 LINE",
"35 359 LINE",
"35 543 LINE",
"203 543 LINE",
"203 1424 LINE",
"35 1424 LINE"
);
}
);
vertWidth = 2048;
width = 1024;
}
);
unicode = 0132;
},
{
color = 6;
glyphname = Ibreve;
lastChange = "2022-04-07 18:21:36 +0000";
layers = (
{
layerId = "4E782664-D0D5-4FED-AFC2-B9212141A2ED";
paths = (
{
closed = 1;
nodes = (
"225 1485 LINE",
"799 1485 LINE",
"799 1315 LINE",
"631 1315 LINE",
"631 119 LINE",
"799 119 LINE",
"799 -51 LINE",
"225 -51 LINE",
"225 119 LINE",
"393 119 LINE",
"393 1315 LINE",
"225 1315 LINE"
);
},
{
closed = 1;
nodes = (
"872 1800 LINE",
"840 1724 OFFCURVE",
"800 1668 OFFCURVE",
"751 1631 CURVE SMOOTH",
"691 1586 OFFCURVE",
"611 1563 OFFCURVE",
"510 1563 CURVE SMOOTH",
"395 1563 OFFCURVE",
"306 1594 OFFCURVE",
"243 1656 CURVE SMOOTH",
"207 1691 OFFCURVE",
"176 1739 OFFCURVE",
"151 1800 CURVE",
"290 1800 LINE",
"311 1759 OFFCURVE",
"337 1729 OFFCURVE",
"369 1711 CURVE SMOOTH",
"404 1690 OFFCURVE",
"452 1680 OFFCURVE",
"513 1680 CURVE SMOOTH",
"579 1680 OFFCURVE",
"630 1693 OFFCURVE",
"667 1719 CURVE SMOOTH",
"692 1737 OFFCURVE",
"714 1764 OFFCURVE",
"733 1800 CURVE"
);
}
);
vertWidth = 2048;
width = 1024;
}
);
unicode = 012C;
},
{
color = 6;
glyphname = Idotaccent;
lastChange = "2022-04-07 18:21:36 +0000";
layers = (
{
layerId = "4E782664-D0D5-4FED-AFC2-B9212141A2ED";
paths = (
{
closed = 1;
nodes = (
"631 1315 LINE",
"631 119 LINE",
"799 119 LINE",
"799 -51 LINE",
"225 -51 LINE",
"225 119 LINE",
"393 119 LINE",
"393 1315 LINE",
"225 1315 LINE",
"225 1485 LINE",
"799 1485 LINE",
"799 1315 LINE"
);
},
{
closed = 1;
nodes = (
"379 1595 LINE",
"379 1800 LINE",
"645 1800 LINE",
"645 1595 LINE"
);
}
);
vertWidth = 2048;
width = 1024;
}
);
unicode = 0130;
},
{
color = 6;
glyphname = Iogonek;
lastChange = "2022-04-07 18:21:36 +0000";
layers = (
{
background = {
paths = (
{
closed = 1;
nodes = (
"414 -244 OFFCURVE",
"362 -235 OFFCURVE",
"323 -217 CURVE SMOOTH",
"276 -196 OFFCURVE",
"252 -163 OFFCURVE",
"252 -119 CURVE SMOOTH",
"252 -58 OFFCURVE",
"305 2 OFFCURVE",
"411 63 CURVE",
"225 63 LINE",
"225 247 LINE",
"393 247 LINE",
"393 1424 LINE",
"225 1424 LINE",
"225 1608 LINE",
"799 1608 LINE",
"799 1424 LINE",
"631 1424 LINE",
"631 247 LINE",
"799 247 LINE",
"799 63 LINE",
"574 63 LINE",
"515 32 OFFCURVE",
"474 6 OFFCURVE",
"451 -14 CURVE SMOOTH",
"423 -39 OFFCURVE",
"409 -65 OFFCURVE",
"409 -94 CURVE SMOOTH",
"409 -113 OFFCURVE",
"419 -129 OFFCURVE",
"438 -141 CURVE SMOOTH",
"457 -154 OFFCURVE",
"481 -160 OFFCURVE",
"510 -160 CURVE SMOOTH",
"583 -160 OFFCURVE",
"659 -144 OFFCURVE",
"738 -111 CURVE",
"738 -193 LINE",
"667 -227 OFFCURVE",
"580 -244 OFFCURVE",
"477 -244 CURVE SMOOTH"
);
}
);
};
layerId = "4E782664-D0D5-4FED-AFC2-B9212141A2ED";
paths = (
{
closed = 1;
nodes = (
"414 -244 OFFCURVE",
"362 -235 OFFCURVE",
"323 -217 CURVE SMOOTH",
"276 -196 OFFCURVE",
"252 -163 OFFCURVE",
"252 -119 CURVE SMOOTH",
"252 -58 OFFCURVE",
"305 2 OFFCURVE",
"411 63 CURVE",
"225 63 LINE",
"225 247 LINE",
"393 247 LINE",
"393 1424 LINE",
"225 1424 LINE",
"225 1608 LINE",
"799 1608 LINE",
"799 1424 LINE",
"631 1424 LINE",
"631 247 LINE",
"799 247 LINE",
"799 63 LINE",
"574 63 LINE",
"515 32 OFFCURVE",
"474 6 OFFCURVE",
"451 -14 CURVE SMOOTH",
"423 -39 OFFCURVE",
"409 -65 OFFCURVE",
"409 -94 CURVE SMOOTH",
"409 -113 OFFCURVE",
"419 -129 OFFCURVE",
"438 -141 CURVE SMOOTH",
"457 -154 OFFCURVE",
"481 -160 OFFCURVE",
"510 -160 CURVE SMOOTH",
"583 -160 OFFCURVE",
"659 -144 OFFCURVE",
"738 -111 CURVE",
"738 -193 LINE",
"667 -227 OFFCURVE",
"580 -244 OFFCURVE",
"477 -244 CURVE SMOOTH"
);
}
);
vertWidth = 2048;
width = 1024;
}
);
unicode = 012E;
},
{
color = 6;
glyphname = Itilde;
lastChange = "2022-04-07 18:21:36 +0000";
layers = (
{
layerId = "4E782664-D0D5-4FED-AFC2-B9212141A2ED";
paths = (
{
closed = 1;
nodes = (
"225 1485 LINE",
"799 1485 LINE",
"799 1315 LINE",
"631 1315 LINE",
"631 119 LINE",
"799 119 LINE",
"799 -51 LINE",
"225 -51 LINE",
"225 119 LINE",
"393 119 LINE",
"393 1315 LINE",
"225 1315 LINE"
);
},
{
closed = 1;
nodes = (
"873 1641 LINE",
"828 1595 OFFCURVE",
"769 1572 OFFCURVE",
"694 1572 CURVE SMOOTH",
"651 1572 OFFCURVE",
"587 1588 OFFCURVE",
"504 1621 CURVE SMOOTH",
"442 1646 OFFCURVE",
"387 1658 OFFCURVE",
"339 1658 CURVE SMOOTH",
"274 1658 OFFCURVE",
"215 1638 OFFCURVE",
"160 1598 CURVE",
"160 1732 LINE",
"205 1778 OFFCURVE",
"265 1801 OFFCURVE",
"339 1801 CURVE SMOOTH",
"382 1801 OFFCURVE",
"445 1785 OFFCURVE",
"529 1752 CURVE SMOOTH",
"592 1727 OFFCURVE",
"646 1715 OFFCURVE",
"693 1715 CURVE SMOOTH",
"758 1715 OFFCURVE",
"818 1735 OFFCURVE",
"873 1775 CURVE"
);
}
);
vertWidth = 2048;
width = 1024;
}
);
unicode = 0128;
},
{
color = 6;
glyphname = Kcommaaccent;
lastChange = "2022-04-07 18:21:36 +0000";
layers = (
{
background = {
paths = (
{
closed = 1;
nodes = (
"94 1608 LINE",
"325 1608 LINE",
"325 959 LINE",
"700 1608 LINE",
"958 1608 LINE",
"532 944 LINE",
"991 69 LINE",
"722 69 LINE",
"404 745 LINE",
"325 621 LINE",
"325 69 LINE",
"94 69 LINE"
);
},
{
closed = 1;
nodes = (
"445 -223 OFFCURVE",
"460 -198 OFFCURVE",
"465 -170 CURVE",
"344 -170 LINE",
"344 0 LINE",
"660 0 LINE",
"660 -40 LINE SMOOTH",
"660 -124 OFFCURVE",
"639 -193 OFFCURVE",
"596 -246 CURVE",
"419 -246 LINE"
);
}
);
};
layerId = "4E782664-D0D5-4FED-AFC2-B9212141A2ED";
paths = (
{
closed = 1;
nodes = (
"94 1608 LINE",
"325 1608 LINE",
"325 959 LINE",
"700 1608 LINE",
"958 1608 LINE",
"532 944 LINE",
"991 69 LINE",
"722 69 LINE",
"404 745 LINE",
"325 621 LINE",
"325 69 LINE",
"94 69 LINE"
);
},
{
closed = 1;
nodes = (
"445 -223 OFFCURVE",
"460 -198 OFFCURVE",
"465 -170 CURVE",
"344 -170 LINE",
"344 0 LINE",
"660 0 LINE",
"660 -40 LINE SMOOTH",
"660 -124 OFFCURVE",
"639 -193 OFFCURVE",
"596 -246 CURVE",
"419 -246 LINE"
);
}
);
vertWidth = 2048;
width = 1024;
}
);
unicode = 0136;
},
{
color = 6;
glyphname = Lcommaaccent;
lastChange = "2022-04-07 18:21:36 +0000";
layers = (
{
background = {
paths = (
{
closed = 1;
nodes = (
"215 1608 LINE",
"385 1608 LINE",
"385 231 LINE",
"891 231 LINE",
"891 69 LINE",
"215 69 LINE"
);
},
{
closed = 1;
nodes = (
"413 0 LINE",
"689 0 LINE",
"689 -40 LINE SMOOTH",
"689 -124 OFFCURVE",
"668 -193 OFFCURVE",
"625 -246 CURVE",
"488 -246 LINE",
"514 -211 OFFCURVE",
"529 -172 OFFCURVE",
"534 -130 CURVE",
"413 -130 LINE"
);
}
);
};
layerId = "4E782664-D0D5-4FED-AFC2-B9212141A2ED";
paths = (
{
closed = 1;
nodes = (
"190 1608 LINE",
"426 1608 LINE",
"426 296 LINE",
"903 296 LINE",
"903 69 LINE",
"190 69 LINE"
);
},
{
closed = 1;
nodes = (
"394 0 LINE",
"710 0 LINE",
"710 -40 LINE SMOOTH",
"710 -124 OFFCURVE",
"689 -193 OFFCURVE",
"646 -246 CURVE",
"469 -246 LINE",
"495 -223 OFFCURVE",
"510 -198 OFFCURVE",
"515 -170 CURVE",
"394 -170 LINE"
);
}
);
vertWidth = 2048;
width = 1024;
}
);
unicode = 013B;
},
{
color = 6;
glyphname = Ldot;
lastChange = "2022-04-07 18:21:36 +0000";
layers = (
{
background = {
paths = (
{
closed = 1;
nodes = (
"215 1608 LINE",
"385 1608 LINE",
"385 111 LINE",
"891 111 LINE",
"891 -51 LINE",
"215 -51 LINE"
);
},
{
closed = 1;
nodes = (
"952 777 LINE",
"723 777 LINE",
"723 980 LINE",
"952 980 LINE"
);
}
);
};
layerId = "4E782664-D0D5-4FED-AFC2-B9212141A2ED";
paths = (
{
closed = 1;
nodes = (
"190 1608 LINE",
"426 1608 LINE",
"426 176 LINE",
"903 176 LINE",
"903 -51 LINE",
"190 -51 LINE"
);
},
{
closed = 1;
nodes = (
"694 979 LINE",
"960 979 LINE",
"960 774 LINE",
"694 774 LINE"
);
}
);
vertWidth = 2048;
width = 1024;
}
);
unicode = 013F;
},
{
color = 6;
glyphname = Ncommaaccent;
lastChange = "2022-04-07 18:21:36 +0000";
layers = (
{
background = {
paths = (
{
closed = 1;
nodes = (
"100 1608 LINE",
"305 1608 LINE",
"624 839 LINE SMOOTH",
"665 741 OFFCURVE",
"720 602 OFFCURVE",
"774 418 CURVE SMOOTH",
"784 384 LINE",
"792 384 LINE",
"777 628 OFFCURVE",
"768 862 OFFCURVE",
"765 1086 CURVE SMOOTH",
"759 1608 LINE",
"925 1608 LINE",
"925 69 LINE",
"774 69 LINE",
"409 955 LINE SMOOTH",
"381 1022 OFFCURVE",
"318 1159 OFFCURVE",
"253 1374 CURVE SMOOTH",
"239 1420 LINE",
"229 1420 LINE",
"247 1220 OFFCURVE",
"257 1003 OFFCURVE",
"260 771 CURVE SMOOTH",
"268 69 LINE",
"100 69 LINE"
);
},
{
closed = 1;
nodes = (
"383 0 LINE",
"659 0 LINE",
"659 -40 LINE SMOOTH",
"659 -124 OFFCURVE",
"638 -193 OFFCURVE",
"595 -246 CURVE",
"458 -246 LINE",
"484 -211 OFFCURVE",
"499 -172 OFFCURVE",
"504 -130 CURVE",
"383 -130 LINE"
);
}
);
};
layerId = "4E782664-D0D5-4FED-AFC2-B9212141A2ED";
paths = (
{
closed = 1;
nodes = (
"82 1608 LINE",
"340 1608 LINE",
"647 847 LINE SMOOTH",
"681 764 OFFCURVE",
"720 640 OFFCURVE",
"755 475 CURVE SMOOTH",
"762 442 LINE",
"770 442 LINE",
"745 638 OFFCURVE",
"730 875 OFFCURVE",
"725 1152 CURVE SMOOTH",
"717 1608 LINE",
"942 1608 LINE",
"942 69 LINE",
"741 69 LINE",
"383 943 LINE SMOOTH",
"355 1012 OFFCURVE",
"311 1149 OFFCURVE",
"256 1356 CURVE",
"248 1356 LINE",
"277 1122 OFFCURVE",
"293 889 OFFCURVE",
"297 658 CURVE SMOOTH",
"307 69 LINE",
"82 69 LINE"
);
},
{
closed = 1;
nodes = (
"364 0 LINE",
"680 0 LINE",
"680 -40 LINE SMOOTH",
"680 -124 OFFCURVE",
"659 -193 OFFCURVE",
"616 -246 CURVE",
"439 -246 LINE",
"465 -223 OFFCURVE",
"480 -198 OFFCURVE",
"485 -170 CURVE",
"364 -170 LINE"
);
}
);
vertWidth = 2048;
width = 1024;
}
);
unicode = 0145;
},
{
color = 6;
glyphname = Eng;
lastChange = "2022-04-07 18:21:36 +0000";
layers = (
{
background = {
paths = (
{
closed = 1;
nodes = (
"425 -33 LINE",
"591 -33 OFFCURVE",
"691 -4 OFFCURVE",
"728 102 CURVE",
"383 943 LINE SMOOTH",
"355 1012 OFFCURVE",
"311 1149 OFFCURVE",
"256 1356 CURVE",
"248 1356 LINE",
"277 1122 OFFCURVE",
"293 889 OFFCURVE",
"297 658 CURVE SMOOTH",
"307 69 LINE",
"82 69 LINE",
"82 1608 LINE",
"340 1608 LINE",
"647 847 LINE SMOOTH",
"681 764 OFFCURVE",
"720 640 OFFCURVE",
"755 475 CURVE SMOOTH",
"762 442 LINE",
"770 442 LINE",
"745 638 OFFCURVE",
"730 875 OFFCURVE",
"725 1152 CURVE SMOOTH",
"717 1608 LINE",
"942 1608 LINE",
"942 209 LINE SMOOTH",
"942 -113 OFFCURVE",
"834 -220 OFFCURVE",
"499 -244 CURVE"
);
}
);
};
layerId = "4E782664-D0D5-4FED-AFC2-B9212141A2ED";
paths = (
{
closed = 1;
nodes = (
"425 -33 LINE",
"591 -33 OFFCURVE",
"691 -4 OFFCURVE",
"728 102 CURVE",
"383 943 LINE SMOOTH",
"355 1012 OFFCURVE",
"311 1149 OFFCURVE",
"256 1356 CURVE",
"248 1356 LINE",
"277 1122 OFFCURVE",
"293 889 OFFCURVE",
"297 658 CURVE SMOOTH",
"307 69 LINE",
"82 69 LINE",
"82 1608 LINE",
"340 1608 LINE",
"647 847 LINE SMOOTH",
"681 764 OFFCURVE",
"720 640 OFFCURVE",
"755 475 CURVE SMOOTH",
"762 442 LINE",
"770 442 LINE",
"745 638 OFFCURVE",
"730 875 OFFCURVE",
"725 1152 CURVE SMOOTH",
"717 1608 LINE",
"942 1608 LINE",
"942 209 LINE SMOOTH",
"942 -113 OFFCURVE",
"834 -220 OFFCURVE",
"499 -244 CURVE"
);
}
);
vertWidth = 2048;
width = 1024;
}
);
unicode = 014A;
},
{
color = 6;
glyphname = Obreve;
lastChange = "2022-04-07 18:21:36 +0000";
layers = (
{
layerId = "4E782664-D0D5-4FED-AFC2-B9212141A2ED";
paths = (
{
closed = 1;
nodes = (
"658 1524 OFFCURVE",
"771 1452 OFFCURVE",
"852 1308 CURVE SMOOTH",
"933 1165 OFFCURVE",
"973 969 OFFCURVE",
"973 720 CURVE SMOOTH",
"973 512 OFFCURVE",
"944 338 OFFCURVE",
"887 200 CURVE SMOOTH",
"806 7 OFFCURVE",
"681 -90 OFFCURVE",
"510 -90 CURVE SMOOTH",
"357 -90 OFFCURVE",
"241 -10 OFFCURVE",
"160 151 CURVE SMOOTH",
"87 294 OFFCURVE",
"51 484 OFFCURVE",
"51 719 CURVE SMOOTH",
"51 990 OFFCURVE",
"98 1198 OFFCURVE",
"192 1341 CURVE SMOOTH",
"273 1463 OFFCURVE",
"380 1524 OFFCURVE",
"514 1524 CURVE SMOOTH"
);
},
{
closed = 1;
nodes = (
"451 1323 OFFCURVE",
"402 1279 OFFCURVE",
"365 1192 CURVE SMOOTH",
"320 1086 OFFCURVE",
"297 929 OFFCURVE",
"297 720 CURVE SMOOTH",
"297 506 OFFCURVE",
"320 346 OFFCURVE",
"367 241 CURVE SMOOTH",
"404 157 OFFCURVE",
"452 115 OFFCURVE",
"512 115 CURVE SMOOTH",
"573 115 OFFCURVE",
"622 159 OFFCURVE",
"659 247 CURVE SMOOTH",
"704 353 OFFCURVE",
"727 510 OFFCURVE",
"727 719 CURVE SMOOTH",
"727 936 OFFCURVE",
"703 1097 OFFCURVE",
"654 1204 CURVE SMOOTH",
"617 1283 OFFCURVE",
"570 1323 OFFCURVE",
"511 1323 CURVE SMOOTH"
);
},
{
closed = 1;
nodes = (
"876 1800 LINE",
"844 1724 OFFCURVE",
"804 1668 OFFCURVE",
"755 1631 CURVE SMOOTH",
"695 1586 OFFCURVE",
"615 1563 OFFCURVE",
"514 1563 CURVE SMOOTH",
"399 1563 OFFCURVE",
"310 1594 OFFCURVE",
"247 1656 CURVE SMOOTH",
"211 1691 OFFCURVE",
"180 1739 OFFCURVE",
"155 1800 CURVE",
"294 1800 LINE",
"315 1759 OFFCURVE",
"341 1729 OFFCURVE",
"373 1711 CURVE SMOOTH",
"408 1690 OFFCURVE",
"456 1680 OFFCURVE",
"517 1680 CURVE SMOOTH",
"583 1680 OFFCURVE",
"634 1693 OFFCURVE",
"671 1719 CURVE SMOOTH",
"696 1737 OFFCURVE",
"718 1764 OFFCURVE",
"737 1800 CURVE"
);
}
);
vertWidth = 2048;
width = 1024;
}
);
unicode = 014E;
},
{
color = 6;
glyphname = Rcommaaccent;
lastChange = "2022-04-07 18:21:36 +0000";
layers = (
{
background = {
paths = (
{
closed = 1;
nodes = (
"129 1608 LINE",
"467 1608 LINE SMOOTH",
"736 1608 OFFCURVE",
"895 1445 OFFCURVE",
"895 1195 CURVE SMOOTH",
"895 973 OFFCURVE",
"788 840 OFFCURVE",
"575 798 CURVE",
"575 789 LINE",
"657 750 OFFCURVE",
"722 675 OFFCURVE",
"769 564 CURVE SMOOTH",
"803 483 OFFCURVE",
"873 320 OFFCURVE",
"969 69 CURVE",
"770 69 LINE",
"682 352 OFFCURVE",
"615 525 OFFCURVE",
"577 593 CURVE SMOOTH",
"527 683 OFFCURVE",
"468 728 OFFCURVE",
"399 728 CURVE SMOOTH",
"297 728 LINE",
"297 69 LINE",
"129 69 LINE"
);
},
{
closed = 1;
nodes = (
"297 1460 LINE",
"297 871 LINE",
"426 871 LINE SMOOTH",
"614 871 OFFCURVE",
"719 999 OFFCURVE",
"719 1188 CURVE SMOOTH",
"719 1351 OFFCURVE",
"643 1460 OFFCURVE",
"465 1460 CURVE SMOOTH"
);
},
{
closed = 1;
nodes = (
"373 0 LINE",
"649 0 LINE",
"649 -40 LINE SMOOTH",
"649 -124 OFFCURVE",
"628 -193 OFFCURVE",
"585 -246 CURVE",
"448 -246 LINE",
"474 -211 OFFCURVE",
"489 -172 OFFCURVE",
"494 -130 CURVE",
"373 -130 LINE"
);
}
);
};
layerId = "4E782664-D0D5-4FED-AFC2-B9212141A2ED";
paths = (
{
closed = 1;
nodes = (
"109 1608 LINE",
"475 1608 LINE SMOOTH",
"746 1608 OFFCURVE",
"907 1437 OFFCURVE",
"907 1185 CURVE SMOOTH",
"907 988 OFFCURVE",
"814 825 OFFCURVE",
"612 791 CURVE",
"612 785 LINE",
"685 748 OFFCURVE",
"742 681 OFFCURVE",
"783 583 CURVE SMOOTH",
"826 483 OFFCURVE",
"898 313 OFFCURVE",
"989 69 CURVE",
"717 69 LINE",
"624 354 OFFCURVE",
"563 521 OFFCURVE",
"539 572 CURVE SMOOTH",
"500 658 OFFCURVE",
"449 701 OFFCURVE",
"385 701 CURVE SMOOTH",
"342 701 LINE",
"342 69 LINE",
"109 69 LINE"
);
},
{
closed = 1;
nodes = (
"342 1407 LINE",
"342 898 LINE",
"449 898 LINE SMOOTH",
"593 898 OFFCURVE",
"663 1014 OFFCURVE",
"663 1166 CURVE SMOOTH",
"663 1301 OFFCURVE",
"607 1407 OFFCURVE",
"461 1407 CURVE SMOOTH"
);
},
{
closed = 1;
nodes = (
"354 0 LINE",
"670 0 LINE",
"670 -40 LINE SMOOTH",
"670 -124 OFFCURVE",
"649 -193 OFFCURVE",
"606 -246 CURVE",
"429 -246 LINE",
"455 -223 OFFCURVE",
"470 -198 OFFCURVE",
"475 -170 CURVE",
"354 -170 LINE"
);
}
);
vertWidth = 2048;
width = 1024;
}
);
unicode = 0156;
},
{
color = 6;
glyphname = Tbar;
lastChange = "2022-04-07 18:21:36 +0000";
layers = (
{
background = {
paths = (
{
closed = 1;
nodes = (
"395 720 LINE",
"211 720 LINE",
"211 935 LINE",
"395 935 LINE",
"395 1385 LINE",
"55 1385 LINE",
"55 1608 LINE",
"968 1608 LINE",
"968 1385 LINE",
"628 1385 LINE",
"628 935 LINE",
"813 935 LINE",
"813 720 LINE",
"628 720 LINE",
"628 -51 LINE",
"395 -51 LINE"
);
}
);
};
layerId = "4E782664-D0D5-4FED-AFC2-B9212141A2ED";
paths = (
{
closed = 1;
nodes = (
"395 720 LINE",
"211 720 LINE",
"211 935 LINE",
"395 935 LINE",
"395 1385 LINE",
"55 1385 LINE",
"55 1608 LINE",
"968 1608 LINE",
"968 1385 LINE",
"628 1385 LINE",
"628 935 LINE",
"813 935 LINE",
"813 720 LINE",
"628 720 LINE",
"628 -51 LINE",
"395 -51 LINE"
);
}
);
vertWidth = 2048;
width = 1024;
}
);
unicode = 0166;
},
{
color = 6;
glyphname = Uogonek;
lastChange = "2022-04-07 18:21:36 +0000";
layers = (
{
background = {
paths = (
{
closed = 1;
nodes = (
"430 -244 OFFCURVE",
"378 -235 OFFCURVE",
"339 -217 CURVE SMOOTH",
"292 -196 OFFCURVE",
"268 -163 OFFCURVE",
"268 -119 CURVE SMOOTH",
"268 -63 OFFCURVE",
"312 -8 OFFCURVE",
"402 48 CURVE",
"185 105 OFFCURVE",
"84 340 OFFCURVE",
"84 628 CURVE SMOOTH",
"84 1608 LINE",
"309 1608 LINE",
"309 644 LINE SMOOTH",
"309 430 OFFCURVE",
"353 253 OFFCURVE",
"513 253 CURVE SMOOTH",
"648 253 OFFCURVE",
"715 383 OFFCURVE",
"715 644 CURVE SMOOTH",
"715 1608 LINE",
"940 1608 LINE",
"940 628 LINE SMOOTH",
"940 309 OFFCURVE",
"818 51 OFFCURVE",
"539 35 CURVE",
"507 16 OFFCURVE",
"483 0 OFFCURVE",
"467 -14 CURVE SMOOTH",
"439 -39 OFFCURVE",
"425 -65 OFFCURVE",
"425 -94 CURVE SMOOTH",
"425 -113 OFFCURVE",
"435 -129 OFFCURVE",
"454 -141 CURVE SMOOTH",
"473 -154 OFFCURVE",
"497 -160 OFFCURVE",
"526 -160 CURVE SMOOTH",
"599 -160 OFFCURVE",
"675 -144 OFFCURVE",
"754 -111 CURVE",
"754 -193 LINE",
"683 -227 OFFCURVE",
"596 -244 OFFCURVE",
"493 -244 CURVE SMOOTH"
);
}
);
};
layerId = "4E782664-D0D5-4FED-AFC2-B9212141A2ED";
paths = (
{
closed = 1;
nodes = (
"430 -244 OFFCURVE",
"378 -235 OFFCURVE",
"339 -217 CURVE SMOOTH",
"292 -196 OFFCURVE",
"268 -163 OFFCURVE",
"268 -119 CURVE SMOOTH",
"268 -63 OFFCURVE",
"312 -8 OFFCURVE",
"402 48 CURVE",
"185 105 OFFCURVE",
"84 340 OFFCURVE",
"84 628 CURVE SMOOTH",
"84 1608 LINE",
"309 1608 LINE",
"309 644 LINE SMOOTH",
"309 430 OFFCURVE",
"353 253 OFFCURVE",
"513 253 CURVE SMOOTH",
"648 253 OFFCURVE",
"715 383 OFFCURVE",
"715 644 CURVE SMOOTH",
"715 1608 LINE",
"940 1608 LINE",
"940 628 LINE SMOOTH",
"940 309 OFFCURVE",
"818 51 OFFCURVE",
"539 35 CURVE",
"507 16 OFFCURVE",
"483 0 OFFCURVE",
"467 -14 CURVE SMOOTH",
"439 -39 OFFCURVE",
"425 -65 OFFCURVE",
"425 -94 CURVE SMOOTH",
"425 -113 OFFCURVE",
"435 -129 OFFCURVE",
"454 -141 CURVE SMOOTH",
"473 -154 OFFCURVE",
"497 -160 OFFCURVE",
"526 -160 CURVE SMOOTH",
"599 -160 OFFCURVE",
"675 -144 OFFCURVE",
"754 -111 CURVE",
"754 -193 LINE",
"683 -227 OFFCURVE",
"596 -244 OFFCURVE",
"493 -244 CURVE SMOOTH"
);
}
);
vertWidth = 2048;
width = 1024;
}
);
unicode = 0172;
},
{
color = 6;
glyphname = Utilde;
lastChange = "2022-04-07 18:21:36 +0000";
layers = (
{
background = {
paths = (
{
closed = 1;
nodes = (
"100 1485 LINE",
"264 1485 LINE",
"264 506 LINE SMOOTH",
"264 219 OFFCURVE",
"347 76 OFFCURVE",
"512 76 CURVE SMOOTH",
"677 76 OFFCURVE",
"759 219 OFFCURVE",
"759 506 CURVE SMOOTH",
"759 1485 LINE",
"925 1485 LINE",
"925 489 LINE SMOOTH",
"925 340 OFFCURVE",
"902 219 OFFCURVE",
"855 127 CURVE SMOOTH",
"784 -15 OFFCURVE",
"669 -86 OFFCURVE",
"512 -86 CURVE SMOOTH",
"397 -86 OFFCURVE",
"303 -45 OFFCURVE",
"230 38 CURVE SMOOTH",
"143 136 OFFCURVE",
"100 286 OFFCURVE",
"100 489 CURVE SMOOTH"
);
},
{
closed = 1;
nodes = (
"860 1647 LINE",
"821 1604 OFFCURVE",
"768 1583 OFFCURVE",
"700 1583 CURVE SMOOTH",
"656 1583 OFFCURVE",
"596 1599 OFFCURVE",
"521 1630 CURVE SMOOTH",
"458 1656 OFFCURVE",
"403 1669 OFFCURVE",
"358 1669 CURVE SMOOTH",
"297 1669 OFFCURVE",
"242 1651 OFFCURVE",
"193 1616 CURVE",
"193 1727 LINE",
"233 1769 OFFCURVE",
"287 1790 OFFCURVE",
"355 1790 CURVE SMOOTH",
"400 1790 OFFCURVE",
"460 1774 OFFCURVE",
"535 1743 CURVE SMOOTH",
"597 1717 OFFCURVE",
"651 1704 OFFCURVE",
"696 1704 CURVE SMOOTH",
"759 1704 OFFCURVE",
"813 1722 OFFCURVE",
"860 1757 CURVE"
);
}
);
};
layerId = "4E782664-D0D5-4FED-AFC2-B9212141A2ED";
paths = (
{
closed = 1;
nodes = (
"84 1464 LINE",
"309 1464 LINE",
"309 518 LINE SMOOTH",
"309 391 OFFCURVE",
"325 294 OFFCURVE",
"358 229 CURVE SMOOTH",
"373 200 OFFCURVE",
"389 177 OFFCURVE",
"407 161 CURVE SMOOTH",
"432 138 OFFCURVE",
"468 127 OFFCURVE",
"513 127 CURVE SMOOTH",
"648 127 OFFCURVE",
"715 257 OFFCURVE",
"715 518 CURVE SMOOTH",
"715 1464 LINE",
"940 1464 LINE",
"940 501 LINE SMOOTH",
"940 361 OFFCURVE",
"919 245 OFFCURVE",
"878 152 CURVE SMOOTH",
"865 124 OFFCURVE",
"849 98 OFFCURVE",
"832 73 CURVE SMOOTH",
"753 -37 OFFCURVE",
"646 -92 OFFCURVE",
"510 -92 CURVE SMOOTH",
"400 -92 OFFCURVE",
"307 -52 OFFCURVE",
"230 27 CURVE SMOOTH",
"133 128 OFFCURVE",
"84 286 OFFCURVE",
"84 501 CURVE SMOOTH"
);
},
{
closed = 1;
nodes = (
"883 1641 LINE",
"838 1595 OFFCURVE",
"779 1572 OFFCURVE",
"704 1572 CURVE SMOOTH",
"661 1572 OFFCURVE",
"597 1588 OFFCURVE",
"514 1621 CURVE SMOOTH",
"452 1646 OFFCURVE",
"397 1658 OFFCURVE",
"349 1658 CURVE SMOOTH",
"284 1658 OFFCURVE",
"225 1638 OFFCURVE",
"170 1598 CURVE",
"170 1732 LINE",
"215 1778 OFFCURVE",
"275 1801 OFFCURVE",
"349 1801 CURVE SMOOTH",
"392 1801 OFFCURVE",
"455 1785 OFFCURVE",
"539 1752 CURVE SMOOTH",
"602 1727 OFFCURVE",
"656 1715 OFFCURVE",
"703 1715 CURVE SMOOTH",
"768 1715 OFFCURVE",
"828 1735 OFFCURVE",
"883 1775 CURVE"
);
}
);
vertWidth = 2048;
width = 1024;
}
);
unicode = 0168;
},
{
color = 6;
glyphname = Wcircumflex;
lastChange = "2022-04-07 18:21:36 +0000";
layers = (
{
background = {
paths = (
{
closed = 1;
nodes = (
"158 1493 LINE",
"881 1493 LINE",
"881 1294 LINE",
"389 1294 LINE",
"389 840 LINE",
"822 840 LINE",
"822 643 LINE",
"389 643 LINE",
"389 154 LINE",
"899 154 LINE",
"899 -51 LINE",
"158 -51 LINE"
);
},
{
closed = 1;
nodes = (
"902 1800 LINE",
"870 1724 OFFCURVE",
"830 1668 OFFCURVE",
"781 1631 CURVE SMOOTH",
"721 1586 OFFCURVE",
"641 1563 OFFCURVE",
"540 1563 CURVE SMOOTH",
"425 1563 OFFCURVE",
"336 1594 OFFCURVE",
"273 1656 CURVE SMOOTH",
"237 1691 OFFCURVE",
"206 1739 OFFCURVE",
"181 1800 CURVE",
"320 1800 LINE",
"341 1759 OFFCURVE",
"367 1729 OFFCURVE",
"399 1711 CURVE SMOOTH",
"434 1690 OFFCURVE",
"482 1680 OFFCURVE",
"543 1680 CURVE SMOOTH",
"609 1680 OFFCURVE",
"660 1693 OFFCURVE",
"697 1719 CURVE SMOOTH",
"722 1737 OFFCURVE",
"744 1764 OFFCURVE",
"763 1800 CURVE"
);
}
);
};
layerId = "4E782664-D0D5-4FED-AFC2-B9212141A2ED";
paths = (
{
closed = 1;
nodes = (
"2 1488 LINE",
"201 1488 LINE",
"262 684 LINE SMOOTH",
"274 521 OFFCURVE",
"278 388 OFFCURVE",
"283 285 CURVE",
"291 285 LINE",
"294 335 LINE SMOOTH",
"305 511 OFFCURVE",
"314 634 OFFCURVE",
"324 705 CURVE SMOOTH",
"412 1355 LINE",
"612 1355 LINE",
"700 705 LINE SMOOTH",
"710 634 OFFCURVE",
"720 505 OFFCURVE",
"731 318 CURVE SMOOTH",
"733 285 LINE",
"741 285 LINE",
"746 422 OFFCURVE",
"753 564 OFFCURVE",
"764 713 CURVE SMOOTH",
"823 1488 LINE",
"1022 1488 LINE",
"856 -74 LINE",
"645 -74 LINE",
"539 630 LINE SMOOTH",
"522 744 OFFCURVE",
"516 865 OFFCURVE",
"516 992 CURVE",
"508 992 LINE",
"506 853 OFFCURVE",
"500 732 OFFCURVE",
"485 630 CURVE SMOOTH",
"379 -74 LINE",
"168 -74 LINE"
);
},
{
closed = 1;
nodes = (
"370 1800 LINE",
"653 1800 LINE",
"913 1565 LINE",
"710 1565 LINE",
"512 1702 LINE",
"313 1565 LINE",
"110 1565 LINE"
);
}
);
vertWidth = 2048;
width = 1024;
}
);
unicode = 0174;
},
{
color = 6;
glyphname = Ycircumflex;
lastChange = "2022-04-07 18:21:36 +0000";
layers = (
{
layerId = "4E782664-D0D5-4FED-AFC2-B9212141A2ED";
paths = (
{
closed = 1;
nodes = (
"35 1485 LINE",
"289 1485 LINE",
"512 819 LINE",
"734 1485 LINE",
"988 1485 LINE",
"628 615 LINE",
"628 -51 LINE",
"395 -51 LINE",
"395 615 LINE"
);
},
{
closed = 1;
nodes = (
"370 1800 LINE",
"653 1800 LINE",
"913 1565 LINE",
"710 1565 LINE",
"512 1702 LINE",
"313 1565 LINE",
"110 1565 LINE"
);
}
);
vertWidth = 2048;
width = 1024;
}
);
unicode = 0176;
},
{
color = 6;
glyphname = Ydieresis;
lastChange = "2022-04-07 18:21:36 +0000";
layers = (
{
layerId = "4E782664-D0D5-4FED-AFC2-B9212141A2ED";
paths = (
{
closed = 1;
nodes = (
"35 1485 LINE",
"289 1485 LINE",
"512 819 LINE",
"734 1485 LINE",
"988 1485 LINE",
"628 615 LINE",
"628 -51 LINE",
"395 -51 LINE",
"395 615 LINE"
);
},
{
closed = 1;
nodes = (
"155 1800 LINE",
"421 1800 LINE",
"421 1595 LINE",
"155 1595 LINE"
);
},
{
closed = 1;
nodes = (
"602 1800 LINE",
"868 1800 LINE",
"868 1595 LINE",
"602 1595 LINE"
);
}
);
vertWidth = 2048;
width = 1024;
}
);
unicode = "0178,00FF";
},
{
color = 6;
glyphname = cdotaccent;
lastChange = "2022-04-07 18:21:36 +0000";
layers = (
{
background = {
paths = (
{
closed = 1;
nodes = (
"910 119 LINE",
"826 -18 OFFCURVE",
"710 -86 OFFCURVE",
"562 -86 CURVE SMOOTH",
"428 -86 OFFCURVE",
"320 -31 OFFCURVE",
"239 79 CURVE SMOOTH",
"156 192 OFFCURVE",
"115 346 OFFCURVE",
"115 542 CURVE SMOOTH",
"115 693 OFFCURVE",
"141 822 OFFCURVE",
"192 929 CURVE SMOOTH",
"225 998 OFFCURVE",
"267 1053 OFFCURVE",
"318 1096 CURVE SMOOTH",
"391 1157 OFFCURVE",
"473 1188 OFFCURVE",
"565 1188 CURVE SMOOTH",
"692 1188 OFFCURVE",
"795 1133 OFFCURVE",
"873 1022 CURVE",
"789 897 LINE",
"756 946 OFFCURVE",
"725 981 OFFCURVE",
"697 1000 CURVE SMOOTH",
"662 1024 OFFCURVE",
"619 1036 OFFCURVE",
"569 1036 CURVE SMOOTH",
"493 1036 OFFCURVE",
"430 998 OFFCURVE",
"379 921 CURVE SMOOTH",
"318 829 OFFCURVE",
"287 702 OFFCURVE",
"287 541 CURVE SMOOTH",
"287 417 OFFCURVE",
"307 314 OFFCURVE",
"346 231 CURVE SMOOTH",
"398 122 OFFCURVE",
"471 68 OFFCURVE",
"565 68 CURVE SMOOTH",
"605 68 OFFCURVE",
"646 81 OFFCURVE",
"687 107 CURVE SMOOTH",
"734 137 OFFCURVE",
"774 179 OFFCURVE",
"807 233 CURVE"
);
},
{
closed = 1;
nodes = (
"437 1569 LINE",
"666 1569 LINE",
"666 1340 LINE",
"437 1340 LINE"
);
}
);
};
layerId = "4E782664-D0D5-4FED-AFC2-B9212141A2ED";
paths = (
{
closed = 1;
nodes = (
"915 135 LINE",
"832 -16 OFFCURVE",
"715 -92 OFFCURVE",
"564 -92 CURVE SMOOTH",
"428 -92 OFFCURVE",
"317 -34 OFFCURVE",
"230 83 CURVE SMOOTH",
"143 201 OFFCURVE",
"100 355 OFFCURVE",
"100 546 CURVE SMOOTH",
"100 725 OFFCURVE",
"139 874 OFFCURVE",
"216 993 CURVE SMOOTH",
"304 1128 OFFCURVE",
"420 1196 OFFCURVE",
"564 1196 CURVE SMOOTH",
"693 1196 OFFCURVE",
"800 1137 OFFCURVE",
"886 1020 CURVE",
"774 846 LINE",
"745 887 OFFCURVE",
"721 917 OFFCURVE",
"701 936 CURVE SMOOTH",
"664 973 OFFCURVE",
"619 991 OFFCURVE",
"567 991 CURVE SMOOTH",
"515 991 OFFCURVE",
"470 963 OFFCURVE",
"431 908 CURVE SMOOTH",
"370 823 OFFCURVE",
"340 702 OFFCURVE",
"340 547 CURVE SMOOTH",
"340 409 OFFCURVE",
"365 299 OFFCURVE",
"416 217 CURVE SMOOTH",
"458 150 OFFCURVE",
"506 117 OFFCURVE",
"560 117 CURVE SMOOTH",
"597 117 OFFCURVE",
"638 136 OFFCURVE",
"681 174 CURVE SMOOTH",
"716 204 OFFCURVE",
"747 244 OFFCURVE",
"776 293 CURVE"
);
},
{
closed = 1;
nodes = (
"415 1599 LINE",
"689 1599 LINE",
"689 1333 LINE",
"415 1333 LINE"
);
}
);
vertWidth = 2048;
width = 1024;
}
);
unicode = 010B;
},
{
color = 6;
glyphname = ebreve;
lastChange = "2022-04-07 18:21:36 +0000";
layers = (
{
layerId = "4E782664-D0D5-4FED-AFC2-B9212141A2ED";
paths = (
{
closed = 1;
nodes = (
"885 506 LINE",
"344 506 LINE",
"346 382 OFFCURVE",
"367 285 OFFCURVE",
"407 215 CURVE SMOOTH",
"444 151 OFFCURVE",
"488 119 OFFCURVE",
"540 119 CURVE SMOOTH",
"583 119 OFFCURVE",
"625 139 OFFCURVE",
"666 179 CURVE SMOOTH",
"700 212 OFFCURVE",
"729 256 OFFCURVE",
"752 309 CURVE",
"893 156 LINE",
"802 -9 OFFCURVE",
"680 -92 OFFCURVE",
"527 -92 CURVE SMOOTH",
"398 -92 OFFCURVE",
"295 -29 OFFCURVE",
"218 96 CURVE SMOOTH",
"147 212 OFFCURVE",
"111 362 OFFCURVE",
"111 545 CURVE SMOOTH",
"111 727 OFFCURVE",
"142 876 OFFCURVE",
"203 992 CURVE SMOOTH",
"275 1129 OFFCURVE",
"378 1198 OFFCURVE",
"512 1198 CURVE SMOOTH",
"651 1198 OFFCURVE",
"751 1129 OFFCURVE",
"814 992 CURVE SMOOTH",
"861 888 OFFCURVE",
"885 748 OFFCURVE",
"885 571 CURVE SMOOTH"
);
},
{
closed = 1;
nodes = (
"650 692 LINE",
"646 792 OFFCURVE",
"630 869 OFFCURVE",
"603 924 CURVE SMOOTH",
"577 977 OFFCURVE",
"544 1003 OFFCURVE",
"505 1003 CURVE SMOOTH",
"469 1003 OFFCURVE",
"437 977 OFFCURVE",
"410 925 CURVE SMOOTH",
"380 868 OFFCURVE",
"362 791 OFFCURVE",
"357 692 CURVE"
);
},
{
closed = 1;
nodes = (
"881 1616 LINE",
"852 1534 OFFCURVE",
"816 1472 OFFCURVE",
"774 1430 CURVE SMOOTH",
"711 1365 OFFCURVE",
"624 1333 OFFCURVE",
"512 1333 CURVE SMOOTH",
"399 1333 OFFCURVE",
"310 1367 OFFCURVE",
"246 1434 CURVE SMOOTH",
"207 1475 OFFCURVE",
"173 1536 OFFCURVE",
"144 1616 CURVE",
"285 1616 LINE",
"310 1563 OFFCURVE",
"339 1526 OFFCURVE",
"370 1505 CURVE SMOOTH",
"406 1482 OFFCURVE",
"453 1470 OFFCURVE",
"512 1470 CURVE SMOOTH",
"591 1470 OFFCURVE",
"651 1492 OFFCURVE",
"692 1536 CURVE SMOOTH",
"709 1555 OFFCURVE",
"725 1581 OFFCURVE",
"740 1616 CURVE"
);
}
);
vertWidth = 2048;
width = 1024;
}
);
unicode = 0115;
},
{
color = 6;
glyphname = edotaccent;
lastChange = "2022-04-07 18:21:36 +0000";
layers = (
{
background = {
paths = (
{
closed = 1;
nodes = (
"873 535 LINE",
"295 535 LINE",
"297 395 OFFCURVE",
"315 286 OFFCURVE",
"350 209 CURVE SMOOTH",
"392 115 OFFCURVE",
"454 68 OFFCURVE",
"537 68 CURVE SMOOTH",
"588 68 OFFCURVE",
"635 87 OFFCURVE",
"678 126 CURVE SMOOTH",
"717 160 OFFCURVE",
"747 206 OFFCURVE",
"770 265 CURVE",
"877 154 LINE",
"800 -6 OFFCURVE",
"683 -86 OFFCURVE",
"528 -86 CURVE SMOOTH",
"398 -86 OFFCURVE",
"296 -22 OFFCURVE",
"223 105 CURVE SMOOTH",
"158 218 OFFCURVE",
"125 365 OFFCURVE",
"125 544 CURVE SMOOTH",
"125 723 OFFCURVE",
"153 869 OFFCURVE",
"210 982 CURVE SMOOTH",
"279 1121 OFFCURVE",
"380 1190 OFFCURVE",
"511 1190 CURVE SMOOTH",
"640 1190 OFFCURVE",
"735 1125 OFFCURVE",
"798 994 CURVE SMOOTH",
"848 890 OFFCURVE",
"873 754 OFFCURVE",
"873 586 CURVE SMOOTH"
);
},
{
closed = 1;
nodes = (
"700 674 LINE",
"697 775 OFFCURVE",
"684 855 OFFCURVE",
"660 914 CURVE SMOOTH",
"625 1001 OFFCURVE",
"574 1045 OFFCURVE",
"505 1045 CURVE SMOOTH",
"450 1045 OFFCURVE",
"402 1009 OFFCURVE",
"363 938 CURVE SMOOTH",
"327 873 OFFCURVE",
"306 785 OFFCURVE",
"301 674 CURVE"
);
},
{
closed = 1;
nodes = (
"397 1569 LINE",
"626 1569 LINE",
"626 1340 LINE",
"397 1340 LINE"
);
}
);
};
layerId = "4E782664-D0D5-4FED-AFC2-B9212141A2ED";
paths = (
{
closed = 1;
nodes = (
"885 506 LINE",
"344 506 LINE",
"346 382 OFFCURVE",
"367 285 OFFCURVE",
"407 215 CURVE SMOOTH",
"444 151 OFFCURVE",
"488 119 OFFCURVE",
"540 119 CURVE SMOOTH",
"583 119 OFFCURVE",
"625 139 OFFCURVE",
"666 179 CURVE SMOOTH",
"700 212 OFFCURVE",
"729 256 OFFCURVE",
"752 309 CURVE",
"893 156 LINE",
"802 -9 OFFCURVE",
"680 -92 OFFCURVE",
"527 -92 CURVE SMOOTH",
"398 -92 OFFCURVE",
"295 -29 OFFCURVE",
"218 96 CURVE SMOOTH",
"147 212 OFFCURVE",
"111 362 OFFCURVE",
"111 545 CURVE SMOOTH",
"111 727 OFFCURVE",
"142 876 OFFCURVE",
"203 992 CURVE SMOOTH",
"275 1129 OFFCURVE",
"378 1198 OFFCURVE",
"512 1198 CURVE SMOOTH",
"651 1198 OFFCURVE",
"751 1129 OFFCURVE",
"814 992 CURVE SMOOTH",
"861 888 OFFCURVE",
"885 748 OFFCURVE",
"885 571 CURVE SMOOTH"
);
},
{
closed = 1;
nodes = (
"650 692 LINE",
"646 792 OFFCURVE",
"630 869 OFFCURVE",
"603 924 CURVE SMOOTH",
"577 977 OFFCURVE",
"544 1003 OFFCURVE",
"505 1003 CURVE SMOOTH",
"469 1003 OFFCURVE",
"437 977 OFFCURVE",
"410 925 CURVE SMOOTH",
"380 868 OFFCURVE",
"362 791 OFFCURVE",
"357 692 CURVE"
);
},
{
closed = 1;
nodes = (
"375 1599 LINE",
"649 1599 LINE",
"649 1333 LINE",
"375 1333 LINE"
);
}
);
vertWidth = 2048;
width = 1024;
}
);
unicode = 0117;
},
{
color = 6;
glyphname = gbreve;
lastChange = "2022-04-07 18:21:36 +0000";
layers = (
{
background = {
paths = (
{
closed = 1;
nodes = (
"901 1157 LINE",
"901 250 LINE SMOOTH",
"901 140 OFFCURVE",
"890 54 OFFCURVE",
"867 -8 CURVE SMOOTH",
"847 -63 OFFCURVE",
"818 -107 OFFCURVE",
"781 -140 CURVE SMOOTH",
"703 -209 OFFCURVE",
"606 -244 OFFCURVE",
"491 -244 CURVE SMOOTH",
"342 -244 OFFCURVE",
"217 -195 OFFCURVE",
"116 -98 CURVE",
"196 27 LINE",
"276 -54 OFFCURVE",
"374 -94 OFFCURVE",
"490 -94 CURVE SMOOTH",
"585 -94 OFFCURVE",
"653 -54 OFFCURVE",
"696 25 CURVE SMOOTH",
"723 77 OFFCURVE",
"737 143 OFFCURVE",
"737 223 CURVE SMOOTH",
"737 371 LINE",
"718 329 OFFCURVE",
"691 295 OFFCURVE",
"655 268 CURVE SMOOTH",
"604 230 OFFCURVE",
"549 211 OFFCURVE",
"491 211 CURVE SMOOTH",
"374 211 OFFCURVE",
"279 262 OFFCURVE",
"207 363 CURVE SMOOTH",
"145 450 OFFCURVE",
"114 559 OFFCURVE",
"114 692 CURVE SMOOTH",
"114 804 OFFCURVE",
"137 902 OFFCURVE",
"183 986 CURVE SMOOTH",
"216 1049 OFFCURVE",
"261 1098 OFFCURVE",
"316 1133 CURVE SMOOTH",
"371 1168 OFFCURVE",
"431 1186 OFFCURVE",
"496 1186 CURVE SMOOTH",
"602 1186 OFFCURVE",
"686 1137 OFFCURVE",
"749 1040 CURVE",
"774 1157 LINE"
);
},
{
closed = 1;
nodes = (
"737 823 LINE",
"694 965 OFFCURVE",
"618 1036 OFFCURVE",
"509 1036 CURVE SMOOTH",
"440 1036 OFFCURVE",
"383 1002 OFFCURVE",
"340 934 CURVE SMOOTH",
"300 871 OFFCURVE",
"280 790 OFFCURVE",
"280 691 CURVE SMOOTH",
"280 606 OFFCURVE",
"294 535 OFFCURVE",
"323 479 CURVE SMOOTH",
"365 398 OFFCURVE",
"426 358 OFFCURVE",
"506 358 CURVE SMOOTH",
"556 358 OFFCURVE",
"603 378 OFFCURVE",
"647 418 CURVE SMOOTH",
"689 457 OFFCURVE",
"719 510 OFFCURVE",
"737 578 CURVE"
);
},
{
closed = 1;
nodes = (
"844 1608 LINE",
"801 1427 OFFCURVE",
"690 1336 OFFCURVE",
"511 1336 CURVE SMOOTH",
"332 1336 OFFCURVE",
"221 1427 OFFCURVE",
"180 1608 CURVE",
"309 1608 LINE",
"334 1510 OFFCURVE",
"402 1461 OFFCURVE",
"512 1461 CURVE SMOOTH",
"621 1461 OFFCURVE",
"689 1510 OFFCURVE",
"715 1608 CURVE"
);
}
);
};
layerId = "4E782664-D0D5-4FED-AFC2-B9212141A2ED";
paths = (
{
closed = 1;
nodes = (
"919 1157 LINE",
"919 258 LINE SMOOTH",
"919 99 OFFCURVE",
"893 -17 OFFCURVE",
"842 -90 CURVE SMOOTH",
"817 -126 OFFCURVE",
"781 -157 OFFCURVE",
"734 -182 CURVE SMOOTH",
"660 -223 OFFCURVE",
"585 -244 OFFCURVE",
"510 -244 CURVE SMOOTH",
"341 -244 OFFCURVE",
"207 -193 OFFCURVE",
"106 -90 CURVE",
"205 90 LINE",
"292 3 OFFCURVE",
"389 -41 OFFCURVE",
"495 -41 CURVE SMOOTH",
"558 -41 OFFCURVE",
"607 -12 OFFCURVE",
"644 46 CURVE SMOOTH",
"673 94 OFFCURVE",
"688 154 OFFCURVE",
"688 227 CURVE SMOOTH",
"688 315 LINE",
"675 283 OFFCURVE",
"658 258 OFFCURVE",
"637 241 CURVE SMOOTH",
"592 204 OFFCURVE",
"539 186 OFFCURVE",
"479 186 CURVE SMOOTH",
"397 186 OFFCURVE",
"323 218 OFFCURVE",
"256 281 CURVE SMOOTH",
"152 379 OFFCURVE",
"100 514 OFFCURVE",
"100 685 CURVE SMOOTH",
"100 824 OFFCURVE",
"137 943 OFFCURVE",
"211 1041 CURVE SMOOTH",
"286 1140 OFFCURVE",
"378 1190 OFFCURVE",
"486 1190 CURVE SMOOTH",
"541 1190 OFFCURVE",
"592 1174 OFFCURVE",
"639 1142 CURVE SMOOTH",
"670 1121 OFFCURVE",
"696 1093 OFFCURVE",
"717 1059 CURVE",
"735 1157 LINE"
);
},
{
closed = 1;
nodes = (
"688 809 LINE",
"677 854 OFFCURVE",
"661 890 OFFCURVE",
"640 918 CURVE SMOOTH",
"605 963 OFFCURVE",
"564 985 OFFCURVE",
"515 985 CURVE SMOOTH",
"473 985 OFFCURVE",
"435 962 OFFCURVE",
"402 917 CURVE SMOOTH",
"358 857 OFFCURVE",
"336 779 OFFCURVE",
"336 683 CURVE SMOOTH",
"336 590 OFFCURVE",
"356 515 OFFCURVE",
"396 459 CURVE SMOOTH",
"429 412 OFFCURVE",
"468 389 OFFCURVE",
"513 389 CURVE SMOOTH",
"560 389 OFFCURVE",
"602 411 OFFCURVE",
"638 456 CURVE SMOOTH",
"663 487 OFFCURVE",
"679 525 OFFCURVE",
"688 571 CURVE"
);
},
{
closed = 1;
nodes = (
"881 1616 LINE",
"852 1534 OFFCURVE",
"816 1472 OFFCURVE",
"774 1430 CURVE SMOOTH",
"711 1365 OFFCURVE",
"624 1333 OFFCURVE",
"512 1333 CURVE SMOOTH",
"399 1333 OFFCURVE",
"310 1367 OFFCURVE",
"246 1434 CURVE SMOOTH",
"207 1475 OFFCURVE",
"173 1536 OFFCURVE",
"144 1616 CURVE",
"285 1616 LINE",
"310 1563 OFFCURVE",
"339 1526 OFFCURVE",
"370 1505 CURVE SMOOTH",
"406 1482 OFFCURVE",
"453 1470 OFFCURVE",
"512 1470 CURVE SMOOTH",
"591 1470 OFFCURVE",
"651 1492 OFFCURVE",
"692 1536 CURVE SMOOTH",
"709 1555 OFFCURVE",
"725 1581 OFFCURVE",
"740 1616 CURVE"
);
}
);
vertWidth = 2048;
width = 1024;
}
);
unicode = 011F;
},
{
color = 6;
glyphname = gcommaaccent;
lastChange = "2022-04-07 18:21:36 +0000";
layers = (
{
background = {
paths = (
{
closed = 1;
nodes = (
"901 1157 LINE",
"901 250 LINE SMOOTH",
"901 140 OFFCURVE",
"890 54 OFFCURVE",
"867 -8 CURVE SMOOTH",
"847 -63 OFFCURVE",
"818 -107 OFFCURVE",
"781 -140 CURVE SMOOTH",
"703 -209 OFFCURVE",
"606 -244 OFFCURVE",
"491 -244 CURVE SMOOTH",
"342 -244 OFFCURVE",
"217 -195 OFFCURVE",
"116 -98 CURVE",
"196 27 LINE",
"276 -54 OFFCURVE",
"374 -94 OFFCURVE",
"490 -94 CURVE SMOOTH",
"585 -94 OFFCURVE",
"653 -54 OFFCURVE",
"696 25 CURVE SMOOTH",
"723 77 OFFCURVE",
"737 143 OFFCURVE",
"737 223 CURVE SMOOTH",
"737 371 LINE",
"718 329 OFFCURVE",
"691 295 OFFCURVE",
"655 268 CURVE SMOOTH",
"604 230 OFFCURVE",
"549 211 OFFCURVE",
"491 211 CURVE SMOOTH",
"374 211 OFFCURVE",
"279 262 OFFCURVE",
"207 363 CURVE SMOOTH",
"145 450 OFFCURVE",
"114 559 OFFCURVE",
"114 692 CURVE SMOOTH",
"114 804 OFFCURVE",
"137 902 OFFCURVE",
"183 986 CURVE SMOOTH",
"216 1049 OFFCURVE",
"261 1098 OFFCURVE",
"316 1133 CURVE SMOOTH",
"371 1168 OFFCURVE",
"431 1186 OFFCURVE",
"496 1186 CURVE SMOOTH",
"602 1186 OFFCURVE",
"686 1137 OFFCURVE",
"749 1040 CURVE",
"774 1157 LINE"
);
},
{
closed = 1;
nodes = (
"737 823 LINE",
"694 965 OFFCURVE",
"618 1036 OFFCURVE",
"509 1036 CURVE SMOOTH",
"440 1036 OFFCURVE",
"383 1002 OFFCURVE",
"340 934 CURVE SMOOTH",
"300 871 OFFCURVE",
"280 790 OFFCURVE",
"280 691 CURVE SMOOTH",
"280 606 OFFCURVE",
"294 535 OFFCURVE",
"323 479 CURVE SMOOTH",
"365 398 OFFCURVE",
"426 358 OFFCURVE",
"506 358 CURVE SMOOTH",
"556 358 OFFCURVE",
"603 378 OFFCURVE",
"647 418 CURVE SMOOTH",
"689 457 OFFCURVE",
"719 510 OFFCURVE",
"737 578 CURVE"
);
},
{
closed = 1;
nodes = (
"640 1340 LINE",
"374 1340 LINE",
"374 1420 LINE SMOOTH",
"374 1524 OFFCURVE",
"398 1610 OFFCURVE",
"448 1676 CURVE",
"585 1676 LINE",
"553 1626 OFFCURVE",
"535 1570 OFFCURVE",
"529 1510 CURVE",
"640 1510 LINE"
);
}
);
};
layerId = "4E782664-D0D5-4FED-AFC2-B9212141A2ED";
paths = (
{
closed = 1;
nodes = (
"919 1157 LINE",
"919 258 LINE SMOOTH",
"919 99 OFFCURVE",
"893 -17 OFFCURVE",
"842 -90 CURVE SMOOTH",
"817 -126 OFFCURVE",
"781 -157 OFFCURVE",
"734 -182 CURVE SMOOTH",
"660 -223 OFFCURVE",
"585 -244 OFFCURVE",
"510 -244 CURVE SMOOTH",
"341 -244 OFFCURVE",
"207 -193 OFFCURVE",
"106 -90 CURVE",
"205 90 LINE",
"292 3 OFFCURVE",
"389 -41 OFFCURVE",
"495 -41 CURVE SMOOTH",
"558 -41 OFFCURVE",
"607 -12 OFFCURVE",
"644 46 CURVE SMOOTH",
"673 94 OFFCURVE",
"688 154 OFFCURVE",
"688 227 CURVE SMOOTH",
"688 315 LINE",
"675 283 OFFCURVE",
"658 258 OFFCURVE",
"637 241 CURVE SMOOTH",
"592 204 OFFCURVE",
"539 186 OFFCURVE",
"479 186 CURVE SMOOTH",
"397 186 OFFCURVE",
"323 218 OFFCURVE",
"256 281 CURVE SMOOTH",
"152 379 OFFCURVE",
"100 514 OFFCURVE",
"100 685 CURVE SMOOTH",
"100 824 OFFCURVE",
"137 943 OFFCURVE",
"211 1041 CURVE SMOOTH",
"286 1140 OFFCURVE",
"378 1190 OFFCURVE",
"486 1190 CURVE SMOOTH",
"541 1190 OFFCURVE",
"592 1174 OFFCURVE",
"639 1142 CURVE SMOOTH",
"670 1121 OFFCURVE",
"696 1093 OFFCURVE",
"717 1059 CURVE",
"735 1157 LINE"
);
},
{
closed = 1;
nodes = (
"688 809 LINE",
"677 854 OFFCURVE",
"661 890 OFFCURVE",
"640 918 CURVE SMOOTH",
"605 963 OFFCURVE",
"564 985 OFFCURVE",
"515 985 CURVE SMOOTH",
"473 985 OFFCURVE",
"435 962 OFFCURVE",
"402 917 CURVE SMOOTH",
"358 857 OFFCURVE",
"336 779 OFFCURVE",
"336 683 CURVE SMOOTH",
"336 590 OFFCURVE",
"356 515 OFFCURVE",
"396 459 CURVE SMOOTH",
"429 412 OFFCURVE",
"468 389 OFFCURVE",
"513 389 CURVE SMOOTH",
"560 389 OFFCURVE",
"602 411 OFFCURVE",
"638 456 CURVE SMOOTH",
"663 487 OFFCURVE",
"679 525 OFFCURVE",
"688 571 CURVE"
);
},
{
closed = 1;
nodes = (
"663 1338 LINE",
"347 1338 LINE",
"347 1388 LINE SMOOTH",
"347 1513 OFFCURVE",
"379 1615 OFFCURVE",
"431 1694 CURVE",
"608 1694 LINE",
"574 1634 OFFCURVE",
"553 1589 OFFCURVE",
"542 1528 CURVE",
"663 1528 LINE"
);
}
);
vertWidth = 2048;
width = 1024;
}
);
unicode = 0123;
},
{
color = 6;
glyphname = gdotaccent;
lastChange = "2022-04-07 18:21:36 +0000";
layers = (
{
background = {
paths = (
{
closed = 1;
nodes = (
"901 1157 LINE",
"901 250 LINE SMOOTH",
"901 140 OFFCURVE",
"890 54 OFFCURVE",
"867 -8 CURVE SMOOTH",
"847 -63 OFFCURVE",
"818 -107 OFFCURVE",
"781 -140 CURVE SMOOTH",
"703 -209 OFFCURVE",
"606 -244 OFFCURVE",
"491 -244 CURVE SMOOTH",
"342 -244 OFFCURVE",
"217 -195 OFFCURVE",
"116 -98 CURVE",
"196 27 LINE",
"276 -54 OFFCURVE",
"374 -94 OFFCURVE",
"490 -94 CURVE SMOOTH",
"585 -94 OFFCURVE",
"653 -54 OFFCURVE",
"696 25 CURVE SMOOTH",
"723 77 OFFCURVE",
"737 143 OFFCURVE",
"737 223 CURVE SMOOTH",
"737 371 LINE",
"718 329 OFFCURVE",
"691 295 OFFCURVE",
"655 268 CURVE SMOOTH",
"604 230 OFFCURVE",
"549 211 OFFCURVE",
"491 211 CURVE SMOOTH",
"374 211 OFFCURVE",
"279 262 OFFCURVE",
"207 363 CURVE SMOOTH",
"145 450 OFFCURVE",
"114 559 OFFCURVE",
"114 692 CURVE SMOOTH",
"114 804 OFFCURVE",
"137 902 OFFCURVE",
"183 986 CURVE SMOOTH",
"216 1049 OFFCURVE",
"261 1098 OFFCURVE",
"316 1133 CURVE SMOOTH",
"371 1168 OFFCURVE",
"431 1186 OFFCURVE",
"496 1186 CURVE SMOOTH",
"602 1186 OFFCURVE",
"686 1137 OFFCURVE",
"749 1040 CURVE",
"774 1157 LINE"
);
},
{
closed = 1;
nodes = (
"737 823 LINE",
"694 965 OFFCURVE",
"618 1036 OFFCURVE",
"509 1036 CURVE SMOOTH",
"440 1036 OFFCURVE",
"383 1002 OFFCURVE",
"340 934 CURVE SMOOTH",
"300 871 OFFCURVE",
"280 790 OFFCURVE",
"280 691 CURVE SMOOTH",
"280 606 OFFCURVE",
"294 535 OFFCURVE",
"323 479 CURVE SMOOTH",
"365 398 OFFCURVE",
"426 358 OFFCURVE",
"506 358 CURVE SMOOTH",
"556 358 OFFCURVE",
"603 378 OFFCURVE",
"647 418 CURVE SMOOTH",
"689 457 OFFCURVE",
"719 510 OFFCURVE",
"737 578 CURVE"
);
},
{
closed = 1;
nodes = (
"397 1569 LINE",
"626 1569 LINE",
"626 1340 LINE",
"397 1340 LINE"
);
}
);
};
layerId = "4E782664-D0D5-4FED-AFC2-B9212141A2ED";
paths = (
{
closed = 1;
nodes = (
"919 1157 LINE",
"919 258 LINE SMOOTH",
"919 99 OFFCURVE",
"893 -17 OFFCURVE",
"842 -90 CURVE SMOOTH",
"817 -126 OFFCURVE",
"781 -157 OFFCURVE",
"734 -182 CURVE SMOOTH",
"660 -223 OFFCURVE",
"585 -244 OFFCURVE",
"510 -244 CURVE SMOOTH",
"341 -244 OFFCURVE",
"207 -193 OFFCURVE",
"106 -90 CURVE",
"205 90 LINE",
"292 3 OFFCURVE",
"389 -41 OFFCURVE",
"495 -41 CURVE SMOOTH",
"558 -41 OFFCURVE",
"607 -12 OFFCURVE",
"644 46 CURVE SMOOTH",
"673 94 OFFCURVE",
"688 154 OFFCURVE",
"688 227 CURVE SMOOTH",
"688 315 LINE",
"675 283 OFFCURVE",
"658 258 OFFCURVE",
"637 241 CURVE SMOOTH",
"592 204 OFFCURVE",
"539 186 OFFCURVE",
"479 186 CURVE SMOOTH",
"397 186 OFFCURVE",
"323 218 OFFCURVE",
"256 281 CURVE SMOOTH",
"152 379 OFFCURVE",
"100 514 OFFCURVE",
"100 685 CURVE SMOOTH",
"100 824 OFFCURVE",
"137 943 OFFCURVE",
"211 1041 CURVE SMOOTH",
"286 1140 OFFCURVE",
"378 1190 OFFCURVE",
"486 1190 CURVE SMOOTH",
"541 1190 OFFCURVE",
"592 1174 OFFCURVE",
"639 1142 CURVE SMOOTH",
"670 1121 OFFCURVE",
"696 1093 OFFCURVE",
"717 1059 CURVE",
"735 1157 LINE"
);
},
{
closed = 1;
nodes = (
"688 809 LINE",
"677 854 OFFCURVE",
"661 890 OFFCURVE",
"640 918 CURVE SMOOTH",
"605 963 OFFCURVE",
"564 985 OFFCURVE",
"515 985 CURVE SMOOTH",
"473 985 OFFCURVE",
"435 962 OFFCURVE",
"402 917 CURVE SMOOTH",
"358 857 OFFCURVE",
"336 779 OFFCURVE",
"336 683 CURVE SMOOTH",
"336 590 OFFCURVE",
"356 515 OFFCURVE",
"396 459 CURVE SMOOTH",
"429 412 OFFCURVE",
"468 389 OFFCURVE",
"513 389 CURVE SMOOTH",
"560 389 OFFCURVE",
"602 411 OFFCURVE",
"638 456 CURVE SMOOTH",
"663 487 OFFCURVE",
"679 525 OFFCURVE",
"688 571 CURVE"
);
},
{
closed = 1;
nodes = (
"375 1599 LINE",
"649 1599 LINE",
"649 1333 LINE",
"375 1333 LINE"
);
}
);
vertWidth = 2048;
width = 1024;
}
);
unicode = 0121;
},
{
color = 6;
glyphname = idotless;
lastChange = "2022-03-29 16:33:19 +0000";
layers = (
{
layerId = "4E782664-D0D5-4FED-AFC2-B9212141A2ED";
paths = (
{
closed = 1;
nodes = (
"393 1157 LINE",
"631 1157 LINE",
"631 -51 LINE",
"393 -51 LINE"
);
}
);
vertWidth = 2048;
width = 1024;
}
);
unicode = 0131;
},
{
color = 6;
glyphname = ibreve;
lastChange = "2022-04-07 18:21:36 +0000";
layers = (
{
layerId = "4E782664-D0D5-4FED-AFC2-B9212141A2ED";
paths = (
{
closed = 1;
nodes = (
"393 1157 LINE",
"631 1157 LINE",
"631 -51 LINE",
"393 -51 LINE"
);
},
{
closed = 1;
nodes = (
"881 1616 LINE",
"852 1534 OFFCURVE",
"816 1472 OFFCURVE",
"774 1430 CURVE SMOOTH",
"711 1365 OFFCURVE",
"624 1333 OFFCURVE",
"512 1333 CURVE SMOOTH",
"399 1333 OFFCURVE",
"310 1367 OFFCURVE",
"246 1434 CURVE SMOOTH",
"207 1475 OFFCURVE",
"173 1536 OFFCURVE",
"144 1616 CURVE",
"285 1616 LINE",
"310 1563 OFFCURVE",
"339 1526 OFFCURVE",
"370 1505 CURVE SMOOTH",
"406 1482 OFFCURVE",
"453 1470 OFFCURVE",
"512 1470 CURVE SMOOTH",
"591 1470 OFFCURVE",
"651 1492 OFFCURVE",
"692 1536 CURVE SMOOTH",
"709 1555 OFFCURVE",
"725 1581 OFFCURVE",
"740 1616 CURVE"
);
}
);
vertWidth = 2048;
width = 1024;
}
);
unicode = 012D;
},
{
color = 6;
glyphname = ij;
lastChange = "2022-04-07 18:21:36 +0000";
layers = (
{
background = {
paths = (
{
closed = 1;
nodes = (
"689 1638 LINE",
"884 1638 LINE",
"884 1421 LINE",
"689 1421 LINE"
);
},
{
closed = 1;
nodes = (
"704 1157 LINE",
"870 1157 LINE",
"870 329 LINE SMOOTH",
"870 -67 OFFCURVE",
"774 -192 OFFCURVE",
"362 -244 CURVE",
"303 -96 LINE",
"622 -74 OFFCURVE",
"704 22 OFFCURVE",
"704 331 CURVE SMOOTH"
);
},
{
closed = 1;
nodes = (
"140 1638 LINE",
"330 1638 LINE",
"330 1421 LINE",
"140 1421 LINE"
);
},
{
closed = 1;
nodes = (
"152 1157 LINE",
"318 1157 LINE",
"318 49 LINE",
"152 49 LINE"
);
}
);
};
layerId = "4E782664-D0D5-4FED-AFC2-B9212141A2ED";
paths = (
{
closed = 1;
nodes = (
"659 1677 LINE",
"913 1677 LINE",
"913 1403 LINE",
"659 1403 LINE"
);
},
{
closed = 1;
nodes = (
"667 1157 LINE",
"905 1157 LINE",
"905 269 LINE SMOOTH",
"905 -96 OFFCURVE",
"768 -217 OFFCURVE",
"342 -244 CURVE",
"268 -33 LINE",
"555 -33 OFFCURVE",
"667 27 OFFCURVE",
"667 277 CURVE SMOOTH"
);
},
{
closed = 1;
nodes = (
"110 1677 LINE",
"364 1677 LINE",
"364 1403 LINE",
"110 1403 LINE"
);
},
{
closed = 1;
nodes = (
"118 1157 LINE",
"356 1157 LINE",
"356 109 LINE",
"118 109 LINE"
);
}
);
vertWidth = 2048;
width = 1024;
}
);
unicode = 0133;
},
{
color = 6;
glyphname = iogonek;
lastChange = "2022-04-07 18:21:36 +0000";
layers = (
{
background = {
paths = (
{
closed = 1;
nodes = (
"414 -244 OFFCURVE",
"362 -235 OFFCURVE",
"323 -217 CURVE SMOOTH",
"276 -196 OFFCURVE",
"252 -163 OFFCURVE",
"252 -119 CURVE SMOOTH",
"252 -62 OFFCURVE",
"299 -5 OFFCURVE",
"393 52 CURVE",
"393 1157 LINE",
"631 1157 LINE",
"631 49 LINE",
"548 49 LINE",
"503 24 OFFCURVE",
"471 3 OFFCURVE",
"451 -14 CURVE SMOOTH",
"423 -39 OFFCURVE",
"409 -65 OFFCURVE",
"409 -94 CURVE SMOOTH",
"409 -113 OFFCURVE",
"419 -129 OFFCURVE",
"438 -141 CURVE SMOOTH",
"457 -154 OFFCURVE",
"481 -160 OFFCURVE",
"510 -160 CURVE SMOOTH",
"583 -160 OFFCURVE",
"659 -144 OFFCURVE",
"738 -111 CURVE",
"738 -193 LINE",
"667 -227 OFFCURVE",
"580 -244 OFFCURVE",
"477 -244 CURVE SMOOTH"
);
},
{
closed = 1;
nodes = (
"385 1677 LINE",
"639 1677 LINE",
"639 1403 LINE",
"385 1403 LINE"
);
}
);
};
layerId = "4E782664-D0D5-4FED-AFC2-B9212141A2ED";
paths = (
{
closed = 1;
nodes = (
"414 -244 OFFCURVE",
"362 -235 OFFCURVE",
"323 -217 CURVE SMOOTH",
"276 -196 OFFCURVE",
"252 -163 OFFCURVE",
"252 -119 CURVE SMOOTH",
"252 -62 OFFCURVE",
"299 -5 OFFCURVE",
"393 52 CURVE",
"393 1157 LINE",
"631 1157 LINE",
"631 49 LINE",
"548 49 LINE",
"503 24 OFFCURVE",
"471 3 OFFCURVE",
"451 -14 CURVE SMOOTH",
"423 -39 OFFCURVE",
"409 -65 OFFCURVE",
"409 -94 CURVE SMOOTH",
"409 -113 OFFCURVE",
"419 -129 OFFCURVE",
"438 -141 CURVE SMOOTH",
"457 -154 OFFCURVE",
"481 -160 OFFCURVE",
"510 -160 CURVE SMOOTH",
"583 -160 OFFCURVE",
"659 -144 OFFCURVE",
"738 -111 CURVE",
"738 -193 LINE",
"667 -227 OFFCURVE",
"580 -244 OFFCURVE",
"477 -244 CURVE SMOOTH"
);
},
{
closed = 1;
nodes = (
"385 1677 LINE",
"639 1677 LINE",
"639 1403 LINE",
"385 1403 LINE"
);
}
);
vertWidth = 2048;
width = 1024;
}
);
unicode = 012F;
},
{
color = 6;
glyphname = itilde;
lastChange = "2022-04-07 18:21:36 +0000";
layers = (
{
layerId = "4E782664-D0D5-4FED-AFC2-B9212141A2ED";
paths = (
{
closed = 1;
nodes = (
"393 1157 LINE",
"631 1157 LINE",
"631 -51 LINE",
"393 -51 LINE"
);
},
{
closed = 1;
nodes = (
"854 1413 LINE",
"815 1368 OFFCURVE",
"761 1346 OFFCURVE",
"690 1346 CURVE SMOOTH",
"645 1346 OFFCURVE",
"584 1363 OFFCURVE",
"506 1397 CURVE SMOOTH",
"435 1428 OFFCURVE",
"379 1444 OFFCURVE",
"339 1444 CURVE SMOOTH",
"281 1444 OFFCURVE",
"225 1423 OFFCURVE",
"170 1381 CURVE",
"170 1512 LINE",
"213 1557 OFFCURVE",
"268 1579 OFFCURVE",
"336 1579 CURVE SMOOTH",
"376 1579 OFFCURVE",
"437 1561 OFFCURVE",
"520 1526 CURVE SMOOTH",
"589 1496 OFFCURVE",
"645 1481 OFFCURVE",
"686 1481 CURVE SMOOTH",
"748 1481 OFFCURVE",
"804 1501 OFFCURVE",
"854 1542 CURVE"
);
}
);
vertWidth = 2048;
width = 1024;
}
);
unicode = 0129;
},
{
color = 6;
glyphname = kcommaaccent;
lastChange = "2022-04-07 18:21:36 +0000";
layers = (
{
background = {
paths = (
{
closed = 1;
nodes = (
"133 1700 LINE",
"362 1700 LINE",
"362 760 LINE",
"669 1157 LINE",
"937 1157 LINE",
"626 762 LINE",
"954 69 LINE",
"684 69 LINE",
"477 574 LINE",
"362 427 LINE",
"362 69 LINE",
"133 69 LINE"
);
},
{
closed = 1;
nodes = (
"445 -223 OFFCURVE",
"460 -198 OFFCURVE",
"465 -170 CURVE",
"344 -170 LINE",
"344 0 LINE",
"660 0 LINE",
"660 -40 LINE SMOOTH",
"660 -124 OFFCURVE",
"639 -193 OFFCURVE",
"596 -246 CURVE",
"419 -246 LINE"
);
}
);
};
layerId = "4E782664-D0D5-4FED-AFC2-B9212141A2ED";
paths = (
{
closed = 1;
nodes = (
"133 1700 LINE",
"362 1700 LINE",
"362 760 LINE",
"669 1157 LINE",
"937 1157 LINE",
"626 762 LINE",
"954 69 LINE",
"684 69 LINE",
"477 574 LINE",
"362 427 LINE",
"362 69 LINE",
"133 69 LINE"
);
},
{
closed = 1;
nodes = (
"445 -223 OFFCURVE",
"460 -198 OFFCURVE",
"465 -170 CURVE",
"344 -170 LINE",
"344 0 LINE",
"660 0 LINE",
"660 -40 LINE SMOOTH",
"660 -124 OFFCURVE",
"639 -193 OFFCURVE",
"596 -246 CURVE",
"419 -246 LINE"
);
}
);
vertWidth = 2048;
width = 1024;
}
);
unicode = 0137;
},
{
color = 6;
glyphname = kgreenlandic;
lastChange = "2022-04-07 18:21:36 +0000";
layers = (
{
layerId = "4E782664-D0D5-4FED-AFC2-B9212141A2ED";
paths = (
{
closed = 1;
nodes = (
"133 1157 LINE",
"362 1157 LINE",
"362 700 LINE",
"669 1157 LINE",
"937 1157 LINE",
"630 694 LINE",
"954 -51 LINE",
"684 -51 LINE",
"473 524 LINE",
"362 367 LINE",
"362 -51 LINE",
"133 -51 LINE"
);
}
);
vertWidth = 2048;
width = 1024;
}
);
unicode = 0138;
},
{
color = 6;
glyphname = lcommaaccent;
lastChange = "2022-04-07 18:21:36 +0000";
layers = (
{
background = {
paths = (
{
closed = 1;
nodes = (
"408 1700 LINE",
"574 1700 LINE",
"574 259 LINE SMOOTH",
"574 234 OFFCURVE",
"586 222 OFFCURVE",
"611 222 CURVE SMOOTH",
"758 222 LINE",
"740 69 LINE",
"572 69 LINE SMOOTH",
"463 69 OFFCURVE",
"408 125 OFFCURVE",
"408 237 CURVE SMOOTH"
);
},
{
closed = 1;
nodes = (
"404 0 LINE",
"680 0 LINE",
"680 -40 LINE SMOOTH",
"680 -124 OFFCURVE",
"659 -193 OFFCURVE",
"616 -246 CURVE",
"479 -246 LINE",
"505 -211 OFFCURVE",
"520 -172 OFFCURVE",
"525 -130 CURVE",
"404 -130 LINE"
);
}
);
};
layerId = "4E782664-D0D5-4FED-AFC2-B9212141A2ED";
paths = (
{
closed = 1;
nodes = (
"365 1700 LINE",
"603 1700 LINE",
"603 323 LINE SMOOTH",
"603 293 OFFCURVE",
"617 278 OFFCURVE",
"646 278 CURVE SMOOTH",
"798 278 LINE",
"773 69 LINE",
"572 69 LINE SMOOTH",
"434 69 OFFCURVE",
"365 140 OFFCURVE",
"365 282 CURVE SMOOTH"
);
},
{
closed = 1;
nodes = (
"384 0 LINE",
"700 0 LINE",
"700 -40 LINE SMOOTH",
"700 -124 OFFCURVE",
"679 -193 OFFCURVE",
"636 -246 CURVE",
"459 -246 LINE",
"485 -223 OFFCURVE",
"500 -198 OFFCURVE",
"505 -170 CURVE",
"384 -170 LINE"
);
}
);
vertWidth = 2048;
width = 1024;
}
);
unicode = 013C;
},
{
color = 6;
glyphname = ldot;
lastChange = "2022-04-07 18:21:36 +0000";
layers = (
{
background = {
paths = (
{
closed = 1;
nodes = (
"408 1700 LINE",
"574 1700 LINE",
"574 139 LINE SMOOTH",
"574 114 OFFCURVE",
"586 102 OFFCURVE",
"611 102 CURVE SMOOTH",
"758 102 LINE",
"740 -51 LINE",
"572 -51 LINE SMOOTH",
"463 -51 OFFCURVE",
"408 5 OFFCURVE",
"408 117 CURVE SMOOTH"
);
},
{
closed = 1;
nodes = (
"1122 777 LINE",
"893 777 LINE",
"893 980 LINE",
"1122 980 LINE"
);
}
);
};
layerId = "4E782664-D0D5-4FED-AFC2-B9212141A2ED";
paths = (
{
closed = 1;
nodes = (
"365 1700 LINE",
"603 1700 LINE",
"603 203 LINE SMOOTH",
"603 173 OFFCURVE",
"617 158 OFFCURVE",
"646 158 CURVE SMOOTH",
"798 158 LINE",
"773 -51 LINE",
"572 -51 LINE SMOOTH",
"434 -51 OFFCURVE",
"365 20 OFFCURVE",
"365 162 CURVE SMOOTH"
);
},
{
closed = 1;
nodes = (
"869 1010 LINE",
"1143 1010 LINE",
"1143 744 LINE",
"869 744 LINE"
);
}
);
vertWidth = 2048;
width = 1024;
}
);
unicode = 0140;
},
{
color = 6;
glyphname = napostrophe;
lastChange = "2022-04-07 18:21:36 +0000";
layers = (
{
background = {
paths = (
{
closed = 1;
nodes = (
"312 1157 LINE",
"312 952 LINE",
"341 1018 OFFCURVE",
"377 1071 OFFCURVE",
"422 1110 CURVE SMOOTH",
"476 1157 OFFCURVE",
"532 1180 OFFCURVE",
"590 1180 CURVE SMOOTH",
"667 1180 OFFCURVE",
"732 1146 OFFCURVE",
"785 1078 CURVE SMOOTH",
"842 1003 OFFCURVE",
"871 882 OFFCURVE",
"871 713 CURVE SMOOTH",
"871 -51 LINE",
"709 -51 LINE",
"709 705 LINE SMOOTH",
"709 919 OFFCURVE",
"662 1026 OFFCURVE",
"568 1026 CURVE SMOOTH",
"524 1026 OFFCURVE",
"480 1002 OFFCURVE",
"437 954 CURVE SMOOTH",
"385 896 OFFCURVE",
"345 818 OFFCURVE",
"318 721 CURVE",
"318 -51 LINE",
"156 -51 LINE",
"156 1157 LINE"
);
},
{
closed = 1;
nodes = (
"156 1751 LINE",
"365 1751 LINE",
"365 1631 LINE SMOOTH",
"365 1503 OFFCURVE",
"322 1393 OFFCURVE",
"237 1302 CURVE",
"144 1302 LINE",
"207 1377 OFFCURVE",
"245 1457 OFFCURVE",
"256 1542 CURVE",
"156 1542 LINE"
);
}
);
};
layerId = "4E782664-D0D5-4FED-AFC2-B9212141A2ED";
paths = (
{
closed = 1;
nodes = (
"133 1157 LINE",
"350 1157 LINE",
"350 977 LINE",
"372 1034 OFFCURVE",
"402 1079 OFFCURVE",
"440 1113 CURVE SMOOTH",
"489 1158 OFFCURVE",
"543 1180 OFFCURVE",
"601 1180 CURVE SMOOTH",
"682 1180 OFFCURVE",
"749 1146 OFFCURVE",
"804 1078 CURVE SMOOTH",
"862 1005 OFFCURVE",
"891 879 OFFCURVE",
"891 700 CURVE SMOOTH",
"891 -51 LINE",
"662 -51 LINE",
"662 698 LINE SMOOTH",
"662 877 OFFCURVE",
"627 967 OFFCURVE",
"557 967 CURVE SMOOTH",
"520 967 OFFCURVE",
"482 940 OFFCURVE",
"445 887 CURVE SMOOTH",
"407 832 OFFCURVE",
"379 759 OFFCURVE",
"362 668 CURVE",
"362 -51 LINE",
"133 -51 LINE"
);
},
{
closed = 1;
nodes = (
"133 1771 LINE",
"400 1771 LINE",
"400 1657 LINE SMOOTH",
"400 1519 OFFCURVE",
"358 1395 OFFCURVE",
"274 1286 CURVE",
"133 1286 LINE",
"194 1356 OFFCURVE",
"230 1433 OFFCURVE",
"240 1514 CURVE",
"133 1514 LINE"
);
}
);
vertWidth = 2048;
width = 1024;
}
);
unicode = 0149;
},
{
color = 6;
glyphname = ncommaaccent;
lastChange = "2022-04-07 18:21:36 +0000";
layers = (
{
background = {
paths = (
{
closed = 1;
nodes = (
"312 1157 LINE",
"312 952 LINE",
"341 1018 OFFCURVE",
"377 1071 OFFCURVE",
"422 1110 CURVE SMOOTH",
"476 1157 OFFCURVE",
"532 1180 OFFCURVE",
"590 1180 CURVE SMOOTH",
"667 1180 OFFCURVE",
"732 1146 OFFCURVE",
"785 1078 CURVE SMOOTH",
"842 1003 OFFCURVE",
"871 882 OFFCURVE",
"871 713 CURVE SMOOTH",
"871 69 LINE",
"709 69 LINE",
"709 705 LINE SMOOTH",
"709 919 OFFCURVE",
"662 1026 OFFCURVE",
"568 1026 CURVE SMOOTH",
"524 1026 OFFCURVE",
"480 1002 OFFCURVE",
"437 954 CURVE SMOOTH",
"385 896 OFFCURVE",
"345 818 OFFCURVE",
"318 721 CURVE",
"318 69 LINE",
"156 69 LINE",
"156 1157 LINE"
);
},
{
closed = 1;
nodes = (
"379 0 LINE",
"655 0 LINE",
"655 -40 LINE SMOOTH",
"655 -124 OFFCURVE",
"634 -193 OFFCURVE",
"591 -246 CURVE",
"454 -246 LINE",
"480 -211 OFFCURVE",
"495 -172 OFFCURVE",
"500 -130 CURVE",
"379 -130 LINE"
);
}
);
};
layerId = "4E782664-D0D5-4FED-AFC2-B9212141A2ED";
paths = (
{
closed = 1;
nodes = (
"133 1157 LINE",
"350 1157 LINE",
"350 977 LINE",
"372 1034 OFFCURVE",
"402 1079 OFFCURVE",
"440 1113 CURVE SMOOTH",
"489 1158 OFFCURVE",
"543 1180 OFFCURVE",
"601 1180 CURVE SMOOTH",
"682 1180 OFFCURVE",
"749 1146 OFFCURVE",
"804 1078 CURVE SMOOTH",
"862 1005 OFFCURVE",
"891 879 OFFCURVE",
"891 700 CURVE SMOOTH",
"891 69 LINE",
"662 69 LINE",
"662 698 LINE SMOOTH",
"662 877 OFFCURVE",
"627 967 OFFCURVE",
"557 967 CURVE SMOOTH",
"520 967 OFFCURVE",
"482 940 OFFCURVE",
"445 887 CURVE SMOOTH",
"407 832 OFFCURVE",
"379 759 OFFCURVE",
"362 668 CURVE",
"362 69 LINE",
"133 69 LINE"
);
},
{
closed = 1;
nodes = (
"359 0 LINE",
"675 0 LINE",
"675 -40 LINE SMOOTH",
"675 -124 OFFCURVE",
"654 -193 OFFCURVE",
"611 -246 CURVE",
"434 -246 LINE",
"460 -223 OFFCURVE",
"475 -198 OFFCURVE",
"480 -170 CURVE",
"359 -170 LINE"
);
}
);
vertWidth = 2048;
width = 1024;
}
);
unicode = 0146;
},
{
color = 6;
glyphname = obreve;
lastChange = "2022-04-07 18:21:36 +0000";
layers = (
{
layerId = "4E782664-D0D5-4FED-AFC2-B9212141A2ED";
paths = (
{
closed = 1;
nodes = (
"639 1196 OFFCURVE",
"739 1139 OFFCURVE",
"813 1025 CURVE SMOOTH",
"886 910 OFFCURVE",
"923 753 OFFCURVE",
"923 554 CURVE SMOOTH",
"923 391 OFFCURVE",
"899 255 OFFCURVE",
"850 148 CURVE SMOOTH",
"778 -12 OFFCURVE",
"665 -92 OFFCURVE",
"510 -92 CURVE SMOOTH",
"383 -92 OFFCURVE",
"283 -35 OFFCURVE",
"209 78 CURVE SMOOTH",
"135 193 OFFCURVE",
"98 350 OFFCURVE",
"98 551 CURVE SMOOTH",
"98 770 OFFCURVE",
"141 937 OFFCURVE",
"228 1052 CURVE SMOOTH",
"301 1148 OFFCURVE",
"396 1196 OFFCURVE",
"513 1196 CURVE SMOOTH"
);
},
{
closed = 1;
nodes = (
"467 999 OFFCURVE",
"431 974 OFFCURVE",
"402 924 CURVE SMOOTH",
"359 848 OFFCURVE",
"338 724 OFFCURVE",
"338 552 CURVE SMOOTH",
"338 409 OFFCURVE",
"353 300 OFFCURVE",
"384 224 CURVE SMOOTH",
"414 150 OFFCURVE",
"457 113 OFFCURVE",
"512 113 CURVE SMOOTH",
"558 113 OFFCURVE",
"595 139 OFFCURVE",
"623 191 CURVE SMOOTH",
"664 267 OFFCURVE",
"685 388 OFFCURVE",
"685 553 CURVE SMOOTH",
"685 705 OFFCURVE",
"668 820 OFFCURVE",
"634 897 CURVE SMOOTH",
"604 965 OFFCURVE",
"563 999 OFFCURVE",
"511 999 CURVE SMOOTH"
);
},
{
closed = 1;
nodes = (
"882 1616 LINE",
"853 1534 OFFCURVE",
"817 1472 OFFCURVE",
"775 1430 CURVE SMOOTH",
"712 1365 OFFCURVE",
"625 1333 OFFCURVE",
"513 1333 CURVE SMOOTH",
"400 1333 OFFCURVE",
"311 1367 OFFCURVE",
"247 1434 CURVE SMOOTH",
"208 1475 OFFCURVE",
"174 1536 OFFCURVE",
"145 1616 CURVE",
"286 1616 LINE",
"311 1563 OFFCURVE",
"340 1526 OFFCURVE",
"371 1505 CURVE SMOOTH",
"407 1482 OFFCURVE",
"454 1470 OFFCURVE",
"513 1470 CURVE SMOOTH",
"592 1470 OFFCURVE",
"652 1492 OFFCURVE",
"693 1536 CURVE SMOOTH",
"710 1555 OFFCURVE",
"726 1581 OFFCURVE",
"741 1616 CURVE"
);
}
);
vertWidth = 2048;
width = 1024;
}
);
unicode = 014F;
},
{
color = 6;
glyphname = rcommaaccent;
lastChange = "2022-04-07 18:21:36 +0000";
layers = (
{
background = {
paths = (
{
closed = 1;
nodes = (
"426 823 LINE",
"436 823 LINE",
"472 959 OFFCURVE",
"532 1059 OFFCURVE",
"616 1123 CURVE SMOOTH",
"671 1165 OFFCURVE",
"729 1186 OFFCURVE",
"789 1186 CURVE SMOOTH",
"836 1186 OFFCURVE",
"879 1172 OFFCURVE",
"918 1143 CURVE",
"871 977 LINE",
"845 999 OFFCURVE",
"814 1010 OFFCURVE",
"779 1010 CURVE SMOOTH",
"708 1010 OFFCURVE",
"643 972 OFFCURVE",
"584 896 CURVE SMOOTH",
"532 828 OFFCURVE",
"490 733 OFFCURVE",
"459 610 CURVE",
"459 69 LINE",
"295 69 LINE",
"295 1157 LINE",
"447 1157 LINE"
);
},
{
closed = 1;
nodes = (
"234 0 LINE",
"510 0 LINE",
"510 -40 LINE SMOOTH",
"510 -124 OFFCURVE",
"489 -193 OFFCURVE",
"446 -246 CURVE",
"309 -246 LINE",
"335 -211 OFFCURVE",
"350 -172 OFFCURVE",
"355 -130 CURVE",
"234 -130 LINE"
);
}
);
};
layerId = "4E782664-D0D5-4FED-AFC2-B9212141A2ED";
paths = (
{
closed = 1;
nodes = (
"444 795 LINE",
"454 795 LINE",
"471 900 OFFCURVE",
"501 983 OFFCURVE",
"544 1045 CURVE SMOOTH",
"611 1143 OFFCURVE",
"689 1192 OFFCURVE",
"780 1192 CURVE SMOOTH",
"821 1192 OFFCURVE",
"862 1182 OFFCURVE",
"903 1161 CURVE",
"849 918 LINE",
"824 930 OFFCURVE",
"797 936 OFFCURVE",
"770 936 CURVE SMOOTH",
"715 936 OFFCURVE",
"663 907 OFFCURVE",
"614 849 CURVE SMOOTH",
"537 758 OFFCURVE",
"499 649 OFFCURVE",
"499 522 CURVE SMOOTH",
"499 69 LINE",
"266 69 LINE",
"266 1157 LINE",
"470 1157 LINE"
);
},
{
closed = 1;
nodes = (
"225 0 LINE",
"541 0 LINE",
"541 -40 LINE SMOOTH",
"541 -124 OFFCURVE",
"520 -193 OFFCURVE",
"477 -246 CURVE",
"300 -246 LINE",
"326 -223 OFFCURVE",
"341 -198 OFFCURVE",
"346 -170 CURVE",
"225 -170 LINE"
);
}
);
vertWidth = 2048;
width = 1024;
}
);
unicode = 0157;
},
{
color = 6;
glyphname = longs;
lastChange = "2022-04-07 18:21:36 +0000";
layers = (
{
background = {
paths = (
{
closed = 1;
nodes = (
"329 1278 LINE SMOOTH",
"329 1390 OFFCURVE",
"345 1478 OFFCURVE",
"377 1543 CURVE SMOOTH",
"429 1648 OFFCURVE",
"513 1700 OFFCURVE",
"630 1700 CURVE SMOOTH",
"715 1700 OFFCURVE",
"794 1677 OFFCURVE",
"867 1630 CURVE",
"795 1460 LINE",
"753 1487 OFFCURVE",
"713 1501 OFFCURVE",
"675 1501 CURVE SMOOTH",
"632 1501 OFFCURVE",
"601 1482 OFFCURVE",
"582 1444 CURVE SMOOTH",
"569 1417 OFFCURVE",
"562 1362 OFFCURVE",
"562 1280 CURVE SMOOTH",
"562 -51 LINE",
"329 -51 LINE"
);
}
);
};
layerId = "4E782664-D0D5-4FED-AFC2-B9212141A2ED";
paths = (
{
closed = 1;
nodes = (
"329 1278 LINE SMOOTH",
"329 1390 OFFCURVE",
"345 1478 OFFCURVE",
"377 1543 CURVE SMOOTH",
"429 1648 OFFCURVE",
"513 1700 OFFCURVE",
"630 1700 CURVE SMOOTH",
"715 1700 OFFCURVE",
"794 1677 OFFCURVE",
"867 1630 CURVE",
"795 1460 LINE",
"753 1487 OFFCURVE",
"713 1501 OFFCURVE",
"675 1501 CURVE SMOOTH",
"632 1501 OFFCURVE",
"601 1482 OFFCURVE",
"582 1444 CURVE SMOOTH",
"569 1417 OFFCURVE",
"562 1362 OFFCURVE",
"562 1280 CURVE SMOOTH",
"562 -51 LINE",
"329 -51 LINE"
);
}
);
vertWidth = 2048;
width = 1024;
}
);
unicode = 017F;
},
{
color = 6;
glyphname = tbar;
lastChange = "2022-04-07 18:21:36 +0000";
layers = (
{
background = {
paths = (
{
closed = 1;
nodes = (
"502 -84 OFFCURVE",
"430 -45 OFFCURVE",
"385 34 CURVE SMOOTH",
"362 76 OFFCURVE",
"350 143 OFFCURVE",
"350 236 CURVE SMOOTH",
"350 545 LINE",
"133 545 LINE",
"133 727 LINE",
"350 727 LINE",
"350 975 LINE",
"133 975 LINE",
"133 1157 LINE",
"350 1157 LINE",
"350 1415 LINE",
"583 1534 LINE",
"583 1157 LINE",
"843 1157 LINE",
"843 975 LINE",
"583 975 LINE",
"583 727 LINE",
"843 727 LINE",
"843 545 LINE",
"583 545 LINE",
"583 262 LINE SMOOTH",
"583 205 OFFCURVE",
"586 170 OFFCURVE",
"592 157 CURVE SMOOTH",
"603 130 OFFCURVE",
"623 117 OFFCURVE",
"650 117 CURVE SMOOTH",
"686 117 OFFCURVE",
"724 135 OFFCURVE",
"765 170 CURVE",
"833 10 LINE",
"769 -53 OFFCURVE",
"692 -84 OFFCURVE",
"601 -84 CURVE SMOOTH"
);
}
);
};
layerId = "4E782664-D0D5-4FED-AFC2-B9212141A2ED";
paths = (
{
closed = 1;
nodes = (
"502 -84 OFFCURVE",
"430 -45 OFFCURVE",
"385 34 CURVE SMOOTH",
"362 76 OFFCURVE",
"350 143 OFFCURVE",
"350 236 CURVE SMOOTH",
"350 545 LINE",
"133 545 LINE",
"133 727 LINE",
"350 727 LINE",
"350 975 LINE",
"133 975 LINE",
"133 1157 LINE",
"350 1157 LINE",
"350 1415 LINE",
"583 1534 LINE",
"583 1157 LINE",
"843 1157 LINE",
"843 975 LINE",
"583 975 LINE",
"583 727 LINE",
"843 727 LINE",
"843 545 LINE",
"583 545 LINE",
"583 262 LINE SMOOTH",
"583 205 OFFCURVE",
"586 170 OFFCURVE",
"592 157 CURVE SMOOTH",
"603 130 OFFCURVE",
"623 117 OFFCURVE",
"650 117 CURVE SMOOTH",
"686 117 OFFCURVE",
"724 135 OFFCURVE",
"765 170 CURVE",
"833 10 LINE",
"769 -53 OFFCURVE",
"692 -84 OFFCURVE",
"601 -84 CURVE SMOOTH"
);
}
);
vertWidth = 2048;
width = 1024;
}
);
unicode = 0167;
},
{
color = 6;
glyphname = uogonek;
lastChange = "2022-04-07 18:21:36 +0000";
layers = (
{
background = {
paths = (
{
closed = 1;
nodes = (
"635 -244 OFFCURVE",
"540 -215 OFFCURVE",
"540 -119 CURVE SMOOTH",
"540 -55 OFFCURVE",
"585 8 OFFCURVE",
"676 72 CURVE",
"676 270 LINE",
"625 121 OFFCURVE",
"538 46 OFFCURVE",
"417 46 CURVE SMOOTH",
"311 46 OFFCURVE",
"232 95 OFFCURVE",
"181 193 CURVE SMOOTH",
"149 254 OFFCURVE",
"133 365 OFFCURVE",
"133 524 CURVE SMOOTH",
"133 1157 LINE",
"362 1157 LINE",
"362 550 LINE SMOOTH",
"362 356 OFFCURVE",
"398 259 OFFCURVE",
"469 259 CURVE SMOOTH",
"509 259 OFFCURVE",
"548 288 OFFCURVE",
"585 345 CURVE SMOOTH",
"620 399 OFFCURVE",
"646 470 OFFCURVE",
"662 558 CURVE",
"662 1157 LINE",
"891 1157 LINE",
"891 69 LINE",
"836 69 LINE",
"760 20 OFFCURVE",
"697 -27 OFFCURVE",
"697 -94 CURVE SMOOTH",
"697 -134 OFFCURVE",
"726 -160 OFFCURVE",
"758 -160 CURVE SMOOTH",
"796 -160 OFFCURVE",
"835 -151 OFFCURVE",
"876 -131 CURVE",
"876 -213 LINE",
"835 -234 OFFCURVE",
"785 -244 OFFCURVE",
"725 -244 CURVE SMOOTH"
);
}
);
};
layerId = "4E782664-D0D5-4FED-AFC2-B9212141A2ED";
paths = (
{
closed = 1;
nodes = (
"635 -244 OFFCURVE",
"540 -215 OFFCURVE",
"540 -119 CURVE SMOOTH",
"540 -55 OFFCURVE",
"585 8 OFFCURVE",
"676 72 CURVE",
"676 270 LINE",
"625 121 OFFCURVE",
"538 46 OFFCURVE",
"417 46 CURVE SMOOTH",
"311 46 OFFCURVE",
"232 95 OFFCURVE",
"181 193 CURVE SMOOTH",
"149 254 OFFCURVE",
"133 365 OFFCURVE",
"133 524 CURVE SMOOTH",
"133 1157 LINE",
"362 1157 LINE",
"362 550 LINE SMOOTH",
"362 356 OFFCURVE",
"398 259 OFFCURVE",
"469 259 CURVE SMOOTH",
"509 259 OFFCURVE",
"548 288 OFFCURVE",
"585 345 CURVE SMOOTH",
"620 399 OFFCURVE",
"646 470 OFFCURVE",
"662 558 CURVE",
"662 1157 LINE",
"891 1157 LINE",
"891 69 LINE",
"836 69 LINE",
"760 20 OFFCURVE",
"697 -27 OFFCURVE",
"697 -94 CURVE SMOOTH",
"697 -134 OFFCURVE",
"726 -160 OFFCURVE",
"758 -160 CURVE SMOOTH",
"796 -160 OFFCURVE",
"835 -151 OFFCURVE",
"876 -131 CURVE",
"876 -213 LINE",
"835 -234 OFFCURVE",
"785 -244 OFFCURVE",
"725 -244 CURVE SMOOTH"
);
}
);
vertWidth = 2048;
width = 1024;
}
);
unicode = 0173;
},
{
color = 6;
glyphname = utilde;
lastChange = "2022-04-07 18:21:36 +0000";
layers = (
{
background = {
paths = (
{
closed = 1;
nodes = (
"156 1157 LINE",
"318 1157 LINE",
"318 414 LINE SMOOTH",
"318 191 OFFCURVE",
"366 80 OFFCURVE",
"462 80 CURVE SMOOTH",
"507 80 OFFCURVE",
"551 106 OFFCURVE",
"595 157 CURVE SMOOTH",
"644 214 OFFCURVE",
"682 290 OFFCURVE",
"709 387 CURVE",
"709 1157 LINE",
"871 1157 LINE",
"871 -51 LINE",
"715 -51 LINE",
"715 164 LINE",
"650 5 OFFCURVE",
"557 -74 OFFCURVE",
"435 -74 CURVE SMOOTH",
"331 -74 OFFCURVE",
"253 -20 OFFCURVE",
"200 88 CURVE SMOOTH",
"171 147 OFFCURVE",
"156 250 OFFCURVE",
"156 395 CURVE SMOOTH"
);
},
{
closed = 1;
nodes = (
"861 1424 LINE",
"822 1381 OFFCURVE",
"769 1360 OFFCURVE",
"701 1360 CURVE SMOOTH",
"657 1360 OFFCURVE",
"597 1376 OFFCURVE",
"521 1407 CURVE SMOOTH",
"458 1433 OFFCURVE",
"404 1446 OFFCURVE",
"359 1446 CURVE SMOOTH",
"298 1446 OFFCURVE",
"243 1428 OFFCURVE",
"194 1393 CURVE",
"194 1514 LINE",
"235 1556 OFFCURVE",
"289 1577 OFFCURVE",
"356 1577 CURVE SMOOTH",
"397 1577 OFFCURVE",
"457 1561 OFFCURVE",
"536 1528 CURVE SMOOTH",
"594 1503 OFFCURVE",
"648 1491 OFFCURVE",
"697 1491 CURVE SMOOTH",
"760 1491 OFFCURVE",
"815 1508 OFFCURVE",
"861 1542 CURVE"
);
}
);
};
layerId = "4E782664-D0D5-4FED-AFC2-B9212141A2ED";
paths = (
{
closed = 1;
nodes = (
"133 1157 LINE",
"362 1157 LINE",
"362 430 LINE SMOOTH",
"362 236 OFFCURVE",
"398 139 OFFCURVE",
"469 139 CURVE SMOOTH",
"509 139 OFFCURVE",
"548 168 OFFCURVE",
"585 225 CURVE SMOOTH",
"620 279 OFFCURVE",
"646 350 OFFCURVE",
"662 438 CURVE",
"662 1157 LINE",
"891 1157 LINE",
"891 -51 LINE",
"676 -51 LINE",
"676 150 LINE",
"625 1 OFFCURVE",
"538 -74 OFFCURVE",
"417 -74 CURVE SMOOTH",
"311 -74 OFFCURVE",
"232 -25 OFFCURVE",
"181 73 CURVE SMOOTH",
"149 134 OFFCURVE",
"133 245 OFFCURVE",
"133 404 CURVE SMOOTH"
);
},
{
closed = 1;
nodes = (
"869 1413 LINE",
"830 1368 OFFCURVE",
"776 1346 OFFCURVE",
"705 1346 CURVE SMOOTH",
"660 1346 OFFCURVE",
"599 1363 OFFCURVE",
"521 1397 CURVE SMOOTH",
"450 1428 OFFCURVE",
"394 1444 OFFCURVE",
"354 1444 CURVE SMOOTH",
"296 1444 OFFCURVE",
"240 1423 OFFCURVE",
"185 1381 CURVE",
"185 1512 LINE",
"228 1557 OFFCURVE",
"283 1579 OFFCURVE",
"351 1579 CURVE SMOOTH",
"391 1579 OFFCURVE",
"452 1561 OFFCURVE",
"535 1526 CURVE SMOOTH",
"604 1496 OFFCURVE",
"660 1481 OFFCURVE",
"701 1481 CURVE SMOOTH",
"763 1481 OFFCURVE",
"819 1501 OFFCURVE",
"869 1542 CURVE"
);
}
);
vertWidth = 2048;
width = 1024;
}
);
unicode = 0169;
},
{
color = 6;
glyphname = wcircumflex;
lastChange = "2022-04-07 18:21:36 +0000";
layers = (
{
layerId = "4E782664-D0D5-4FED-AFC2-B9212141A2ED";
paths = (
{
closed = 1;
nodes = (
"12 1157 LINE",
"221 1157 LINE",
"262 499 LINE SMOOTH",
"268 401 OFFCURVE",
"273 300 OFFCURVE",
"276 196 CURVE",
"284 196 LINE",
"286 222 LINE SMOOTH",
"297 367 OFFCURVE",
"303 461 OFFCURVE",
"311 506 CURVE SMOOTH",
"409 1075 LINE",
"614 1075 LINE",
"712 506 LINE SMOOTH",
"719 463 OFFCURVE",
"727 384 OFFCURVE",
"734 270 CURVE SMOOTH",
"735 249 OFFCURVE",
"737 224 OFFCURVE",
"739 196 CURVE",
"747 196 LINE",
"750 301 OFFCURVE",
"756 402 OFFCURVE",
"762 499 CURVE SMOOTH",
"803 1157 LINE",
"1011 1157 LINE",
"882 -68 LINE",
"659 -68 LINE",
"540 549 LINE SMOOTH",
"533 586 OFFCURVE",
"525 665 OFFCURVE",
"516 786 CURVE",
"508 786 LINE",
"506 763 LINE SMOOTH",
"496 652 OFFCURVE",
"489 581 OFFCURVE",
"483 549 CURVE SMOOTH",
"364 -68 LINE",
"141 -68 LINE"
);
},
{
closed = 1;
nodes = (
"370 1620 LINE",
"653 1620 LINE",
"913 1333 LINE",
"710 1333 LINE",
"511 1507 LINE",
"313 1333 LINE",
"110 1333 LINE"
);
}
);
vertWidth = 2048;
width = 1024;
}
);
unicode = 0175;
},
{
color = 6;
glyphname = ycircumflex;
lastChange = "2022-04-07 18:21:36 +0000";
layers = (
{
layerId = "4E782664-D0D5-4FED-AFC2-B9212141A2ED";
paths = (
{
closed = 1;
nodes = (
"78 1157 LINE",
"336 1157 LINE",
"467 672 LINE SMOOTH",
"478 633 OFFCURVE",
"493 542 OFFCURVE",
"514 399 CURVE",
"522 399 LINE",
"529 442 LINE SMOOTH",
"548 556 OFFCURVE",
"563 633 OFFCURVE",
"574 672 CURVE SMOOTH",
"709 1157 LINE",
"961 1157 LINE",
"592 69 LINE SMOOTH",
"552 -48 OFFCURVE",
"510 -130 OFFCURVE",
"465 -175 CURVE SMOOTH",
"419 -221 OFFCURVE",
"358 -244 OFFCURVE",
"281 -244 CURVE SMOOTH",
"199 -244 LINE",
"146 -25 LINE",
"252 -25 LINE SMOOTH",
"299 -25 OFFCURVE",
"334 -3 OFFCURVE",
"356 42 CURVE SMOOTH",
"367 63 OFFCURVE",
"376 90 OFFCURVE",
"385 123 CURVE SMOOTH",
"402 184 LINE"
);
},
{
closed = 1;
nodes = (
"381 1620 LINE",
"664 1620 LINE",
"924 1333 LINE",
"721 1333 LINE",
"522 1507 LINE",
"324 1333 LINE",
"121 1333 LINE"
);
}
);
vertWidth = 2048;
width = 1024;
}
);
unicode = 0177;
},
{
color = 6;
glyphname = fi;
lastChange = "2022-04-07 18:21:36 +0000";
layers = (
{
background = {
paths = (
{
closed = 1;
nodes = (
"164 975 LINE",
"38 975 LINE",
"38 1157 LINE",
"164 1157 LINE",
"164 1278 LINE SMOOTH",
"164 1521 OFFCURVE",
"271 1700 OFFCURVE",
"550 1700 CURVE SMOOTH",
"667 1700 OFFCURVE",
"776 1670 OFFCURVE",
"877 1610 CURVE",
"805 1440 LINE",
"732 1480 OFFCURVE",
"661 1501 OFFCURVE",
"595 1501 CURVE SMOOTH",
"417 1501 OFFCURVE",
"397 1408 OFFCURVE",
"397 1280 CURVE SMOOTH",
"397 1157 LINE",
"909 1157 LINE",
"909 -51 LINE",
"671 -51 LINE",
"671 975 LINE",
"397 975 LINE",
"397 -51 LINE",
"164 -51 LINE"
);
}
);
};
layerId = "4E782664-D0D5-4FED-AFC2-B9212141A2ED";
paths = (
{
closed = 1;
nodes = (
"164 975 LINE",
"38 975 LINE",
"38 1157 LINE",
"164 1157 LINE",
"164 1278 LINE SMOOTH",
"164 1521 OFFCURVE",
"271 1700 OFFCURVE",
"550 1700 CURVE SMOOTH",
"667 1700 OFFCURVE",
"776 1670 OFFCURVE",
"877 1610 CURVE",
"805 1440 LINE",
"732 1480 OFFCURVE",
"661 1501 OFFCURVE",
"595 1501 CURVE SMOOTH",
"417 1501 OFFCURVE",
"397 1408 OFFCURVE",
"397 1280 CURVE SMOOTH",
"397 1157 LINE",
"909 1157 LINE",
"909 -51 LINE",
"671 -51 LINE",
"671 975 LINE",
"397 975 LINE",
"397 -51 LINE",
"164 -51 LINE"
);
}
);
vertWidth = 2048;
width = 1024;
}
);
unicode = FB01;
},
{
color = 6;
glyphname = fl;
lastChange = "2022-04-07 18:21:36 +0000";
layers = (
{
background = {
paths = (
{
closed = 1;
nodes = (
"164 975 LINE",
"38 975 LINE",
"38 1157 LINE",
"164 1157 LINE",
"164 1278 LINE SMOOTH",
"164 1521 OFFCURVE",
"285 1700 OFFCURVE",
"600 1700 CURVE SMOOTH",
"655 1700 LINE SMOOTH",
"733 1700 OFFCURVE",
"807 1700 OFFCURVE",
"877 1700 CURVE SMOOTH",
"893 1700 LINE",
"893 203 LINE SMOOTH",
"893 173 OFFCURVE",
"907 158 OFFCURVE",
"936 158 CURVE SMOOTH",
"1018 158 LINE",
"993 -51 LINE",
"862 -51 LINE SMOOTH",
"724 -51 OFFCURVE",
"655 20 OFFCURVE",
"655 162 CURVE SMOOTH",
"655 975 LINE",
"397 975 LINE",
"397 -51 LINE",
"164 -51 LINE"
);
},
{
closed = 1;
nodes = (
"655 1157 LINE",
"655 1501 LINE",
"645 1501 LINE SMOOTH",
"422 1501 OFFCURVE",
"397 1408 OFFCURVE",
"397 1280 CURVE SMOOTH",
"397 1157 LINE"
);
}
);
};
layerId = "4E782664-D0D5-4FED-AFC2-B9212141A2ED";
paths = (
{
closed = 1;
nodes = (
"164 975 LINE",
"38 975 LINE",
"38 1157 LINE",
"164 1157 LINE",
"164 1278 LINE SMOOTH",
"164 1521 OFFCURVE",
"285 1700 OFFCURVE",
"600 1700 CURVE SMOOTH",
"655 1700 LINE",
"877 1700 LINE",
"893 1700 LINE",
"893 203 LINE SMOOTH",
"893 173 OFFCURVE",
"907 158 OFFCURVE",
"936 158 CURVE SMOOTH",
"1018 158 LINE",
"993 -51 LINE",
"862 -51 LINE SMOOTH",
"724 -51 OFFCURVE",
"655 20 OFFCURVE",
"655 162 CURVE SMOOTH",
"655 975 LINE",
"397 975 LINE",
"397 -51 LINE",
"164 -51 LINE"
);
},
{
closed = 1;
nodes = (
"655 1157 LINE",
"655 1501 LINE",
"645 1501 LINE SMOOTH",
"422 1501 OFFCURVE",
"397 1408 OFFCURVE",
"397 1280 CURVE SMOOTH",
"397 1157 LINE"
);
}
);
vertWidth = 2048;
width = 1024;
}
);
unicode = FB02;
},
{
color = 4;
glyphname = "Gje-cy";
lastChange = "2022-04-07 18:21:36 +0000";
layers = (
{
background = {
paths = (
{
closed = 1;
nodes = (
"467 1488 LINE",
"1683 1488 LINE",
"1683 1318 LINE",
"653 1318 LINE",
"653 -51 LINE",
"467 -51 LINE"
);
},
{
closed = 1;
nodes = (
"1203 1800 LINE",
"1457 1800 LINE",
"1140 1606 LINE",
"970 1606 LINE"
);
}
);
};
layerId = "4E782664-D0D5-4FED-AFC2-B9212141A2ED";
paths = (
{
closed = 1;
nodes = (
"434 1488 LINE",
"1720 1488 LINE",
"1720 1250 LINE",
"700 1250 LINE",
"700 -51 LINE",
"434 -51 LINE"
);
},
{
closed = 1;
nodes = (
"1213 1800 LINE",
"1543 1800 LINE",
"1194 1565 LINE",
"973 1565 LINE"
);
}
);
vertWidth = 2048;
width = 2048;
}
);
unicode = 0403;
},
{
color = 4;
glyphname = "Gheupturn-cy";
lastChange = "2022-04-07 18:21:36 +0000";
layers = (
{
background = {
paths = (
{
closed = 1;
nodes = (
"434 1388 LINE",
"1455 1388 LINE",
"1455 1802 LINE",
"1721 1802 LINE",
"1721 1249 LINE",
"1720 1249 LINE",
"1720 1150 LINE",
"700 1150 LINE",
"700 -51 LINE",
"434 -51 LINE"
);
}
);
};
layerId = "4E782664-D0D5-4FED-AFC2-B9212141A2ED";
paths = (
{
closed = 1;
nodes = (
"434 1388 LINE",
"1455 1388 LINE",
"1455 1802 LINE",
"1721 1802 LINE",
"1721 1249 LINE",
"1720 1249 LINE",
"1720 1150 LINE",
"700 1150 LINE",
"700 -51 LINE",
"434 -51 LINE"
);
}
);
vertWidth = 2048;
width = 2048;
}
);
unicode = 0490;
},
{
color = 4;
glyphname = "Kje-cy";
lastChange = "2022-04-07 18:21:36 +0000";
layers = (
{
background = {
paths = (
{
closed = 1;
nodes = (
"912 689 OFFCURVE",
"776 672 OFFCURVE",
"614 671 CURVE",
"614 -51 LINE",
"426 -51 LINE",
"426 1488 LINE",
"614 1488 LINE",
"614 839 LINE",
"1114 841 OFFCURVE",
"1379 1032 OFFCURVE",
"1454 1488 CURVE",
"1654 1488 LINE",
"1590 1156 OFFCURVE",
"1466 931 OFFCURVE",
"1153 782 CURVE",
"1024 723 LINE"
);
},
{
closed = 1;
nodes = (
"1798 -51 LINE",
"1550 -51 LINE",
"1001 732 LINE",
"1159 802 LINE"
);
},
{
closed = 1;
nodes = (
"1123 1800 LINE",
"1377 1800 LINE",
"1060 1606 LINE",
"890 1606 LINE"
);
}
);
};
layerId = "4E782664-D0D5-4FED-AFC2-B9212141A2ED";
paths = (
{
closed = 1;
nodes = (
"1233 639 OFFCURVE",
"639 626 CURVE",
"639 -51 LINE",
"373 -51 LINE",
"373 1488 LINE",
"639 1488 LINE",
"639 868 LINE",
"1092 870 OFFCURVE",
"1331 1076 OFFCURVE",
"1403 1488 CURVE",
"1685 1488 LINE",
"1579 931 OFFCURVE"
);
},
{
closed = 1;
nodes = (
"1845 -51 LINE",
"1499 -51 LINE",
"972 742 LINE",
"1197 847 LINE"
);
},
{
closed = 1;
nodes = (
"1073 1800 LINE",
"1403 1800 LINE",
"1054 1565 LINE",
"833 1565 LINE"
);
}
);
vertWidth = 2048;
width = 2048;
}
);
unicode = 040C;
},
{
color = 4;
glyphname = "Ushort-cy";
lastChange = "2022-04-07 18:21:36 +0000";
layers = (
{
background = {
paths = (
{
closed = 1;
nodes = (
"377 1488 LINE",
"588 1488 LINE",
"981 723 LINE SMOOTH",
"1015 656 OFFCURVE",
"1045 572 OFFCURVE",
"1079 467 CURVE",
"1090 467 LINE",
"1119 546 OFFCURVE",
"1156 632 OFFCURVE",
"1197 729 CURVE SMOOTH",
"1522 1488 LINE",
"1733 1488 LINE",
"1134 167 LINE SMOOTH",
"1051 -16 OFFCURVE",
"929 -51 OFFCURVE",
"709 -51 CURVE SMOOTH",
"527 -51 LINE",
"490 119 LINE",
"705 119 LINE SMOOTH",
"837 119 OFFCURVE",
"926 129 OFFCURVE",
"975 237 CURVE SMOOTH",
"1004 301 LINE"
);
},
{
closed = 1;
nodes = (
"1428 1800 LINE",
"1389 1627 OFFCURVE",
"1274 1540 OFFCURVE",
"1084 1540 CURVE SMOOTH",
"894 1540 OFFCURVE",
"779 1627 OFFCURVE",
"740 1800 CURVE",
"884 1800 LINE",
"907 1707 OFFCURVE",
"973 1661 OFFCURVE",
"1084 1661 CURVE SMOOTH",
"1195 1661 OFFCURVE",
"1262 1707 OFFCURVE",
"1285 1800 CURVE"
);
}
);
};
layerId = "4E782664-D0D5-4FED-AFC2-B9212141A2ED";
paths = (
{
closed = 1;
nodes = (
"346 1488 LINE",
"651 1488 LINE",
"1036 806 LINE SMOOTH",
"1067 751 OFFCURVE",
"1096 695 OFFCURVE",
"1118 628 CURVE",
"1128 628 LINE",
"1154 692 OFFCURVE",
"1185 748 OFFCURVE",
"1210 808 CURVE SMOOTH",
"1499 1488 LINE",
"1800 1488 LINE",
"1182 184 LINE SMOOTH",
"1108 27 OFFCURVE",
"975 -51 OFFCURVE",
"768 -51 CURVE SMOOTH",
"577 -51 LINE",
"526 182 LINE",
"731 182 LINE SMOOTH",
"798 182 OFFCURVE",
"851 191 OFFCURVE",
"888 210 CURVE SMOOTH",
"923 227 OFFCURVE",
"950 256 OFFCURVE",
"967 297 CURVE SMOOTH",
"1003 383 LINE"
);
},
{
closed = 1;
nodes = (
"1477 1800 LINE",
"1462 1727 OFFCURVE",
"1438 1672 OFFCURVE",
"1406 1633 CURVE SMOOTH",
"1338 1549 OFFCURVE",
"1230 1507 OFFCURVE",
"1083 1507 CURVE SMOOTH",
"858 1507 OFFCURVE",
"727 1605 OFFCURVE",
"691 1800 CURVE",
"885 1800 LINE",
"905 1707 OFFCURVE",
"972 1661 OFFCURVE",
"1085 1661 CURVE SMOOTH",
"1196 1661 OFFCURVE",
"1262 1707 OFFCURVE",
"1283 1800 CURVE"
);
}
);
vertWidth = 2048;
width = 2048;
}
);
unicode = 040E;
},
{
color = 4;
glyphname = "Dzhe-cy";
lastChange = "2022-04-07 18:21:36 +0000";
layers = (
{
background = {
paths = (
{
closed = 1;
nodes = (
"891 -51 LINE",
"350 -51 LINE",
"350 1608 LINE",
"616 1608 LINE",
"616 172 LINE",
"1432 172 LINE",
"1432 1608 LINE",
"1698 1608 LINE",
"1698 -51 LINE",
"1157 -51 LINE",
"1157 -246 LINE",
"891 -246 LINE"
);
}
);
};
layerId = "4E782664-D0D5-4FED-AFC2-B9212141A2ED";
paths = (
{
closed = 1;
nodes = (
"891 -51 LINE",
"350 -51 LINE",
"350 1608 LINE",
"616 1608 LINE",
"616 172 LINE",
"1432 172 LINE",
"1432 1608 LINE",
"1698 1608 LINE",
"1698 -51 LINE",
"1157 -51 LINE",
"1157 -246 LINE",
"891 -246 LINE"
);
}
);
vertWidth = 2048;
width = 2048;
}
);
unicode = 040F;
},
{
color = 4;
glyphname = "Lje-cy";
lastChange = "2022-04-07 18:21:36 +0000";
layers = (
{
background = {
paths = (
{
closed = 1;
nodes = (
"184 -100 OFFCURVE",
"74 15 OFFCURVE",
"-16 201 CURVE",
"174 371 LINE",
"229 221 OFFCURVE",
"296 146 OFFCURVE",
"375 146 CURVE SMOOTH",
"497 146 OFFCURVE",
"557 357 OFFCURVE",
"557 783 CURVE SMOOTH",
"557 1608 LINE",
"1390 1608 LINE",
"1390 924 LINE",
"1495 924 LINE SMOOTH",
"1813 924 OFFCURVE",
"2045 779 OFFCURVE",
"2045 421 CURVE SMOOTH",
"2045 86 OFFCURVE",
"1825 -51 OFFCURVE",
"1524 -51 CURVE SMOOTH",
"1132 -51 LINE",
"1132 1381 LINE",
"813 1381 LINE",
"813 785 LINE SMOOTH",
"813 193 OFFCURVE",
"667 -100 OFFCURVE",
"371 -100 CURVE SMOOTH"
);
},
{
closed = 1;
nodes = (
"1512 178 LINE SMOOTH",
"1655 178 OFFCURVE",
"1764 250 OFFCURVE",
"1764 439 CURVE SMOOTH",
"1764 614 OFFCURVE",
"1675 701 OFFCURVE",
"1497 701 CURVE SMOOTH",
"1390 701 LINE",
"1390 178 LINE"
);
}
);
};
layerId = "4E782664-D0D5-4FED-AFC2-B9212141A2ED";
paths = (
{
closed = 1;
nodes = (
"184 -100 OFFCURVE",
"74 15 OFFCURVE",
"-16 201 CURVE",
"174 371 LINE",
"229 221 OFFCURVE",
"296 146 OFFCURVE",
"375 146 CURVE SMOOTH",
"497 146 OFFCURVE",
"557 357 OFFCURVE",
"557 783 CURVE SMOOTH",
"557 1608 LINE",
"1390 1608 LINE",
"1390 924 LINE",
"1495 924 LINE SMOOTH",
"1813 924 OFFCURVE",
"2045 779 OFFCURVE",
"2045 421 CURVE SMOOTH",
"2045 86 OFFCURVE",
"1825 -51 OFFCURVE",
"1524 -51 CURVE SMOOTH",
"1132 -51 LINE",
"1132 1381 LINE",
"813 1381 LINE",
"813 785 LINE SMOOTH",
"813 193 OFFCURVE",
"667 -100 OFFCURVE",
"371 -100 CURVE SMOOTH"
);
},
{
closed = 1;
nodes = (
"1512 178 LINE SMOOTH",
"1655 178 OFFCURVE",
"1764 250 OFFCURVE",
"1764 439 CURVE SMOOTH",
"1764 614 OFFCURVE",
"1675 701 OFFCURVE",
"1497 701 CURVE SMOOTH",
"1390 701 LINE",
"1390 178 LINE"
);
}
);
vertWidth = 2048;
width = 2048;
}
);
unicode = 0409;
},
{
color = 4;
glyphname = "Nje-cy";
lastChange = "2022-04-07 18:21:36 +0000";
layers = (
{
background = {
paths = (
{
closed = 1;
nodes = (
"170 1608 LINE",
"436 1608 LINE",
"436 920 LINE",
"952 920 LINE",
"952 1608 LINE",
"1218 1608 LINE",
"1218 924 LINE",
"1455 924 LINE SMOOTH",
"1773 924 OFFCURVE",
"2005 779 OFFCURVE",
"2005 421 CURVE SMOOTH",
"2005 86 OFFCURVE",
"1785 -51 OFFCURVE",
"1484 -51 CURVE SMOOTH",
"952 -51 LINE",
"952 697 LINE",
"436 697 LINE",
"436 -51 LINE",
"170 -51 LINE"
);
},
{
closed = 1;
nodes = (
"1472 178 LINE SMOOTH",
"1615 178 OFFCURVE",
"1724 250 OFFCURVE",
"1724 439 CURVE SMOOTH",
"1724 614 OFFCURVE",
"1635 701 OFFCURVE",
"1457 701 CURVE SMOOTH",
"1218 701 LINE",
"1218 178 LINE"
);
}
);
};
layerId = "4E782664-D0D5-4FED-AFC2-B9212141A2ED";
paths = (
{
closed = 1;
nodes = (
"170 1608 LINE",
"436 1608 LINE",
"436 920 LINE",
"952 920 LINE",
"952 1608 LINE",
"1218 1608 LINE",
"1218 924 LINE",
"1455 924 LINE SMOOTH",
"1773 924 OFFCURVE",
"2005 779 OFFCURVE",
"2005 421 CURVE SMOOTH",
"2005 86 OFFCURVE",
"1785 -51 OFFCURVE",
"1484 -51 CURVE SMOOTH",
"952 -51 LINE",
"952 697 LINE",
"436 697 LINE",
"436 -51 LINE",
"170 -51 LINE"
);
},
{
closed = 1;
nodes = (
"1472 178 LINE SMOOTH",
"1615 178 OFFCURVE",
"1724 250 OFFCURVE",
"1724 439 CURVE SMOOTH",
"1724 614 OFFCURVE",
"1635 701 OFFCURVE",
"1457 701 CURVE SMOOTH",
"1218 701 LINE",
"1218 178 LINE"
);
}
);
vertWidth = 2048;
width = 2048;
}
);
unicode = 040A;
},
{
color = 4;
glyphname = "Dze-cy";
lastChange = "2022-04-07 18:21:36 +0000";
layers = (
{
layerId = "4E782664-D0D5-4FED-AFC2-B9212141A2ED";
paths = (
{
closed = 1;
nodes = (
"521 369 LINE",
"658 214 OFFCURVE",
"828 137 OFFCURVE",
"1031 137 CURVE SMOOTH",
"1123 137 OFFCURVE",
"1197 155 OFFCURVE",
"1252 192 CURVE SMOOTH",
"1317 237 OFFCURVE",
"1350 299 OFFCURVE",
"1350 378 CURVE SMOOTH",
"1350 450 OFFCURVE",
"1322 509 OFFCURVE",
"1265 554 CURVE SMOOTH",
"1228 584 OFFCURVE",
"1138 627 OFFCURVE",
"995 683 CURVE SMOOTH",
"957 698 LINE",
"889 725 LINE SMOOTH",
"884 727 OFFCURVE",
"876 730 OFFCURVE",
"864 735 CURVE SMOOTH",
"717 790 OFFCURVE",
"622 836 OFFCURVE",
"579 872 CURVE SMOOTH",
"572 878 OFFCURVE",
"564 886 OFFCURVE",
"554 897 CURVE SMOOTH",
"483 974 OFFCURVE",
"447 1066 OFFCURVE",
"447 1174 CURVE SMOOTH",
"447 1313 OFFCURVE",
"497 1426 OFFCURVE",
"597 1511 CURVE SMOOTH",
"702 1600 OFFCURVE",
"843 1645 OFFCURVE",
"1021 1645 CURVE SMOOTH",
"1145 1645 OFFCURVE",
"1256 1627 OFFCURVE",
"1353 1590 CURVE SMOOTH",
"1430 1560 OFFCURVE",
"1507 1514 OFFCURVE",
"1584 1452 CURVE",
"1446 1260 LINE",
"1328 1372 OFFCURVE",
"1187 1428 OFFCURVE",
"1023 1428 CURVE SMOOTH",
"916 1428 OFFCURVE",
"838 1403 OFFCURVE",
"789 1353 CURVE SMOOTH",
"748 1310 OFFCURVE",
"727 1259 OFFCURVE",
"727 1198 CURVE SMOOTH",
"727 1129 OFFCURVE",
"757 1073 OFFCURVE",
"817 1032 CURVE SMOOTH",
"855 1005 OFFCURVE",
"936 970 OFFCURVE",
"1059 926 CURVE SMOOTH",
"1139 897 LINE SMOOTH",
"1315 834 OFFCURVE",
"1436 772 OFFCURVE",
"1501 711 CURVE SMOOTH",
"1592 626 OFFCURVE",
"1637 520 OFFCURVE",
"1637 392 CURVE SMOOTH",
"1637 233 OFFCURVE",
"1575 110 OFFCURVE",
"1450 21 CURVE SMOOTH",
"1347 -52 OFFCURVE",
"1207 -88 OFFCURVE",
"1030 -88 CURVE SMOOTH",
"754 -88 OFFCURVE",
"533 6 OFFCURVE",
"367 193 CURVE"
);
}
);
vertWidth = 2048;
width = 2048;
}
);
unicode = 0405;
},
{
color = 4;
glyphname = "E-cy";
lastChange = "2022-04-07 18:21:36 +0000";
layers = (
{
background = {
paths = (
{
closed = 1;
nodes = (
"861 -90 OFFCURVE",
"654 -1 OFFCURVE",
"497 177 CURVE SMOOTH",
"364 328 OFFCURVE",
"297 527 OFFCURVE",
"297 772 CURVE SMOOTH",
"297 1005 OFFCURVE",
"362 1202 OFFCURVE",
"491 1362 CURVE SMOOTH",
"645 1552 OFFCURVE",
"849 1647 OFFCURVE",
"1103 1647 CURVE SMOOTH",
"1242 1647 OFFCURVE",
"1364 1623 OFFCURVE",
"1469 1576 CURVE SMOOTH",
"1543 1543 OFFCURVE",
"1619 1491 OFFCURVE",
"1698 1421 CURVE",
"1544 1227 LINE",
"1435 1357 OFFCURVE",
"1291 1422 OFFCURVE",
"1114 1422 CURVE SMOOTH",
"955 1422 OFFCURVE",
"827 1362 OFFCURVE",
"730 1242 CURVE SMOOTH",
"634 1124 OFFCURVE",
"586 966 OFFCURVE",
"586 768 CURVE SMOOTH",
"586 607 OFFCURVE",
"624 471 OFFCURVE",
"700 361 CURVE SMOOTH",
"802 214 OFFCURVE",
"943 141 OFFCURVE",
"1122 141 CURVE SMOOTH",
"1318 141 OFFCURVE",
"1482 211 OFFCURVE",
"1614 350 CURVE",
"1749 135 LINE",
"1582 -15 OFFCURVE",
"1371 -90 OFFCURVE",
"1118 -90 CURVE SMOOTH"
);
},
{
closed = 1;
nodes = (
"1334 606 OFFCURVE",
"1255 625 OFFCURVE",
"1162 662 CURVE SMOOTH",
"1085 693 OFFCURVE",
"1020 708 OFFCURVE",
"966 708 CURVE SMOOTH",
"901 708 OFFCURVE",
"822 685 OFFCURVE",
"730 639 CURVE",
"730 869 LINE",
"817 912 OFFCURVE",
"896 933 OFFCURVE",
"966 933 CURVE SMOOTH",
"1032 933 OFFCURVE",
"1110 915 OFFCURVE",
"1201 879 CURVE SMOOTH",
"1280 848 OFFCURVE",
"1346 832 OFFCURVE",
"1399 832 CURVE SMOOTH",
"1463 832 OFFCURVE",
"1545 857 OFFCURVE",
"1644 906 CURVE",
"1644 676 LINE",
"1552 629 OFFCURVE",
"1470 606 OFFCURVE",
"1398 606 CURVE SMOOTH"
);
}
);
};
layerId = "4E782664-D0D5-4FED-AFC2-B9212141A2ED";
paths = (
{
closed = 1;
nodes = (
"861 -90 OFFCURVE",
"654 -1 OFFCURVE",
"497 177 CURVE SMOOTH",
"364 328 OFFCURVE",
"297 527 OFFCURVE",
"297 772 CURVE SMOOTH",
"297 1005 OFFCURVE",
"362 1202 OFFCURVE",
"491 1362 CURVE SMOOTH",
"645 1552 OFFCURVE",
"849 1647 OFFCURVE",
"1103 1647 CURVE SMOOTH",
"1242 1647 OFFCURVE",
"1364 1623 OFFCURVE",
"1469 1576 CURVE SMOOTH",
"1543 1543 OFFCURVE",
"1619 1491 OFFCURVE",
"1698 1421 CURVE",
"1544 1227 LINE",
"1435 1357 OFFCURVE",
"1291 1422 OFFCURVE",
"1114 1422 CURVE SMOOTH",
"955 1422 OFFCURVE",
"827 1362 OFFCURVE",
"730 1242 CURVE SMOOTH",
"634 1124 OFFCURVE",
"586 966 OFFCURVE",
"586 768 CURVE SMOOTH",
"586 607 OFFCURVE",
"624 471 OFFCURVE",
"700 361 CURVE SMOOTH",
"802 214 OFFCURVE",
"943 141 OFFCURVE",
"1122 141 CURVE SMOOTH",
"1318 141 OFFCURVE",
"1482 211 OFFCURVE",
"1614 350 CURVE",
"1749 135 LINE",
"1582 -15 OFFCURVE",
"1371 -90 OFFCURVE",
"1118 -90 CURVE SMOOTH"
);
},
{
closed = 1;
nodes = (
"1334 606 OFFCURVE",
"1255 625 OFFCURVE",
"1162 662 CURVE SMOOTH",
"1085 693 OFFCURVE",
"1020 708 OFFCURVE",
"966 708 CURVE SMOOTH",
"901 708 OFFCURVE",
"822 685 OFFCURVE",
"730 639 CURVE",
"730 869 LINE",
"817 912 OFFCURVE",
"896 933 OFFCURVE",
"966 933 CURVE SMOOTH",
"1032 933 OFFCURVE",
"1110 915 OFFCURVE",
"1201 879 CURVE SMOOTH",
"1280 848 OFFCURVE",
"1346 832 OFFCURVE",
"1399 832 CURVE SMOOTH",
"1463 832 OFFCURVE",
"1545 857 OFFCURVE",
"1644 906 CURVE",
"1644 676 LINE",
"1552 629 OFFCURVE",
"1470 606 OFFCURVE",
"1398 606 CURVE SMOOTH"
);
}
);
vertWidth = 2048;
width = 2048;
}
);
unicode = 0404;
},
{
color = 4;
glyphname = "I-cy";
lastChange = "2022-04-07 18:21:36 +0000";
layers = (
{
layerId = "4E782664-D0D5-4FED-AFC2-B9212141A2ED";
paths = (
{
closed = 1;
nodes = (
"676 1608 LINE",
"1372 1608 LINE",
"1372 1424 LINE",
"1159 1424 LINE",
"1159 133 LINE",
"1372 133 LINE",
"1372 -51 LINE",
"676 -51 LINE",
"676 133 LINE",
"889 133 LINE",
"889 1424 LINE",
"676 1424 LINE"
);
}
);
vertWidth = 2048;
width = 2048;
}
);
unicode = 0406;
},
{
color = 4;
glyphname = "Yi-cy";
lastChange = "2022-04-07 18:21:36 +0000";
layers = (
{
layerId = "4E782664-D0D5-4FED-AFC2-B9212141A2ED";
paths = (
{
closed = 1;
nodes = (
"676 1488 LINE",
"1372 1488 LINE",
"1372 1304 LINE",
"1159 1304 LINE",
"1159 133 LINE",
"1372 133 LINE",
"1372 -51 LINE",
"676 -51 LINE",
"676 133 LINE",
"889 133 LINE",
"889 1304 LINE",
"676 1304 LINE"
);
},
{
closed = 1;
nodes = (
"667 1800 LINE",
"933 1800 LINE",
"933 1595 LINE",
"667 1595 LINE"
);
},
{
closed = 1;
nodes = (
"1114 1800 LINE",
"1380 1800 LINE",
"1380 1595 LINE",
"1114 1595 LINE"
);
}
);
vertWidth = 2048;
width = 2048;
}
);
unicode = 0407;
},
{
color = 4;
glyphname = "Je-cy";
lastChange = "2022-04-07 18:21:36 +0000";
layers = (
{
layerId = "4E782664-D0D5-4FED-AFC2-B9212141A2ED";
paths = (
{
closed = 1;
nodes = (
"1070 1608 LINE",
"1340 1608 LINE",
"1340 418 LINE SMOOTH",
"1340 257 OFFCURVE",
"1309 139 OFFCURVE",
"1246 64 CURVE SMOOTH",
"1162 -37 OFFCURVE",
"1039 -88 OFFCURVE",
"876 -88 CURVE SMOOTH",
"671 -88 OFFCURVE",
"518 11 OFFCURVE",
"417 209 CURVE",
"572 363 LINE",
"639 216 OFFCURVE",
"733 143 OFFCURVE",
"854 143 CURVE SMOOTH",
"925 143 OFFCURVE",
"982 168 OFFCURVE",
"1023 218 CURVE SMOOTH",
"1054 255 OFFCURVE",
"1070 330 OFFCURVE",
"1070 441 CURVE SMOOTH"
);
}
);
vertWidth = 2048;
width = 2048;
}
);
unicode = 0408;
},
{
color = 4;
glyphname = "Tshe-cy";
lastChange = "2022-04-07 18:21:36 +0000";
layers = (
{
background = {
paths = (
{
closed = 1;
nodes = (
"626 1377 LINE",
"127 1377 LINE",
"127 1608 LINE",
"1532 1608 LINE",
"1532 1377 LINE",
"892 1377 LINE",
"892 833 LINE",
"992 985 OFFCURVE",
"1128 1061 OFFCURVE",
"1300 1061 CURVE SMOOTH",
"1447 1061 OFFCURVE",
"1560 1012 OFFCURVE",
"1638 913 CURVE SMOOTH",
"1697 839 OFFCURVE",
"1726 729 OFFCURVE",
"1726 584 CURVE SMOOTH",
"1726 -51 LINE",
"1456 -51 LINE",
"1456 549 LINE SMOOTH",
"1456 646 OFFCURVE",
"1439 718 OFFCURVE",
"1406 763 CURVE SMOOTH",
"1369 814 OFFCURVE",
"1309 840 OFFCURVE",
"1228 840 CURVE SMOOTH",
"1147 840 OFFCURVE",
"1073 805 OFFCURVE",
"1006 736 CURVE SMOOTH",
"957 686 OFFCURVE",
"919 621 OFFCURVE",
"892 541 CURVE",
"892 -51 LINE",
"626 -51 LINE"
);
}
);
};
layerId = "4E782664-D0D5-4FED-AFC2-B9212141A2ED";
paths = (
{
closed = 1;
nodes = (
"626 1377 LINE",
"127 1377 LINE",
"127 1608 LINE",
"1532 1608 LINE",
"1532 1377 LINE",
"892 1377 LINE",
"892 833 LINE",
"992 985 OFFCURVE",
"1128 1061 OFFCURVE",
"1300 1061 CURVE SMOOTH",
"1447 1061 OFFCURVE",
"1560 1012 OFFCURVE",
"1638 913 CURVE SMOOTH",
"1697 839 OFFCURVE",
"1726 729 OFFCURVE",
"1726 584 CURVE SMOOTH",
"1726 -51 LINE",
"1456 -51 LINE",
"1456 549 LINE SMOOTH",
"1456 646 OFFCURVE",
"1439 718 OFFCURVE",
"1406 763 CURVE SMOOTH",
"1369 814 OFFCURVE",
"1309 840 OFFCURVE",
"1228 840 CURVE SMOOTH",
"1147 840 OFFCURVE",
"1073 805 OFFCURVE",
"1006 736 CURVE SMOOTH",
"957 686 OFFCURVE",
"919 621 OFFCURVE",
"892 541 CURVE",
"892 -51 LINE",
"626 -51 LINE"
);
}
);
vertWidth = 2048;
width = 2048;
}
);
unicode = 040B;
},
{
color = 4;
glyphname = "Dje-cy";
lastChange = "2022-04-07 18:21:36 +0000";
layers = (
{
background = {
paths = (
{
closed = 1;
nodes = (
"1141 -88 OFFCURVE",
"1028 -32 OFFCURVE",
"953 79 CURVE",
"1108 233 LINE",
"1146 173 OFFCURVE",
"1200 143 OFFCURVE",
"1270 143 CURVE SMOOTH",
"1457 143 OFFCURVE",
"1506 280 OFFCURVE",
"1506 491 CURVE SMOOTH",
"1506 733 OFFCURVE",
"1422 840 OFFCURVE",
"1228 840 CURVE SMOOTH",
"1063 840 OFFCURVE",
"931 707 OFFCURVE",
"872 541 CURVE",
"872 -51 LINE",
"606 -51 LINE",
"606 1377 LINE",
"127 1377 LINE",
"127 1608 LINE",
"1532 1608 LINE",
"1532 1377 LINE",
"872 1377 LINE",
"872 833 LINE",
"973 987 OFFCURVE",
"1120 1061 OFFCURVE",
"1300 1061 CURVE SMOOTH",
"1620 1061 OFFCURVE",
"1776 850 OFFCURVE",
"1776 494 CURVE SMOOTH",
"1776 100 OFFCURVE",
"1625 -88 OFFCURVE",
"1292 -88 CURVE SMOOTH"
);
}
);
};
layerId = "4E782664-D0D5-4FED-AFC2-B9212141A2ED";
paths = (
{
closed = 1;
nodes = (
"1141 -88 OFFCURVE",
"1028 -32 OFFCURVE",
"953 79 CURVE",
"1108 233 LINE",
"1146 173 OFFCURVE",
"1200 143 OFFCURVE",
"1270 143 CURVE SMOOTH",
"1457 143 OFFCURVE",
"1506 280 OFFCURVE",
"1506 491 CURVE SMOOTH",
"1506 733 OFFCURVE",
"1422 840 OFFCURVE",
"1228 840 CURVE SMOOTH",
"1063 840 OFFCURVE",
"931 707 OFFCURVE",
"872 541 CURVE",
"872 -51 LINE",
"606 -51 LINE",
"606 1377 LINE",
"127 1377 LINE",
"127 1608 LINE",
"1532 1608 LINE",
"1532 1377 LINE",
"872 1377 LINE",
"872 833 LINE",
"973 987 OFFCURVE",
"1120 1061 OFFCURVE",
"1300 1061 CURVE SMOOTH",
"1620 1061 OFFCURVE",
"1776 850 OFFCURVE",
"1776 494 CURVE SMOOTH",
"1776 100 OFFCURVE",
"1625 -88 OFFCURVE",
"1292 -88 CURVE SMOOTH"
);
}
);
vertWidth = 2048;
width = 2048;
}
);
unicode = 0402;
},
{
color = 4;
glyphname = "gje-cy";
lastChange = "2022-04-07 18:21:36 +0000";
layers = (
{
background = {
paths = (
{
closed = 1;
nodes = (
"588 1157 LINE",
"1560 1157 LINE",
"1560 991 LINE",
"774 991 LINE",
"774 -51 LINE",
"588 -51 LINE"
);
},
{
closed = 1;
nodes = (
"1192 1608 LINE",
"1446 1608 LINE",
"1108 1340 LINE",
"938 1340 LINE"
);
}
);
};
layerId = "4E782664-D0D5-4FED-AFC2-B9212141A2ED";
paths = (
{
closed = 1;
nodes = (
"555 1157 LINE",
"1581 1157 LINE",
"1581 921 LINE",
"825 921 LINE",
"825 -51 LINE",
"555 -51 LINE"
);
},
{
closed = 1;
nodes = (
"1191 1620 LINE",
"1521 1620 LINE",
"1173 1333 LINE",
"952 1333 LINE"
);
}
);
vertWidth = 2048;
width = 2048;
}
);
unicode = 0453;
},
{
color = 4;
glyphname = "gheupturn-cy";
lastChange = "2022-04-07 18:21:36 +0000";
layers = (
{
background = {
paths = (
{
closed = 1;
nodes = (
"555 1157 LINE",
"1311 1157 LINE",
"1311 1520 LINE",
"1581 1520 LINE",
"1581 921 LINE",
"825 921 LINE",
"825 -51 LINE",
"555 -51 LINE"
);
}
);
};
layerId = "4E782664-D0D5-4FED-AFC2-B9212141A2ED";
paths = (
{
closed = 1;
nodes = (
"555 1157 LINE",
"1311 1157 LINE",
"1311 1520 LINE",
"1581 1520 LINE",
"1581 921 LINE",
"825 921 LINE",
"825 -51 LINE",
"555 -51 LINE"
);
}
);
vertWidth = 2048;
width = 2048;
}
);
unicode = 0491;
},
{
color = 4;
glyphname = "kje-cy";
lastChange = "2022-04-07 18:21:36 +0000";
layers = (
{
background = {
paths = (
{
closed = 1;
nodes = (
"502 1157 LINE",
"684 1157 LINE",
"684 645 LINE",
"817 649 OFFCURVE",
"925 669 OFFCURVE",
"1007 705 CURVE SMOOTH",
"1182 781 OFFCURVE",
"1283 932 OFFCURVE",
"1311 1157 CURVE",
"1501 1157 LINE",
"1482 1025 OFFCURVE",
"1450 918 OFFCURVE",
"1403 836 CURVE SMOOTH",
"1346 736 OFFCURVE",
"1262 656 OFFCURVE",
"1151 596 CURVE",
"1647 -51 LINE",
"1403 -51 LINE",
"997 531 LINE",
"906 504 OFFCURVE",
"802 490 OFFCURVE",
"684 488 CURVE",
"684 -51 LINE",
"502 -51 LINE"
);
},
{
closed = 1;
nodes = (
"1152 1608 LINE",
"1406 1608 LINE",
"1068 1340 LINE",
"898 1340 LINE"
);
}
);
};
layerId = "4E782664-D0D5-4FED-AFC2-B9212141A2ED";
paths = (
{
closed = 1;
nodes = (
"471 1157 LINE",
"731 1157 LINE",
"731 682 LINE",
"862 687 OFFCURVE",
"968 714 OFFCURVE",
"1049 765 CURVE SMOOTH",
"1176 844 OFFCURVE",
"1251 975 OFFCURVE",
"1272 1157 CURVE",
"1542 1157 LINE",
"1524 1022 OFFCURVE",
"1489 909 OFFCURVE",
"1437 818 CURVE SMOOTH",
"1382 723 OFFCURVE",
"1304 646 OFFCURVE",
"1202 586 CURVE",
"1708 -51 LINE",
"1362 -51 LINE",
"977 492 LINE",
"909 473 OFFCURVE",
"827 463 OFFCURVE",
"731 461 CURVE",
"731 -51 LINE",
"471 -51 LINE"
);
},
{
closed = 1;
nodes = (
"1101 1620 LINE",
"1431 1620 LINE",
"1083 1333 LINE",
"862 1333 LINE"
);
}
);
vertWidth = 2048;
width = 2048;
}
);
unicode = 045C;
},
{
color = 4;
glyphname = "ushort-cy";
lastChange = "2022-04-07 18:21:36 +0000";
layers = (
{
background = {
paths = (
{
closed = 1;
nodes = (
"459 1157 LINE",
"672 1157 LINE",
"928 592 LINE SMOOTH",
"966 509 OFFCURVE",
"997 425 OFFCURVE",
"1024 340 CURVE",
"1030 340 LINE",
"1039 360 LINE SMOOTH",
"1089 472 OFFCURVE",
"1119 549 OFFCURVE",
"1137 588 CURVE SMOOTH",
"1403 1157 LINE",
"1614 1157 LINE",
"1037 -12 LINE SMOOTH",
"989 -109 OFFCURVE",
"929 -175 OFFCURVE",
"857 -208 CURVE SMOOTH",
"805 -232 OFFCURVE",
"739 -244 OFFCURVE",
"658 -244 CURVE SMOOTH",
"582 -244 LINE",
"531 -82 LINE",
"633 -82 LINE SMOOTH",
"700 -82 OFFCURVE",
"751 -72 OFFCURVE",
"786 -52 CURVE SMOOTH",
"823 -32 OFFCURVE",
"854 4 OFFCURVE",
"879 57 CURVE SMOOTH",
"934 172 LINE"
);
},
{
closed = 1;
nodes = (
"1388 1544 LINE",
"1349 1359 OFFCURVE",
"1235 1266 OFFCURVE",
"1044 1266 CURVE SMOOTH",
"854 1266 OFFCURVE",
"739 1359 OFFCURVE",
"700 1544 CURVE",
"844 1544 LINE",
"867 1446 OFFCURVE",
"934 1397 OFFCURVE",
"1045 1397 CURVE SMOOTH",
"1155 1397 OFFCURVE",
"1222 1446 OFFCURVE",
"1245 1544 CURVE"
);
}
);
};
layerId = "4E782664-D0D5-4FED-AFC2-B9212141A2ED";
paths = (
{
closed = 1;
nodes = (
"420 1157 LINE",
"721 1157 LINE",
"942 672 LINE SMOOTH",
"964 623 OFFCURVE",
"993 541 OFFCURVE",
"1026 426 CURVE",
"1034 426 LINE",
"1079 547 OFFCURVE",
"1112 629 OFFCURVE",
"1133 672 CURVE SMOOTH",
"1364 1157 LINE",
"1655 1157 LINE",
"1100 69 LINE SMOOTH",
"1038 -53 OFFCURVE",
"972 -136 OFFCURVE",
"904 -180 CURVE SMOOTH",
"837 -223 OFFCURVE",
"749 -244 OFFCURVE",
"639 -244 CURVE SMOOTH",
"557 -244 LINE",
"488 -17 LINE",
"590 -17 LINE SMOOTH",
"641 -17 OFFCURVE",
"683 -11 OFFCURVE",
"716 1 CURVE SMOOTH",
"779 22 OFFCURVE",
"833 74 OFFCURVE",
"873 156 CURVE SMOOTH",
"897 205 LINE"
);
},
{
closed = 1;
nodes = (
"1437 1599 LINE",
"1400 1377 OFFCURVE",
"1269 1266 OFFCURVE",
"1044 1266 CURVE SMOOTH",
"819 1266 OFFCURVE",
"688 1377 OFFCURVE",
"651 1599 CURVE",
"846 1599 LINE",
"866 1493 OFFCURVE",
"932 1440 OFFCURVE",
"1044 1440 CURVE SMOOTH",
"1155 1440 OFFCURVE",
"1222 1493 OFFCURVE",
"1243 1599 CURVE"
);
}
);
vertWidth = 2048;
width = 2048;
}
);
unicode = 045E;
},
{
color = 4;
glyphname = "dzhe-cy";
lastChange = "2022-04-07 18:21:36 +0000";
layers = (
{
background = {
paths = (
{
closed = 1;
nodes = (
"893 -51 LINE",
"465 -51 LINE",
"465 1157 LINE",
"727 1157 LINE",
"727 182 LINE",
"1321 182 LINE",
"1321 1157 LINE",
"1583 1157 LINE",
"1583 -51 LINE",
"1155 -51 LINE",
"1155 -246 LINE",
"893 -246 LINE"
);
}
);
};
layerId = "4E782664-D0D5-4FED-AFC2-B9212141A2ED";
paths = (
{
closed = 1;
nodes = (
"893 -51 LINE",
"465 -51 LINE",
"465 1157 LINE",
"727 1157 LINE",
"727 182 LINE",
"1321 182 LINE",
"1321 1157 LINE",
"1583 1157 LINE",
"1583 -51 LINE",
"1155 -51 LINE",
"1155 -246 LINE",
"893 -246 LINE"
);
}
);
vertWidth = 2048;
width = 2048;
}
);
unicode = 045F;
},
{
color = 4;
glyphname = "lje-cy";
lastChange = "2022-04-07 18:21:36 +0000";
layers = (
{
background = {
paths = (
{
closed = 1;
nodes = (
"225 -104 OFFCURVE",
"105 -26 OFFCURVE",
"15 129 CURVE",
"201 295 LINE",
"253 193 OFFCURVE",
"312 142 OFFCURVE",
"379 142 CURVE SMOOTH",
"531 142 OFFCURVE",
"564 491 OFFCURVE",
"564 736 CURVE SMOOTH",
"564 1157 LINE",
"1361 1157 LINE",
"1361 791 LINE",
"1475 791 LINE SMOOTH",
"1761 791 OFFCURVE",
"1971 662 OFFCURVE",
"1971 375 CURVE SMOOTH",
"1971 92 OFFCURVE",
"1773 -51 OFFCURVE",
"1499 -51 CURVE SMOOTH",
"1101 -51 LINE",
"1101 926 LINE",
"822 926 LINE",
"822 745 LINE SMOOTH",
"822 285 OFFCURVE",
"764 -104 OFFCURVE",
"376 -104 CURVE SMOOTH"
);
},
{
closed = 1;
nodes = (
"1485 170 LINE SMOOTH",
"1615 170 OFFCURVE",
"1707 231 OFFCURVE",
"1707 373 CURVE SMOOTH",
"1707 504 OFFCURVE",
"1633 570 OFFCURVE",
"1485 570 CURVE SMOOTH",
"1361 570 LINE",
"1361 170 LINE"
);
}
);
};
layerId = "4E782664-D0D5-4FED-AFC2-B9212141A2ED";
paths = (
{
closed = 1;
nodes = (
"225 -104 OFFCURVE",
"105 -26 OFFCURVE",
"15 129 CURVE",
"201 295 LINE",
"253 193 OFFCURVE",
"312 142 OFFCURVE",
"379 142 CURVE SMOOTH",
"531 142 OFFCURVE",
"564 491 OFFCURVE",
"564 736 CURVE SMOOTH",
"564 1157 LINE",
"1361 1157 LINE",
"1361 791 LINE",
"1475 791 LINE SMOOTH",
"1761 791 OFFCURVE",
"1971 662 OFFCURVE",
"1971 375 CURVE SMOOTH",
"1971 92 OFFCURVE",
"1773 -51 OFFCURVE",
"1499 -51 CURVE SMOOTH",
"1101 -51 LINE",
"1101 926 LINE",
"822 926 LINE",
"822 745 LINE SMOOTH",
"822 285 OFFCURVE",
"764 -104 OFFCURVE",
"376 -104 CURVE SMOOTH"
);
},
{
closed = 1;
nodes = (
"1485 170 LINE SMOOTH",
"1615 170 OFFCURVE",
"1707 231 OFFCURVE",
"1707 373 CURVE SMOOTH",
"1707 504 OFFCURVE",
"1633 570 OFFCURVE",
"1485 570 CURVE SMOOTH",
"1361 570 LINE",
"1361 170 LINE"
);
}
);
vertWidth = 2048;
width = 2048;
}
);
unicode = 0459;
},
{
color = 4;
glyphname = "nje-cy";
lastChange = "2022-04-07 18:21:36 +0000";
layers = (
{
background = {
paths = (
{
closed = 1;
nodes = (
"225 1157 LINE",
"487 1157 LINE",
"487 705 LINE",
"961 705 LINE",
"961 1157 LINE",
"1223 1157 LINE",
"1223 791 LINE",
"1415 791 LINE SMOOTH",
"1701 791 OFFCURVE",
"1911 662 OFFCURVE",
"1911 375 CURVE SMOOTH",
"1911 92 OFFCURVE",
"1713 -51 OFFCURVE",
"1439 -51 CURVE SMOOTH",
"961 -51 LINE",
"961 472 LINE",
"487 472 LINE",
"487 -51 LINE",
"225 -51 LINE"
);
},
{
closed = 1;
nodes = (
"1425 170 LINE SMOOTH",
"1555 170 OFFCURVE",
"1647 231 OFFCURVE",
"1647 373 CURVE SMOOTH",
"1647 504 OFFCURVE",
"1573 570 OFFCURVE",
"1425 570 CURVE SMOOTH",
"1223 570 LINE",
"1223 170 LINE"
);
}
);
};
layerId = "4E782664-D0D5-4FED-AFC2-B9212141A2ED";
paths = (
{
closed = 1;
nodes = (
"225 1157 LINE",
"487 1157 LINE",
"487 705 LINE",
"961 705 LINE",
"961 1157 LINE",
"1223 1157 LINE",
"1223 791 LINE",
"1415 791 LINE SMOOTH",
"1701 791 OFFCURVE",
"1911 662 OFFCURVE",
"1911 375 CURVE SMOOTH",
"1911 92 OFFCURVE",
"1713 -51 OFFCURVE",
"1439 -51 CURVE SMOOTH",
"961 -51 LINE",
"961 472 LINE",
"487 472 LINE",
"487 -51 LINE",
"225 -51 LINE"
);
},
{
closed = 1;
nodes = (
"1425 170 LINE SMOOTH",
"1555 170 OFFCURVE",
"1647 231 OFFCURVE",
"1647 373 CURVE SMOOTH",
"1647 504 OFFCURVE",
"1573 570 OFFCURVE",
"1425 570 CURVE SMOOTH",
"1223 570 LINE",
"1223 170 LINE"
);
}
);
vertWidth = 2048;
width = 2048;
}
);
unicode = 045A;
},
{
color = 4;
glyphname = "dze-cy";
lastChange = "2022-04-07 18:21:36 +0000";
layers = (
{
layerId = "4E782664-D0D5-4FED-AFC2-B9212141A2ED";
paths = (
{
closed = 1;
nodes = (
"598 285 LINE",
"727 189 OFFCURVE",
"871 141 OFFCURVE",
"1031 141 CURVE SMOOTH",
"1176 141 OFFCURVE",
"1249 184 OFFCURVE",
"1249 271 CURVE SMOOTH",
"1249 337 OFFCURVE",
"1166 398 OFFCURVE",
"1001 453 CURVE SMOOTH",
"897 487 LINE SMOOTH",
"774 528 OFFCURVE",
"690 566 OFFCURVE",
"644 600 CURVE SMOOTH",
"569 656 OFFCURVE",
"532 736 OFFCURVE",
"532 839 CURVE SMOOTH",
"532 954 OFFCURVE",
"582 1045 OFFCURVE",
"683 1114 CURVE SMOOTH",
"763 1169 OFFCURVE",
"864 1196 OFFCURVE",
"985 1196 CURVE SMOOTH",
"1169 1196 OFFCURVE",
"1334 1150 OFFCURVE",
"1481 1059 CURVE",
"1354 854 LINE",
"1246 936 OFFCURVE",
"1129 977 OFFCURVE",
"1003 977 CURVE SMOOTH",
"951 977 OFFCURVE",
"908 968 OFFCURVE",
"875 949 CURVE SMOOTH",
"834 926 OFFCURVE",
"813 893 OFFCURVE",
"813 850 CURVE SMOOTH",
"813 817 OFFCURVE",
"831 788 OFFCURVE",
"867 764 CURVE SMOOTH",
"896 744 OFFCURVE",
"948 723 OFFCURVE",
"1024 700 CURVE SMOOTH",
"1135 668 LINE SMOOTH",
"1402 589 OFFCURVE",
"1536 460 OFFCURVE",
"1536 282 CURVE SMOOTH",
"1536 193 OFFCURVE",
"1503 113 OFFCURVE",
"1438 43 CURVE SMOOTH",
"1355 -46 OFFCURVE",
"1212 -90 OFFCURVE",
"1008 -90 CURVE SMOOTH",
"809 -90 OFFCURVE",
"630 -32 OFFCURVE",
"471 84 CURVE"
);
}
);
vertWidth = 2048;
width = 2048;
}
);
unicode = 0455;
},
{
color = 4;
glyphname = "e-cy";
lastChange = "2022-04-07 18:21:36 +0000";
layers = (
{
background = {
paths = (
{
closed = 1;
nodes = (
"830 -92 OFFCURVE",
"662 -15 OFFCURVE",
"550 139 CURVE SMOOTH",
"471 248 OFFCURVE",
"432 383 OFFCURVE",
"432 544 CURVE SMOOTH",
"432 714 OFFCURVE",
"479 859 OFFCURVE",
"573 978 CURVE SMOOTH",
"689 1123 OFFCURVE",
"844 1196 OFFCURVE",
"1038 1196 CURVE SMOOTH",
"1237 1196 OFFCURVE",
"1405 1135 OFFCURVE",
"1542 1014 CURVE",
"1411 829 LINE",
"1306 932 OFFCURVE",
"1189 983 OFFCURVE",
"1062 983 CURVE SMOOTH",
"946 983 OFFCURVE",
"855 937 OFFCURVE",
"790 844 CURVE SMOOTH",
"735 765 OFFCURVE",
"708 666 OFFCURVE",
"708 547 CURVE SMOOTH",
"708 424 OFFCURVE",
"736 325 OFFCURVE",
"793 250 CURVE SMOOTH",
"858 167 OFFCURVE",
"950 125 OFFCURVE",
"1070 125 CURVE SMOOTH",
"1215 125 OFFCURVE",
"1335 185 OFFCURVE",
"1429 305 CURVE",
"1593 135 LINE",
"1459 -16 OFFCURVE",
"1279 -92 OFFCURVE",
"1054 -92 CURVE SMOOTH"
);
},
{
closed = 1;
nodes = (
"1289 409 OFFCURVE",
"1238 422 OFFCURVE",
"1174 447 CURVE SMOOTH",
"1123 467 OFFCURVE",
"1080 477 OFFCURVE",
"1045 477 CURVE SMOOTH",
"1001 477 OFFCURVE",
"946 461 OFFCURVE",
"879 430 CURVE",
"879 631 LINE",
"942 662 OFFCURVE",
"996 677 OFFCURVE",
"1041 677 CURVE SMOOTH",
"1080 677 OFFCURVE",
"1128 666 OFFCURVE",
"1186 643 CURVE SMOOTH",
"1242 622 OFFCURVE",
"1288 611 OFFCURVE",
"1323 611 CURVE SMOOTH",
"1365 611 OFFCURVE",
"1418 626 OFFCURVE",
"1483 655 CURVE",
"1483 457 LINE",
"1421 425 OFFCURVE",
"1369 409 OFFCURVE",
"1326 409 CURVE SMOOTH"
);
}
);
};
layerId = "4E782664-D0D5-4FED-AFC2-B9212141A2ED";
paths = (
{
closed = 1;
nodes = (
"830 -92 OFFCURVE",
"662 -15 OFFCURVE",
"550 139 CURVE SMOOTH",
"471 248 OFFCURVE",
"432 383 OFFCURVE",
"432 544 CURVE SMOOTH",
"432 714 OFFCURVE",
"479 859 OFFCURVE",
"573 978 CURVE SMOOTH",
"689 1123 OFFCURVE",
"844 1196 OFFCURVE",
"1038 1196 CURVE SMOOTH",
"1237 1196 OFFCURVE",
"1405 1135 OFFCURVE",
"1542 1014 CURVE",
"1411 829 LINE",
"1306 932 OFFCURVE",
"1189 983 OFFCURVE",
"1062 983 CURVE SMOOTH",
"946 983 OFFCURVE",
"855 937 OFFCURVE",
"790 844 CURVE SMOOTH",
"735 765 OFFCURVE",
"708 666 OFFCURVE",
"708 547 CURVE SMOOTH",
"708 424 OFFCURVE",
"736 325 OFFCURVE",
"793 250 CURVE SMOOTH",
"858 167 OFFCURVE",
"950 125 OFFCURVE",
"1070 125 CURVE SMOOTH",
"1215 125 OFFCURVE",
"1335 185 OFFCURVE",
"1429 305 CURVE",
"1593 135 LINE",
"1459 -16 OFFCURVE",
"1279 -92 OFFCURVE",
"1054 -92 CURVE SMOOTH"
);
},
{
closed = 1;
nodes = (
"1289 409 OFFCURVE",
"1238 422 OFFCURVE",
"1174 447 CURVE SMOOTH",
"1123 467 OFFCURVE",
"1080 477 OFFCURVE",
"1045 477 CURVE SMOOTH",
"1001 477 OFFCURVE",
"946 461 OFFCURVE",
"879 430 CURVE",
"879 631 LINE",
"942 662 OFFCURVE",
"996 677 OFFCURVE",
"1041 677 CURVE SMOOTH",
"1080 677 OFFCURVE",
"1128 666 OFFCURVE",
"1186 643 CURVE SMOOTH",
"1242 622 OFFCURVE",
"1288 611 OFFCURVE",
"1323 611 CURVE SMOOTH",
"1365 611 OFFCURVE",
"1418 626 OFFCURVE",
"1483 655 CURVE",
"1483 457 LINE",
"1421 425 OFFCURVE",
"1369 409 OFFCURVE",
"1326 409 CURVE SMOOTH"
);
}
);
vertWidth = 2048;
width = 2048;
}
);
unicode = 0454;
},
{
color = 4;
glyphname = "i-cy";
lastChange = "2022-04-07 18:21:36 +0000";
layers = (
{
layerId = "4E782664-D0D5-4FED-AFC2-B9212141A2ED";
paths = (
{
closed = 1;
nodes = (
"877 1677 LINE",
"1172 1677 LINE",
"1172 1403 LINE",
"877 1403 LINE"
);
},
{
closed = 1;
nodes = (
"889 1157 LINE",
"1159 1157 LINE",
"1159 -51 LINE",
"889 -51 LINE"
);
}
);
vertWidth = 2048;
width = 2048;
}
);
unicode = 0456;
},
{
color = 4;
glyphname = "yi-cy";
lastChange = "2022-04-07 18:21:36 +0000";
layers = (
{
background = {
paths = (
{
closed = 1;
nodes = (
"877 1677 LINE",
"1172 1677 LINE",
"1172 1403 LINE",
"877 1403 LINE"
);
},
{
closed = 1;
nodes = (
"889 1157 LINE",
"1159 1157 LINE",
"1159 -51 LINE",
"889 -51 LINE"
);
}
);
};
layerId = "4E782664-D0D5-4FED-AFC2-B9212141A2ED";
paths = (
{
closed = 1;
nodes = (
"637 1599 LINE",
"903 1599 LINE",
"903 1333 LINE",
"637 1333 LINE"
);
},
{
closed = 1;
nodes = (
"1145 1599 LINE",
"1411 1599 LINE",
"1411 1333 LINE",
"1145 1333 LINE"
);
},
{
closed = 1;
nodes = (
"889 1157 LINE",
"1159 1157 LINE",
"1159 -51 LINE",
"889 -51 LINE"
);
}
);
vertWidth = 2048;
width = 2048;
}
);
unicode = 0457;
},
{
color = 4;
glyphname = "je-cy";
lastChange = "2022-04-07 18:21:36 +0000";
layers = (
{
layerId = "4E782664-D0D5-4FED-AFC2-B9212141A2ED";
paths = (
{
closed = 1;
nodes = (
"912 1677 LINE",
"1205 1677 LINE",
"1205 1403 LINE",
"912 1403 LINE"
);
},
{
closed = 1;
nodes = (
"922 1157 LINE",
"1192 1157 LINE",
"1192 270 LINE SMOOTH",
"1192 124 OFFCURVE",
"1174 20 OFFCURVE",
"1139 -41 CURVE SMOOTH",
"1068 -165 OFFCURVE",
"896 -233 OFFCURVE",
"625 -244 CURVE",
"535 -21 LINE",
"704 -16 OFFCURVE",
"814 10 OFFCURVE",
"864 58 CURVE SMOOTH",
"903 96 OFFCURVE",
"922 172 OFFCURVE",
"922 285 CURVE SMOOTH"
);
}
);
vertWidth = 2048;
width = 2048;
}
);
unicode = 0458;
},
{
color = 4;
glyphname = "tshe-cy";
lastChange = "2022-04-07 18:21:36 +0000";
layers = (
{
background = {
paths = (
{
closed = 1;
nodes = (
"507 1320 LINE",
"252 1320 LINE",
"252 1510 LINE",
"507 1510 LINE",
"507 1700 LINE",
"777 1700 LINE",
"777 1510 LINE",
"1268 1510 LINE",
"1268 1320 LINE",
"777 1320 LINE",
"777 852 LINE",
"877 1004 OFFCURVE",
"1013 1080 OFFCURVE",
"1185 1080 CURVE SMOOTH",
"1332 1080 OFFCURVE",
"1445 1031 OFFCURVE",
"1523 932 CURVE SMOOTH",
"1582 858 OFFCURVE",
"1611 748 OFFCURVE",
"1611 603 CURVE SMOOTH",
"1611 -51 LINE",
"1341 -51 LINE",
"1341 568 LINE SMOOTH",
"1341 665 OFFCURVE",
"1324 737 OFFCURVE",
"1291 782 CURVE SMOOTH",
"1254 833 OFFCURVE",
"1194 859 OFFCURVE",
"1113 859 CURVE SMOOTH",
"1032 859 OFFCURVE",
"958 824 OFFCURVE",
"891 755 CURVE SMOOTH",
"842 705 OFFCURVE",
"804 640 OFFCURVE",
"777 560 CURVE",
"777 -51 LINE",
"507 -51 LINE"
);
}
);
};
layerId = "4E782664-D0D5-4FED-AFC2-B9212141A2ED";
paths = (
{
closed = 1;
nodes = (
"507 1320 LINE",
"252 1320 LINE",
"252 1510 LINE",
"507 1510 LINE",
"507 1700 LINE",
"777 1700 LINE",
"777 1510 LINE",
"1268 1510 LINE",
"1268 1320 LINE",
"777 1320 LINE",
"777 852 LINE",
"877 1004 OFFCURVE",
"1013 1080 OFFCURVE",
"1185 1080 CURVE SMOOTH",
"1332 1080 OFFCURVE",
"1445 1031 OFFCURVE",
"1523 932 CURVE SMOOTH",
"1582 858 OFFCURVE",
"1611 748 OFFCURVE",
"1611 603 CURVE SMOOTH",
"1611 -51 LINE",
"1341 -51 LINE",
"1341 568 LINE SMOOTH",
"1341 665 OFFCURVE",
"1324 737 OFFCURVE",
"1291 782 CURVE SMOOTH",
"1254 833 OFFCURVE",
"1194 859 OFFCURVE",
"1113 859 CURVE SMOOTH",
"1032 859 OFFCURVE",
"958 824 OFFCURVE",
"891 755 CURVE SMOOTH",
"842 705 OFFCURVE",
"804 640 OFFCURVE",
"777 560 CURVE",
"777 -51 LINE",
"507 -51 LINE"
);
}
);
vertWidth = 2048;
width = 2048;
}
);
unicode = 045B;
},
{
color = 4;
glyphname = "dje-cy";
lastChange = "2022-04-07 18:21:36 +0000";
layers = (
{
background = {
paths = (
{
closed = 1;
nodes = (
"1044 -21 LINE",
"1266 -11 OFFCURVE",
"1341 28 OFFCURVE",
"1341 315 CURVE SMOOTH",
"1341 568 LINE SMOOTH",
"1341 665 OFFCURVE",
"1324 737 OFFCURVE",
"1291 782 CURVE SMOOTH",
"1254 833 OFFCURVE",
"1194 859 OFFCURVE",
"1113 859 CURVE SMOOTH",
"1032 859 OFFCURVE",
"958 824 OFFCURVE",
"891 755 CURVE SMOOTH",
"842 705 OFFCURVE",
"804 640 OFFCURVE",
"777 560 CURVE",
"777 -51 LINE",
"507 -51 LINE",
"507 1320 LINE",
"252 1320 LINE",
"252 1510 LINE",
"507 1510 LINE",
"507 1700 LINE",
"777 1700 LINE",
"777 1510 LINE",
"1268 1510 LINE",
"1268 1320 LINE",
"777 1320 LINE",
"777 852 LINE",
"877 1004 OFFCURVE",
"1013 1080 OFFCURVE",
"1185 1080 CURVE SMOOTH",
"1332 1080 OFFCURVE",
"1445 1031 OFFCURVE",
"1523 932 CURVE SMOOTH",
"1582 858 OFFCURVE",
"1611 748 OFFCURVE",
"1611 603 CURVE SMOOTH",
"1611 279 LINE SMOOTH",
"1607 -119 OFFCURVE",
"1480 -226 OFFCURVE",
"1134 -244 CURVE"
);
}
);
};
layerId = "4E782664-D0D5-4FED-AFC2-B9212141A2ED";
paths = (
{
closed = 1;
nodes = (
"1044 -21 LINE",
"1266 -11 OFFCURVE",
"1341 28 OFFCURVE",
"1341 315 CURVE SMOOTH",
"1341 568 LINE SMOOTH",
"1341 665 OFFCURVE",
"1324 737 OFFCURVE",
"1291 782 CURVE SMOOTH",
"1254 833 OFFCURVE",
"1194 859 OFFCURVE",
"1113 859 CURVE SMOOTH",
"1032 859 OFFCURVE",
"958 824 OFFCURVE",
"891 755 CURVE SMOOTH",
"842 705 OFFCURVE",
"804 640 OFFCURVE",
"777 560 CURVE",
"777 -51 LINE",
"507 -51 LINE",
"507 1320 LINE",
"252 1320 LINE",
"252 1510 LINE",
"507 1510 LINE",
"507 1700 LINE",
"777 1700 LINE",
"777 1510 LINE",
"1268 1510 LINE",
"1268 1320 LINE",
"777 1320 LINE",
"777 852 LINE",
"877 1004 OFFCURVE",
"1013 1080 OFFCURVE",
"1185 1080 CURVE SMOOTH",
"1332 1080 OFFCURVE",
"1445 1031 OFFCURVE",
"1523 932 CURVE SMOOTH",
"1582 858 OFFCURVE",
"1611 748 OFFCURVE",
"1611 603 CURVE SMOOTH",
"1611 279 LINE SMOOTH",
"1607 -119 OFFCURVE",
"1480 -226 OFFCURVE",
"1134 -244 CURVE"
);
}
);
vertWidth = 2048;
width = 2048;
}
);
unicode = 0452;
},
{
color = 4;
glyphname = Alphatonos;
lastChange = "2022-04-07 18:21:36 +0000";
layers = (
{
background = {
paths = (
{
closed = 1;
nodes = (
"388 1690 LINE",
"718 1690 LINE",
"450 1333 LINE",
"228 1333 LINE"
);
}
);
};
layerId = "4E782664-D0D5-4FED-AFC2-B9212141A2ED";
paths = (
{
closed = 1;
nodes = (
"891 1616 LINE",
"1157 1616 LINE",
"1805 -51 LINE",
"1518 -51 LINE",
"1348 403 LINE",
"701 403 LINE",
"531 -51 LINE",
"244 -51 LINE"
);
},
{
closed = 1;
nodes = (
"1276 618 LINE",
"1121 1040 LINE SMOOTH",
"1077 1159 OFFCURVE",
"1046 1263 OFFCURVE",
"1028 1354 CURVE",
"1020 1354 LINE",
"1003 1263 OFFCURVE",
"972 1159 OFFCURVE",
"928 1040 CURVE SMOOTH",
"772 618 LINE"
);
},
{
closed = 1;
nodes = (
"339 1608 LINE",
"663 1608 LINE",
"423 1170 LINE",
"223 1170 LINE"
);
}
);
vertWidth = 2048;
width = 2048;
}
);
unicode = 0386;
},
{
color = 4;
glyphname = Epsilontonos;
lastChange = "2022-04-07 18:21:36 +0000";
layers = (
{
layerId = "4E782664-D0D5-4FED-AFC2-B9212141A2ED";
paths = (
{
closed = 1;
nodes = (
"671 1608 LINE",
"1595 1608 LINE",
"1595 1385 LINE",
"933 1385 LINE",
"933 911 LINE",
"1495 911 LINE",
"1495 690 LINE",
"933 690 LINE",
"933 178 LINE",
"1624 178 LINE",
"1624 -51 LINE",
"671 -51 LINE"
);
},
{
closed = 1;
nodes = (
"239 1608 LINE",
"563 1608 LINE",
"323 1170 LINE",
"123 1170 LINE"
);
}
);
vertWidth = 2048;
width = 2048;
}
);
unicode = 0388;
},
{
color = 4;
glyphname = Etatonos;
lastChange = "2022-04-07 18:21:36 +0000";
layers = (
{
layerId = "4E782664-D0D5-4FED-AFC2-B9212141A2ED";
paths = (
{
closed = 1;
nodes = (
"650 1608 LINE",
"916 1608 LINE",
"916 920 LINE",
"1432 920 LINE",
"1432 1608 LINE",
"1698 1608 LINE",
"1698 -51 LINE",
"1432 -51 LINE",
"1432 697 LINE",
"916 697 LINE",
"916 -51 LINE",
"650 -51 LINE"
);
},
{
closed = 1;
nodes = (
"239 1608 LINE",
"563 1608 LINE",
"323 1170 LINE",
"123 1170 LINE"
);
}
);
vertWidth = 2048;
width = 2048;
}
);
unicode = 0389;
},
{
color = 4;
glyphname = Iotatonos;
lastChange = "2022-04-07 18:21:36 +0000";
layers = (
{
layerId = "4E782664-D0D5-4FED-AFC2-B9212141A2ED";
paths = (
{
closed = 1;
nodes = (
"676 1608 LINE",
"1372 1608 LINE",
"1372 1424 LINE",
"1159 1424 LINE",
"1159 133 LINE",
"1372 133 LINE",
"1372 -51 LINE",
"676 -51 LINE",
"676 133 LINE",
"889 133 LINE",
"889 1424 LINE",
"676 1424 LINE"
);
},
{
closed = 1;
nodes = (
"239 1608 LINE",
"563 1608 LINE",
"323 1170 LINE",
"123 1170 LINE"
);
}
);
vertWidth = 2048;
width = 2048;
}
);
unicode = 038A;
},
{
color = 4;
glyphname = Omicrontonos;
lastChange = "2022-04-07 18:21:36 +0000";
layers = (
{
layerId = "4E782664-D0D5-4FED-AFC2-B9212141A2ED";
paths = (
{
closed = 1;
nodes = (
"1552 1647 OFFCURVE",
"1835 1284 OFFCURVE",
"1835 783 CURVE SMOOTH",
"1835 280 OFFCURVE",
"1552 -90 OFFCURVE",
"1123 -90 CURVE SMOOTH",
"691 -90 OFFCURVE",
"413 282 OFFCURVE",
"413 783 CURVE SMOOTH",
"413 1285 OFFCURVE",
"689 1647 OFFCURVE",
"1128 1647 CURVE SMOOTH"
);
},
{
closed = 1;
nodes = (
"858 1430 OFFCURVE",
"702 1141 OFFCURVE",
"702 782 CURVE SMOOTH",
"702 425 OFFCURVE",
"854 135 OFFCURVE",
"1126 135 CURVE SMOOTH",
"1393 135 OFFCURVE",
"1546 420 OFFCURVE",
"1546 782 CURVE SMOOTH",
"1546 1141 OFFCURVE",
"1391 1430 OFFCURVE",
"1122 1430 CURVE SMOOTH"
);
},
{
closed = 1;
nodes = (
"239 1608 LINE",
"563 1608 LINE",
"323 1170 LINE",
"123 1170 LINE"
);
}
);
vertWidth = 2048;
width = 2048;
}
);
unicode = 038C;
},
{
color = 4;
glyphname = Upsilontonos;
lastChange = "2022-04-07 18:21:36 +0000";
layers = (
{
layerId = "4E782664-D0D5-4FED-AFC2-B9212141A2ED";
paths = (
{
closed = 1;
nodes = (
"1111 -51 LINE",
"1111 907 LINE SMOOTH",
"1111 1150 OFFCURVE",
"1048 1430 OFFCURVE",
"897 1430 CURVE SMOOTH",
"840 1430 OFFCURVE",
"786 1401 OFFCURVE",
"755 1349 CURVE",
"618 1513 LINE",
"687 1600 OFFCURVE",
"795 1647 OFFCURVE",
"904 1647 CURVE SMOOTH",
"1117 1647 OFFCURVE",
"1222 1459 OFFCURVE",
"1240 1212 CURVE",
"1248 1212 LINE",
"1282 1463 OFFCURVE",
"1365 1647 OFFCURVE",
"1581 1647 CURVE SMOOTH",
"1692 1647 OFFCURVE",
"1801 1600 OFFCURVE",
"1869 1513 CURVE",
"1732 1349 LINE",
"1701 1400 OFFCURVE",
"1644 1430 OFFCURVE",
"1588 1430 CURVE SMOOTH",
"1441 1430 OFFCURVE",
"1377 1152 OFFCURVE",
"1377 907 CURVE SMOOTH",
"1377 -51 LINE"
);
},
{
closed = 1;
nodes = (
"239 1608 LINE",
"563 1608 LINE",
"323 1170 LINE",
"123 1170 LINE"
);
}
);
vertWidth = 2048;
width = 2048;
}
);
unicode = 038E;
},
{
color = 4;
glyphname = Omegatonos;
lastChange = "2022-04-07 18:21:36 +0000";
layers = (
{
layerId = "4E782664-D0D5-4FED-AFC2-B9212141A2ED";
paths = (
{
closed = 1;
nodes = (
"800 174 LINE",
"800 256 LINE",
"579 381 OFFCURVE",
"454 609 OFFCURVE",
"454 915 CURVE SMOOTH",
"454 1347 OFFCURVE",
"736 1657 OFFCURVE",
"1124 1657 CURVE SMOOTH",
"1507 1657 OFFCURVE",
"1793 1348 OFFCURVE",
"1793 917 CURVE SMOOTH",
"1793 614 OFFCURVE",
"1671 385 OFFCURVE",
"1447 256 CURVE",
"1447 174 LINE",
"1820 174 LINE",
"1820 -51 LINE",
"1216 -51 LINE",
"1216 352 LINE",
"1408 443 OFFCURVE",
"1513 646 OFFCURVE",
"1513 915 CURVE SMOOTH",
"1513 1211 OFFCURVE",
"1363 1428 OFFCURVE",
"1124 1428 CURVE SMOOTH",
"892 1428 OFFCURVE",
"734 1220 OFFCURVE",
"734 915 CURVE SMOOTH",
"734 648 OFFCURVE",
"838 444 OFFCURVE",
"1032 352 CURVE",
"1032 -51 LINE",
"427 -51 LINE",
"427 174 LINE"
);
},
{
closed = 1;
nodes = (
"239 1608 LINE",
"563 1608 LINE",
"323 1170 LINE",
"123 1170 LINE"
);
}
);
vertWidth = 2048;
width = 2048;
}
);
unicode = 038F;
},
{
color = 4;
glyphname = Iotadieresis;
lastChange = "2022-04-07 18:21:36 +0000";
layers = (
{
background = {
paths = (
{
closed = 1;
nodes = (
"631 1315 LINE",
"631 119 LINE",
"799 119 LINE",
"799 -51 LINE",
"225 -51 LINE",
"225 119 LINE",
"393 119 LINE",
"393 1315 LINE",
"225 1315 LINE",
"225 1485 LINE",
"799 1485 LINE",
"799 1315 LINE"
);
},
{
closed = 1;
nodes = (
"379 1595 LINE",
"379 1800 LINE",
"645 1800 LINE",
"645 1595 LINE"
);
}
);
};
layerId = "4E782664-D0D5-4FED-AFC2-B9212141A2ED";
paths = (
{
closed = 1;
nodes = (
"676 1488 LINE",
"1372 1488 LINE",
"1372 1304 LINE",
"1159 1304 LINE",
"1159 133 LINE",
"1372 133 LINE",
"1372 -51 LINE",
"676 -51 LINE",
"676 133 LINE",
"889 133 LINE",
"889 1304 LINE",
"676 1304 LINE"
);
},
{
closed = 1;
nodes = (
"667 1800 LINE",
"933 1800 LINE",
"933 1595 LINE",
"667 1595 LINE"
);
},
{
closed = 1;
nodes = (
"1114 1800 LINE",
"1380 1800 LINE",
"1380 1595 LINE",
"1114 1595 LINE"
);
}
);
vertWidth = 2048;
width = 2048;
}
);
unicode = 03AA;
},
{
color = 4;
glyphname = Upsilondieresis;
lastChange = "2022-04-07 18:21:36 +0000";
layers = (
{
layerId = "4E782664-D0D5-4FED-AFC2-B9212141A2ED";
paths = (
{
closed = 1;
nodes = (
"891 -51 LINE",
"891 577 LINE SMOOTH",
"891 803 OFFCURVE",
"854 982 OFFCURVE",
"779 1113 CURVE SMOOTH",
"708 1238 OFFCURVE",
"620 1300 OFFCURVE",
"517 1300 CURVE SMOOTH",
"449 1300 OFFCURVE",
"391 1277 OFFCURVE",
"342 1231 CURVE SMOOTH",
"333 1223 OFFCURVE",
"324 1212 OFFCURVE",
"315 1199 CURVE",
"178 1363 LINE",
"205 1395 OFFCURVE",
"235 1422 OFFCURVE",
"269 1443 CURVE SMOOTH",
"347 1492 OFFCURVE",
"432 1517 OFFCURVE",
"524 1517 CURVE SMOOTH",
"639 1517 OFFCURVE",
"738 1478 OFFCURVE",
"822 1401 CURVE SMOOTH",
"936 1295 OFFCURVE",
"1002 1122 OFFCURVE",
"1020 882 CURVE",
"1028 882 LINE",
"1041 1021 OFFCURVE",
"1063 1130 OFFCURVE",
"1096 1209 CURVE SMOOTH",
"1137 1307 OFFCURVE",
"1194 1382 OFFCURVE",
"1267 1435 CURVE SMOOTH",
"1342 1490 OFFCURVE",
"1427 1517 OFFCURVE",
"1521 1517 CURVE SMOOTH",
"1612 1517 OFFCURVE",
"1696 1494 OFFCURVE",
"1772 1447 CURVE SMOOTH",
"1809 1425 OFFCURVE",
"1841 1397 OFFCURVE",
"1869 1363 CURVE",
"1732 1199 LINE",
"1715 1224 OFFCURVE",
"1694 1244 OFFCURVE",
"1669 1259 CURVE SMOOTH",
"1624 1286 OFFCURVE",
"1577 1300 OFFCURVE",
"1528 1300 CURVE SMOOTH",
"1455 1300 OFFCURVE",
"1387 1265 OFFCURVE",
"1325 1194 CURVE SMOOTH",
"1213 1065 OFFCURVE",
"1157 859 OFFCURVE",
"1157 577 CURVE SMOOTH",
"1157 -51 LINE"
);
},
{
closed = 1;
nodes = (
"667 1800 LINE",
"933 1800 LINE",
"933 1595 LINE",
"667 1595 LINE"
);
},
{
closed = 1;
nodes = (
"1114 1800 LINE",
"1380 1800 LINE",
"1380 1595 LINE",
"1114 1595 LINE"
);
}
);
vertWidth = 2048;
width = 2048;
}
);
unicode = 03AB;
},
{
color = 4;
glyphname = iotatonos;
lastChange = "2022-04-07 18:21:36 +0000";
layers = (
{
background = {
paths = (
{
closed = 1;
nodes = (
"1427 282 LINE",
"1284 34 OFFCURVE",
"1115 -90 OFFCURVE",
"920 -90 CURVE SMOOTH",
"811 -90 OFFCURVE",
"726 -56 OFFCURVE",
"665 12 CURVE SMOOTH",
"612 72 OFFCURVE",
"585 147 OFFCURVE",
"585 236 CURVE SMOOTH",
"585 296 OFFCURVE",
"600 366 OFFCURVE",
"629 445 CURVE SMOOTH",
"677 573 OFFCURVE",
"771 789 OFFCURVE",
"917 1089 CURVE SMOOTH",
"950 1157 LINE",
"1163 1157 LINE",
"1006 852 OFFCURVE",
"888 607 OFFCURVE",
"811 420 CURVE SMOOTH",
"782 349 OFFCURVE",
"768 293 OFFCURVE",
"768 251 CURVE SMOOTH",
"768 203 OFFCURVE",
"780 164 OFFCURVE",
"805 134 CURVE SMOOTH",
"834 98 OFFCURVE",
"873 80 OFFCURVE",
"924 80 CURVE SMOOTH",
"1051 80 OFFCURVE",
"1166 178 OFFCURVE",
"1269 375 CURVE"
);
},
{
closed = 1;
nodes = (
"1219 1802 LINE",
"1443 1802 LINE",
"1173 1364 LINE",
"1043 1364 LINE"
);
}
);
};
layerId = "4E782664-D0D5-4FED-AFC2-B9212141A2ED";
paths = (
{
closed = 1;
nodes = (
"1464 280 LINE",
"1390 165 OFFCURVE",
"1319 79 OFFCURVE",
"1252 22 CURVE SMOOTH",
"1152 -63 OFFCURVE",
"1041 -105 OFFCURVE",
"918 -105 CURVE SMOOTH",
"797 -105 OFFCURVE",
"702 -64 OFFCURVE",
"634 19 CURVE SMOOTH",
"585 78 OFFCURVE",
"561 149 OFFCURVE",
"561 232 CURVE SMOOTH",
"561 305 OFFCURVE",
"588 409 OFFCURVE",
"641 543 CURVE SMOOTH",
"690 666 OFFCURVE",
"783 871 OFFCURVE",
"920 1157 CURVE",
"1227 1157 LINE",
"952 662 OFFCURVE",
"815 362 OFFCURVE",
"815 259 CURVE SMOOTH",
"815 176 OFFCURVE",
"854 135 OFFCURVE",
"932 135 CURVE SMOOTH",
"1041 135 OFFCURVE",
"1144 226 OFFCURVE",
"1239 409 CURVE"
);
},
{
closed = 1;
nodes = (
"1209 1802 LINE",
"1533 1802 LINE",
"1233 1333 LINE",
"1033 1333 LINE"
);
}
);
vertWidth = 2048;
width = 2048;
}
);
unicode = 03AF;
},
{
color = 4;
glyphname = iotadieresis;
lastChange = "2022-04-07 18:21:36 +0000";
layers = (
{
background = {
paths = (
{
closed = 1;
nodes = (
"1427 282 LINE",
"1284 34 OFFCURVE",
"1115 -90 OFFCURVE",
"920 -90 CURVE SMOOTH",
"811 -90 OFFCURVE",
"726 -56 OFFCURVE",
"665 12 CURVE SMOOTH",
"612 72 OFFCURVE",
"585 147 OFFCURVE",
"585 236 CURVE SMOOTH",
"585 296 OFFCURVE",
"600 366 OFFCURVE",
"629 445 CURVE SMOOTH",
"677 573 OFFCURVE",
"771 789 OFFCURVE",
"917 1089 CURVE SMOOTH",
"950 1157 LINE",
"1163 1157 LINE",
"1006 852 OFFCURVE",
"888 607 OFFCURVE",
"811 420 CURVE SMOOTH",
"782 349 OFFCURVE",
"768 293 OFFCURVE",
"768 251 CURVE SMOOTH",
"768 203 OFFCURVE",
"780 164 OFFCURVE",
"805 134 CURVE SMOOTH",
"834 98 OFFCURVE",
"873 80 OFFCURVE",
"924 80 CURVE SMOOTH",
"1051 80 OFFCURVE",
"1166 178 OFFCURVE",
"1269 375 CURVE"
);
},
{
closed = 1;
nodes = (
"843 1561 LINE",
"1064 1561 LINE",
"1064 1340 LINE",
"843 1340 LINE"
);
},
{
closed = 1;
nodes = (
"1263 1561 LINE",
"1484 1561 LINE",
"1484 1340 LINE",
"1263 1340 LINE"
);
}
);
};
layerId = "4E782664-D0D5-4FED-AFC2-B9212141A2ED";
paths = (
{
closed = 1;
nodes = (
"1464 280 LINE",
"1390 165 OFFCURVE",
"1319 79 OFFCURVE",
"1252 22 CURVE SMOOTH",
"1152 -63 OFFCURVE",
"1041 -105 OFFCURVE",
"918 -105 CURVE SMOOTH",
"797 -105 OFFCURVE",
"702 -64 OFFCURVE",
"634 19 CURVE SMOOTH",
"585 78 OFFCURVE",
"561 149 OFFCURVE",
"561 232 CURVE SMOOTH",
"561 305 OFFCURVE",
"588 409 OFFCURVE",
"641 543 CURVE SMOOTH",
"690 666 OFFCURVE",
"783 871 OFFCURVE",
"920 1157 CURVE",
"1227 1157 LINE",
"952 662 OFFCURVE",
"815 362 OFFCURVE",
"815 259 CURVE SMOOTH",
"815 176 OFFCURVE",
"854 135 OFFCURVE",
"932 135 CURVE SMOOTH",
"1041 135 OFFCURVE",
"1144 226 OFFCURVE",
"1239 409 CURVE"
);
},
{
closed = 1;
nodes = (
"826 1599 LINE",
"1092 1599 LINE",
"1092 1333 LINE",
"826 1333 LINE"
);
},
{
closed = 1;
nodes = (
"1273 1599 LINE",
"1539 1599 LINE",
"1539 1333 LINE",
"1273 1333 LINE"
);
}
);
vertWidth = 2048;
width = 2048;
}
);
unicode = 03CA;
},
{
color = 4;
glyphname = iotadieresistonos;
lastChange = "2022-04-07 18:21:36 +0000";
layers = (
{
background = {
paths = (
{
closed = 1;
nodes = (
"1427 282 LINE",
"1284 34 OFFCURVE",
"1115 -90 OFFCURVE",
"920 -90 CURVE SMOOTH",
"811 -90 OFFCURVE",
"726 -56 OFFCURVE",
"665 12 CURVE SMOOTH",
"612 72 OFFCURVE",
"585 147 OFFCURVE",
"585 236 CURVE SMOOTH",
"585 296 OFFCURVE",
"600 366 OFFCURVE",
"629 445 CURVE SMOOTH",
"677 573 OFFCURVE",
"771 789 OFFCURVE",
"917 1089 CURVE SMOOTH",
"950 1157 LINE",
"1163 1157 LINE",
"1006 852 OFFCURVE",
"888 607 OFFCURVE",
"811 420 CURVE SMOOTH",
"782 349 OFFCURVE",
"768 293 OFFCURVE",
"768 251 CURVE SMOOTH",
"768 203 OFFCURVE",
"780 164 OFFCURVE",
"805 134 CURVE SMOOTH",
"834 98 OFFCURVE",
"873 80 OFFCURVE",
"924 80 CURVE SMOOTH",
"1051 80 OFFCURVE",
"1166 178 OFFCURVE",
"1269 375 CURVE"
);
},
{
closed = 1;
nodes = (
"1169 1802 LINE",
"1393 1802 LINE",
"1173 1340 LINE",
"1043 1340 LINE"
);
},
{
closed = 1;
nodes = (
"709 1561 LINE",
"930 1561 LINE",
"930 1340 LINE",
"709 1340 LINE"
);
},
{
closed = 1;
nodes = (
"1378 1561 LINE",
"1599 1561 LINE",
"1599 1340 LINE",
"1378 1340 LINE"
);
}
);
};
layerId = "4E782664-D0D5-4FED-AFC2-B9212141A2ED";
paths = (
{
closed = 1;
nodes = (
"1464 280 LINE",
"1390 165 OFFCURVE",
"1319 79 OFFCURVE",
"1252 22 CURVE SMOOTH",
"1152 -63 OFFCURVE",
"1041 -105 OFFCURVE",
"918 -105 CURVE SMOOTH",
"797 -105 OFFCURVE",
"702 -64 OFFCURVE",
"634 19 CURVE SMOOTH",
"585 78 OFFCURVE",
"561 149 OFFCURVE",
"561 232 CURVE SMOOTH",
"561 305 OFFCURVE",
"588 409 OFFCURVE",
"641 543 CURVE SMOOTH",
"690 666 OFFCURVE",
"783 871 OFFCURVE",
"920 1157 CURVE",
"1227 1157 LINE",
"952 662 OFFCURVE",
"815 362 OFFCURVE",
"815 259 CURVE SMOOTH",
"815 176 OFFCURVE",
"854 135 OFFCURVE",
"932 135 CURVE SMOOTH",
"1041 135 OFFCURVE",
"1144 226 OFFCURVE",
"1239 409 CURVE"
);
},
{
closed = 1;
nodes = (
"716 1599 LINE",
"982 1599 LINE",
"982 1333 LINE",
"716 1333 LINE"
);
},
{
closed = 1;
nodes = (
"1423 1599 LINE",
"1689 1599 LINE",
"1689 1333 LINE",
"1423 1333 LINE"
);
},
{
closed = 1;
nodes = (
"1199 1802 LINE",
"1523 1802 LINE",
"1223 1333 LINE",
"1023 1333 LINE"
);
}
);
vertWidth = 2048;
width = 2048;
}
);
unicode = 0390;
},
{
color = 4;
glyphname = upsilontonos;
lastChange = "2022-04-07 18:21:36 +0000";
layers = (
{
background = {
paths = (
{
closed = 1;
nodes = (
"295 954 LINE",
"447 1114 OFFCURVE",
"591 1194 OFFCURVE",
"726 1194 CURVE SMOOTH",
"785 1194 OFFCURVE",
"832 1178 OFFCURVE",
"867 1147 CURVE SMOOTH",
"908 1112 OFFCURVE",
"928 1061 OFFCURVE",
"928 995 CURVE SMOOTH",
"928 904 OFFCURVE",
"884 784 OFFCURVE",
"796 633 CURVE SMOOTH",
"709 482 OFFCURVE",
"665 364 OFFCURVE",
"665 277 CURVE SMOOTH",
"665 148 OFFCURVE",
"744 84 OFFCURVE",
"901 84 CURVE SMOOTH",
"1002 84 OFFCURVE",
"1097 116 OFFCURVE",
"1185 181 CURVE SMOOTH",
"1261 237 OFFCURVE",
"1321 309 OFFCURVE",
"1364 396 CURVE SMOOTH",
"1407 481 OFFCURVE",
"1428 573 OFFCURVE",
"1428 671 CURVE SMOOTH",
"1428 832 OFFCURVE",
"1379 981 OFFCURVE",
"1282 1118 CURVE",
"1450 1208 LINE",
"1562 1039 OFFCURVE",
"1618 863 OFFCURVE",
"1618 678 CURVE SMOOTH",
"1618 497 OFFCURVE",
"1558 331 OFFCURVE",
"1438 180 CURVE SMOOTH",
"1400 132 OFFCURVE",
"1356 90 OFFCURVE",
"1307 54 CURVE SMOOTH",
"1180 -41 OFFCURVE",
"1039 -88 OFFCURVE",
"884 -88 CURVE SMOOTH",
"771 -88 OFFCURVE",
"679 -62 OFFCURVE",
"608 -10 CURVE SMOOTH",
"521 54 OFFCURVE",
"477 145 OFFCURVE",
"477 264 CURVE SMOOTH",
"477 323 OFFCURVE",
"489 384 OFFCURVE",
"512 449 CURVE SMOOTH",
"531 500 OFFCURVE",
"564 566 OFFCURVE",
"613 648 CURVE SMOOTH",
"700 794 OFFCURVE",
"744 900 OFFCURVE",
"744 967 CURVE SMOOTH",
"744 1014 OFFCURVE",
"721 1038 OFFCURVE",
"676 1038 CURVE SMOOTH",
"603 1038 OFFCURVE",
"508 962 OFFCURVE",
"391 811 CURVE"
);
},
{
closed = 1;
nodes = (
"1279 1802 LINE",
"1503 1802 LINE",
"1233 1364 LINE",
"1103 1364 LINE"
);
}
);
};
layerId = "4E782664-D0D5-4FED-AFC2-B9212141A2ED";
paths = (
{
closed = 1;
nodes = (
"276 956 LINE",
"443 1125 OFFCURVE",
"598 1210 OFFCURVE",
"739 1210 CURVE SMOOTH",
"796 1210 OFFCURVE",
"844 1196 OFFCURVE",
"882 1167 CURVE SMOOTH",
"937 1126 OFFCURVE",
"964 1067 OFFCURVE",
"964 990 CURVE SMOOTH",
"964 896 OFFCURVE",
"918 768 OFFCURVE",
"827 606 CURVE SMOOTH",
"749 468 OFFCURVE",
"710 363 OFFCURVE",
"710 292 CURVE SMOOTH",
"710 237 OFFCURVE",
"729 198 OFFCURVE",
"767 175 CURVE SMOOTH",
"800 156 OFFCURVE",
"849 146 OFFCURVE",
"914 146 CURVE SMOOTH",
"1024 146 OFFCURVE",
"1120 182 OFFCURVE",
"1203 254 CURVE SMOOTH",
"1265 308 OFFCURVE",
"1311 375 OFFCURVE",
"1342 455 CURVE SMOOTH",
"1367 521 OFFCURVE",
"1380 589 OFFCURVE",
"1380 658 CURVE SMOOTH",
"1380 809 OFFCURVE",
"1328 950 OFFCURVE",
"1224 1083 CURVE",
"1458 1212 LINE",
"1581 1044 OFFCURVE",
"1642 865 OFFCURVE",
"1642 676 CURVE SMOOTH",
"1642 553 OFFCURVE",
"1612 432 OFFCURVE",
"1551 313 CURVE SMOOTH",
"1491 195 OFFCURVE",
"1410 101 OFFCURVE",
"1309 31 CURVE SMOOTH",
"1188 -54 OFFCURVE",
"1048 -96 OFFCURVE",
"890 -96 CURVE SMOOTH",
"792 -96 OFFCURVE",
"707 -76 OFFCURVE",
"635 -37 CURVE SMOOTH",
"592 -14 OFFCURVE",
"556 16 OFFCURVE",
"527 51 CURVE SMOOTH",
"476 114 OFFCURVE",
"450 187 OFFCURVE",
"450 270 CURVE SMOOTH",
"450 365 OFFCURVE",
"490 480 OFFCURVE",
"569 615 CURVE SMOOTH",
"664 779 OFFCURVE",
"712 886 OFFCURVE",
"712 935 CURVE SMOOTH",
"712 971 OFFCURVE",
"694 989 OFFCURVE",
"658 989 CURVE SMOOTH",
"633 989 OFFCURVE",
"602 973 OFFCURVE",
"563 941 CURVE SMOOTH",
"516 902 OFFCURVE",
"466 842 OFFCURVE",
"415 762 CURVE"
);
},
{
closed = 1;
nodes = (
"1229 1802 LINE",
"1553 1802 LINE",
"1253 1333 LINE",
"1053 1333 LINE"
);
}
);
vertWidth = 2048;
width = 2048;
}
);
unicode = 03CD;
},
{
color = 4;
glyphname = upsilondieresis;
lastChange = "2022-04-07 18:21:36 +0000";
layers = (
{
background = {
paths = (
{
closed = 1;
nodes = (
"295 954 LINE",
"447 1114 OFFCURVE",
"591 1194 OFFCURVE",
"726 1194 CURVE SMOOTH",
"785 1194 OFFCURVE",
"832 1178 OFFCURVE",
"867 1147 CURVE SMOOTH",
"908 1112 OFFCURVE",
"928 1061 OFFCURVE",
"928 995 CURVE SMOOTH",
"928 904 OFFCURVE",
"884 784 OFFCURVE",
"796 633 CURVE SMOOTH",
"709 482 OFFCURVE",
"665 364 OFFCURVE",
"665 277 CURVE SMOOTH",
"665 148 OFFCURVE",
"744 84 OFFCURVE",
"901 84 CURVE SMOOTH",
"1002 84 OFFCURVE",
"1097 116 OFFCURVE",
"1185 181 CURVE SMOOTH",
"1261 237 OFFCURVE",
"1321 309 OFFCURVE",
"1364 396 CURVE SMOOTH",
"1407 481 OFFCURVE",
"1428 573 OFFCURVE",
"1428 671 CURVE SMOOTH",
"1428 832 OFFCURVE",
"1379 981 OFFCURVE",
"1282 1118 CURVE",
"1450 1208 LINE",
"1562 1039 OFFCURVE",
"1618 863 OFFCURVE",
"1618 678 CURVE SMOOTH",
"1618 497 OFFCURVE",
"1558 331 OFFCURVE",
"1438 180 CURVE SMOOTH",
"1400 132 OFFCURVE",
"1356 90 OFFCURVE",
"1307 54 CURVE SMOOTH",
"1180 -41 OFFCURVE",
"1039 -88 OFFCURVE",
"884 -88 CURVE SMOOTH",
"771 -88 OFFCURVE",
"679 -62 OFFCURVE",
"608 -10 CURVE SMOOTH",
"521 54 OFFCURVE",
"477 145 OFFCURVE",
"477 264 CURVE SMOOTH",
"477 323 OFFCURVE",
"489 384 OFFCURVE",
"512 449 CURVE SMOOTH",
"531 500 OFFCURVE",
"564 566 OFFCURVE",
"613 648 CURVE SMOOTH",
"700 794 OFFCURVE",
"744 900 OFFCURVE",
"744 967 CURVE SMOOTH",
"744 1014 OFFCURVE",
"721 1038 OFFCURVE",
"676 1038 CURVE SMOOTH",
"603 1038 OFFCURVE",
"508 962 OFFCURVE",
"391 811 CURVE"
);
},
{
closed = 1;
nodes = (
"888 1561 LINE",
"1109 1561 LINE",
"1109 1340 LINE",
"888 1340 LINE"
);
},
{
closed = 1;
nodes = (
"1308 1561 LINE",
"1529 1561 LINE",
"1529 1340 LINE",
"1308 1340 LINE"
);
}
);
};
layerId = "4E782664-D0D5-4FED-AFC2-B9212141A2ED";
paths = (
{
closed = 1;
nodes = (
"276 956 LINE",
"443 1125 OFFCURVE",
"598 1210 OFFCURVE",
"739 1210 CURVE SMOOTH",
"796 1210 OFFCURVE",
"844 1196 OFFCURVE",
"882 1167 CURVE SMOOTH",
"937 1126 OFFCURVE",
"964 1067 OFFCURVE",
"964 990 CURVE SMOOTH",
"964 896 OFFCURVE",
"918 768 OFFCURVE",
"827 606 CURVE SMOOTH",
"749 468 OFFCURVE",
"710 363 OFFCURVE",
"710 292 CURVE SMOOTH",
"710 237 OFFCURVE",
"729 198 OFFCURVE",
"767 175 CURVE SMOOTH",
"800 156 OFFCURVE",
"849 146 OFFCURVE",
"914 146 CURVE SMOOTH",
"1024 146 OFFCURVE",
"1120 182 OFFCURVE",
"1203 254 CURVE SMOOTH",
"1265 308 OFFCURVE",
"1311 375 OFFCURVE",
"1342 455 CURVE SMOOTH",
"1367 521 OFFCURVE",
"1380 589 OFFCURVE",
"1380 658 CURVE SMOOTH",
"1380 809 OFFCURVE",
"1328 950 OFFCURVE",
"1224 1083 CURVE",
"1458 1212 LINE",
"1581 1044 OFFCURVE",
"1642 865 OFFCURVE",
"1642 676 CURVE SMOOTH",
"1642 553 OFFCURVE",
"1612 432 OFFCURVE",
"1551 313 CURVE SMOOTH",
"1491 195 OFFCURVE",
"1410 101 OFFCURVE",
"1309 31 CURVE SMOOTH",
"1188 -54 OFFCURVE",
"1048 -96 OFFCURVE",
"890 -96 CURVE SMOOTH",
"792 -96 OFFCURVE",
"707 -76 OFFCURVE",
"635 -37 CURVE SMOOTH",
"592 -14 OFFCURVE",
"556 16 OFFCURVE",
"527 51 CURVE SMOOTH",
"476 114 OFFCURVE",
"450 187 OFFCURVE",
"450 270 CURVE SMOOTH",
"450 365 OFFCURVE",
"490 480 OFFCURVE",
"569 615 CURVE SMOOTH",
"664 779 OFFCURVE",
"712 886 OFFCURVE",
"712 935 CURVE SMOOTH",
"712 971 OFFCURVE",
"694 989 OFFCURVE",
"658 989 CURVE SMOOTH",
"633 989 OFFCURVE",
"602 973 OFFCURVE",
"563 941 CURVE SMOOTH",
"516 902 OFFCURVE",
"466 842 OFFCURVE",
"415 762 CURVE"
);
},
{
closed = 1;
nodes = (
"851 1599 LINE",
"1117 1599 LINE",
"1117 1333 LINE",
"851 1333 LINE"
);
},
{
closed = 1;
nodes = (
"1298 1599 LINE",
"1564 1599 LINE",
"1564 1333 LINE",
"1298 1333 LINE"
);
}
);
vertWidth = 2048;
width = 2048;
}
);
unicode = 03CB;
},
{
color = 4;
glyphname = upsilondieresistonos;
lastChange = "2022-04-07 18:21:36 +0000";
layers = (
{
background = {
paths = (
{
closed = 1;
nodes = (
"295 954 LINE",
"447 1114 OFFCURVE",
"591 1194 OFFCURVE",
"726 1194 CURVE SMOOTH",
"785 1194 OFFCURVE",
"832 1178 OFFCURVE",
"867 1147 CURVE SMOOTH",
"908 1112 OFFCURVE",
"928 1061 OFFCURVE",
"928 995 CURVE SMOOTH",
"928 904 OFFCURVE",
"884 784 OFFCURVE",
"796 633 CURVE SMOOTH",
"709 482 OFFCURVE",
"665 364 OFFCURVE",
"665 277 CURVE SMOOTH",
"665 148 OFFCURVE",
"744 84 OFFCURVE",
"901 84 CURVE SMOOTH",
"1002 84 OFFCURVE",
"1097 116 OFFCURVE",
"1185 181 CURVE SMOOTH",
"1261 237 OFFCURVE",
"1321 309 OFFCURVE",
"1364 396 CURVE SMOOTH",
"1407 481 OFFCURVE",
"1428 573 OFFCURVE",
"1428 671 CURVE SMOOTH",
"1428 832 OFFCURVE",
"1379 981 OFFCURVE",
"1282 1118 CURVE",
"1450 1208 LINE",
"1562 1039 OFFCURVE",
"1618 863 OFFCURVE",
"1618 678 CURVE SMOOTH",
"1618 497 OFFCURVE",
"1558 331 OFFCURVE",
"1438 180 CURVE SMOOTH",
"1400 132 OFFCURVE",
"1356 90 OFFCURVE",
"1307 54 CURVE SMOOTH",
"1180 -41 OFFCURVE",
"1039 -88 OFFCURVE",
"884 -88 CURVE SMOOTH",
"771 -88 OFFCURVE",
"679 -62 OFFCURVE",
"608 -10 CURVE SMOOTH",
"521 54 OFFCURVE",
"477 145 OFFCURVE",
"477 264 CURVE SMOOTH",
"477 323 OFFCURVE",
"489 384 OFFCURVE",
"512 449 CURVE SMOOTH",
"531 500 OFFCURVE",
"564 566 OFFCURVE",
"613 648 CURVE SMOOTH",
"700 794 OFFCURVE",
"744 900 OFFCURVE",
"744 967 CURVE SMOOTH",
"744 1014 OFFCURVE",
"721 1038 OFFCURVE",
"676 1038 CURVE SMOOTH",
"603 1038 OFFCURVE",
"508 962 OFFCURVE",
"391 811 CURVE"
);
},
{
closed = 1;
nodes = (
"1229 1802 LINE",
"1453 1802 LINE",
"1233 1340 LINE",
"1103 1340 LINE"
);
},
{
closed = 1;
nodes = (
"769 1561 LINE",
"990 1561 LINE",
"990 1340 LINE",
"769 1340 LINE"
);
},
{
closed = 1;
nodes = (
"1438 1561 LINE",
"1659 1561 LINE",
"1659 1340 LINE",
"1438 1340 LINE"
);
}
);
};
layerId = "4E782664-D0D5-4FED-AFC2-B9212141A2ED";
paths = (
{
closed = 1;
nodes = (
"276 956 LINE",
"443 1125 OFFCURVE",
"598 1210 OFFCURVE",
"739 1210 CURVE SMOOTH",
"796 1210 OFFCURVE",
"844 1196 OFFCURVE",
"882 1167 CURVE SMOOTH",
"937 1126 OFFCURVE",
"964 1067 OFFCURVE",
"964 990 CURVE SMOOTH",
"964 896 OFFCURVE",
"918 768 OFFCURVE",
"827 606 CURVE SMOOTH",
"749 468 OFFCURVE",
"710 363 OFFCURVE",
"710 292 CURVE SMOOTH",
"710 237 OFFCURVE",
"729 198 OFFCURVE",
"767 175 CURVE SMOOTH",
"800 156 OFFCURVE",
"849 146 OFFCURVE",
"914 146 CURVE SMOOTH",
"1024 146 OFFCURVE",
"1120 182 OFFCURVE",
"1203 254 CURVE SMOOTH",
"1265 308 OFFCURVE",
"1311 375 OFFCURVE",
"1342 455 CURVE SMOOTH",
"1367 521 OFFCURVE",
"1380 589 OFFCURVE",
"1380 658 CURVE SMOOTH",
"1380 809 OFFCURVE",
"1328 950 OFFCURVE",
"1224 1083 CURVE",
"1458 1212 LINE",
"1581 1044 OFFCURVE",
"1642 865 OFFCURVE",
"1642 676 CURVE SMOOTH",
"1642 553 OFFCURVE",
"1612 432 OFFCURVE",
"1551 313 CURVE SMOOTH",
"1491 195 OFFCURVE",
"1410 101 OFFCURVE",
"1309 31 CURVE SMOOTH",
"1188 -54 OFFCURVE",
"1048 -96 OFFCURVE",
"890 -96 CURVE SMOOTH",
"792 -96 OFFCURVE",
"707 -76 OFFCURVE",
"635 -37 CURVE SMOOTH",
"592 -14 OFFCURVE",
"556 16 OFFCURVE",
"527 51 CURVE SMOOTH",
"476 114 OFFCURVE",
"450 187 OFFCURVE",
"450 270 CURVE SMOOTH",
"450 365 OFFCURVE",
"490 480 OFFCURVE",
"569 615 CURVE SMOOTH",
"664 779 OFFCURVE",
"712 886 OFFCURVE",
"712 935 CURVE SMOOTH",
"712 971 OFFCURVE",
"694 989 OFFCURVE",
"658 989 CURVE SMOOTH",
"633 989 OFFCURVE",
"602 973 OFFCURVE",
"563 941 CURVE SMOOTH",
"516 902 OFFCURVE",
"466 842 OFFCURVE",
"415 762 CURVE"
);
},
{
closed = 1;
nodes = (
"750 1599 LINE",
"1016 1599 LINE",
"1016 1333 LINE",
"750 1333 LINE"
);
},
{
closed = 1;
nodes = (
"1457 1599 LINE",
"1723 1599 LINE",
"1723 1333 LINE",
"1457 1333 LINE"
);
},
{
closed = 1;
nodes = (
"1233 1802 LINE",
"1557 1802 LINE",
"1257 1333 LINE",
"1057 1333 LINE"
);
}
);
vertWidth = 2048;
width = 2048;
}
);
unicode = 03B0;
},
{
color = 4;
glyphname = omicrontonos;
lastChange = "2022-04-07 18:21:36 +0000";
layers = (
{
background = {
paths = (
{
closed = 1;
nodes = (
"1268 1194 OFFCURVE",
"1389 1140 OFFCURVE",
"1475 1032 CURVE SMOOTH",
"1544 945 OFFCURVE",
"1579 832 OFFCURVE",
"1579 693 CURVE SMOOTH",
"1579 496 OFFCURVE",
"1525 323 OFFCURVE",
"1416 173 CURVE SMOOTH",
"1289 -2 OFFCURVE",
"1127 -90 OFFCURVE",
"931 -90 CURVE SMOOTH",
"786 -90 OFFCURVE",
"670 -41 OFFCURVE",
"581 57 CURVE SMOOTH",
"498 148 OFFCURVE",
"457 266 OFFCURVE",
"457 411 CURVE SMOOTH",
"457 578 OFFCURVE",
"500 731 OFFCURVE",
"587 872 CURVE SMOOTH",
"667 1003 OFFCURVE",
"769 1095 OFFCURVE",
"893 1148 CURVE SMOOTH",
"962 1179 OFFCURVE",
"1035 1194 OFFCURVE",
"1112 1194 CURVE SMOOTH"
);
},
{
closed = 1;
nodes = (
"1018 1034 OFFCURVE",
"935 999 OFFCURVE",
"858 928 CURVE SMOOTH",
"798 873 OFFCURVE",
"749 805 OFFCURVE",
"712 723 CURVE SMOOTH",
"667 624 OFFCURVE",
"645 520 OFFCURVE",
"645 412 CURVE SMOOTH",
"645 331 OFFCURVE",
"660 264 OFFCURVE",
"689 209 CURVE SMOOTH",
"738 118 OFFCURVE",
"818 72 OFFCURVE",
"927 72 CURVE SMOOTH",
"1037 72 OFFCURVE",
"1134 119 OFFCURVE",
"1219 212 CURVE SMOOTH",
"1332 336 OFFCURVE",
"1389 496 OFFCURVE",
"1389 692 CURVE SMOOTH",
"1389 805 OFFCURVE",
"1363 891 OFFCURVE",
"1310 950 CURVE SMOOTH",
"1260 1006 OFFCURVE",
"1192 1034 OFFCURVE",
"1106 1034 CURVE SMOOTH"
);
},
{
closed = 1;
nodes = (
"1319 1802 LINE",
"1543 1802 LINE",
"1273 1364 LINE",
"1143 1364 LINE"
);
}
);
};
layerId = "4E782664-D0D5-4FED-AFC2-B9212141A2ED";
paths = (
{
closed = 1;
nodes = (
"1276 1210 OFFCURVE",
"1401 1153 OFFCURVE",
"1491 1038 CURVE SMOOTH",
"1564 945 OFFCURVE",
"1601 824 OFFCURVE",
"1601 676 CURVE SMOOTH",
"1601 489 OFFCURVE",
"1550 323 OFFCURVE",
"1449 178 CURVE SMOOTH",
"1390 93 OFFCURVE",
"1318 26 OFFCURVE",
"1234 -23 CURVE SMOOTH",
"1142 -77 OFFCURVE",
"1043 -104 OFFCURVE",
"936 -104 CURVE SMOOTH",
"774 -104 OFFCURVE",
"647 -48 OFFCURVE",
"555 63 CURVE SMOOTH",
"478 156 OFFCURVE",
"440 277 OFFCURVE",
"440 424 CURVE SMOOTH",
"440 577 OFFCURVE",
"479 721 OFFCURVE",
"557 856 CURVE SMOOTH",
"644 1005 OFFCURVE",
"758 1109 OFFCURVE",
"899 1167 CURVE SMOOTH",
"968 1196 OFFCURVE",
"1041 1210 OFFCURVE",
"1116 1210 CURVE SMOOTH"
);
},
{
closed = 1;
nodes = (
"1039 989 OFFCURVE",
"969 961 OFFCURVE",
"902 904 CURVE SMOOTH",
"845 856 OFFCURVE",
"798 795 OFFCURVE",
"762 720 CURVE SMOOTH",
"717 627 OFFCURVE",
"694 529 OFFCURVE",
"694 426 CURVE SMOOTH",
"694 355 OFFCURVE",
"707 294 OFFCURVE",
"734 243 CURVE SMOOTH",
"778 160 OFFCURVE",
"846 119 OFFCURVE",
"938 119 CURVE SMOOTH",
"1024 119 OFFCURVE",
"1104 157 OFFCURVE",
"1177 234 CURVE SMOOTH",
"1228 287 OFFCURVE",
"1268 352 OFFCURVE",
"1297 427 CURVE SMOOTH",
"1328 507 OFFCURVE",
"1343 590 OFFCURVE",
"1343 677 CURVE SMOOTH",
"1343 768 OFFCURVE",
"1325 840 OFFCURVE",
"1290 894 CURVE SMOOTH",
"1249 957 OFFCURVE",
"1189 989 OFFCURVE",
"1112 989 CURVE SMOOTH"
);
},
{
closed = 1;
nodes = (
"1279 1802 LINE",
"1603 1802 LINE",
"1303 1333 LINE",
"1103 1333 LINE"
);
}
);
vertWidth = 2048;
width = 2048;
}
);
unicode = 03CC;
},
{
color = 4;
glyphname = omegatonos;
lastChange = "2022-04-07 18:21:36 +0000";
layers = (
{
background = {
paths = (
{
closed = 1;
nodes = (
"1581 1190 LINE",
"1734 1027 OFFCURVE",
"1811 831 OFFCURVE",
"1811 602 CURVE SMOOTH",
"1811 417 OFFCURVE",
"1767 261 OFFCURVE",
"1680 132 CURVE SMOOTH",
"1581 -13 OFFCURVE",
"1456 -86 OFFCURVE",
"1304 -86 CURVE SMOOTH",
"1137 -86 OFFCURVE",
"1023 10 OFFCURVE",
"961 201 CURVE",
"852 10 OFFCURVE",
"721 -86 OFFCURVE",
"566 -86 CURVE SMOOTH",
"448 -86 OFFCURVE",
"355 -36 OFFCURVE",
"288 65 CURVE SMOOTH",
"235 144 OFFCURVE",
"209 245 OFFCURVE",
"209 367 CURVE SMOOTH",
"209 574 OFFCURVE",
"279 765 OFFCURVE",
"420 942 CURVE SMOOTH",
"484 1023 OFFCURVE",
"571 1106 OFFCURVE",
"680 1192 CURVE",
"795 1065 LINE",
"528 864 OFFCURVE",
"395 634 OFFCURVE",
"395 373 CURVE SMOOTH",
"395 304 OFFCURVE",
"406 246 OFFCURVE",
"427 199 CURVE SMOOTH",
"460 125 OFFCURVE",
"510 88 OFFCURVE",
"578 88 CURVE SMOOTH",
"711 88 OFFCURVE",
"827 190 OFFCURVE",
"926 393 CURVE",
"924 424 OFFCURVE",
"923 451 OFFCURVE",
"923 474 CURVE SMOOTH",
"923 631 OFFCURVE",
"953 749 OFFCURVE",
"1012 828 CURVE SMOOTH",
"1035 859 OFFCURVE",
"1058 874 OFFCURVE",
"1082 874 CURVE SMOOTH",
"1129 874 OFFCURVE",
"1153 819 OFFCURVE",
"1153 708 CURVE SMOOTH",
"1153 599 OFFCURVE",
"1122 488 OFFCURVE",
"1061 375 CURVE",
"1095 184 OFFCURVE",
"1175 88 OFFCURVE",
"1302 88 CURVE SMOOTH",
"1385 88 OFFCURVE",
"1458 131 OFFCURVE",
"1519 218 CURVE SMOOTH",
"1590 316 OFFCURVE",
"1625 445 OFFCURVE",
"1625 606 CURVE SMOOTH",
"1625 744 OFFCURVE",
"1597 862 OFFCURVE",
"1541 961 CURVE SMOOTH",
"1518 1001 OFFCURVE",
"1487 1043 OFFCURVE",
"1448 1087 CURVE"
);
},
{
closed = 1;
nodes = (
"1289 1802 LINE",
"1513 1802 LINE",
"1243 1364 LINE",
"1113 1364 LINE"
);
}
);
};
layerId = "4E782664-D0D5-4FED-AFC2-B9212141A2ED";
paths = (
{
closed = 1;
nodes = (
"1618 1190 LINE",
"1693 1105 OFFCURVE",
"1746 1017 OFFCURVE",
"1777 924 CURVE SMOOTH",
"1807 835 OFFCURVE",
"1822 731 OFFCURVE",
"1822 612 CURVE SMOOTH",
"1822 393 OFFCURVE",
"1760 214 OFFCURVE",
"1637 76 CURVE SMOOTH",
"1537 -36 OFFCURVE",
"1424 -92 OFFCURVE",
"1299 -92 CURVE SMOOTH",
"1134 -92 OFFCURVE",
"1019 -7 OFFCURVE",
"952 162 CURVE",
"846 -7 OFFCURVE",
"718 -92 OFFCURVE",
"568 -92 CURVE SMOOTH",
"435 -92 OFFCURVE",
"333 -37 OFFCURVE",
"263 72 CURVE SMOOTH",
"212 151 OFFCURVE",
"186 251 OFFCURVE",
"186 371 CURVE SMOOTH",
"186 588 OFFCURVE",
"253 781 OFFCURVE",
"386 951 CURVE SMOOTH",
"447 1028 OFFCURVE",
"530 1108 OFFCURVE",
"635 1192 CURVE",
"796 1030 LINE",
"559 848 OFFCURVE",
"440 634 OFFCURVE",
"440 388 CURVE SMOOTH",
"440 317 OFFCURVE",
"453 261 OFFCURVE",
"478 219 CURVE SMOOTH",
"504 176 OFFCURVE",
"541 154 OFFCURVE",
"589 154 CURVE SMOOTH",
"645 154 OFFCURVE",
"701 176 OFFCURVE",
"757 221 CURVE SMOOTH",
"813 266 OFFCURVE",
"862 332 OFFCURVE",
"905 420 CURVE",
"901 454 OFFCURVE",
"899 484 OFFCURVE",
"899 510 CURVE SMOOTH",
"899 647 OFFCURVE",
"929 752 OFFCURVE",
"988 826 CURVE SMOOTH",
"1018 863 OFFCURVE",
"1051 881 OFFCURVE",
"1086 881 CURVE SMOOTH",
"1151 881 OFFCURVE",
"1183 823 OFFCURVE",
"1183 707 CURVE SMOOTH",
"1183 600 OFFCURVE",
"1155 499 OFFCURVE",
"1099 403 CURVE",
"1118 237 OFFCURVE",
"1180 154 OFFCURVE",
"1286 154 CURVE SMOOTH",
"1349 154 OFFCURVE",
"1407 186 OFFCURVE",
"1458 249 CURVE SMOOTH",
"1533 340 OFFCURVE",
"1570 463 OFFCURVE",
"1570 617 CURVE SMOOTH",
"1570 790 OFFCURVE",
"1524 935 OFFCURVE",
"1431 1053 CURVE"
);
},
{
closed = 1;
nodes = (
"1249 1802 LINE",
"1573 1802 LINE",
"1273 1333 LINE",
"1073 1333 LINE"
);
}
);
vertWidth = 2048;
width = 2048;
}
);
unicode = 03CE;
},
{
color = 4;
glyphname = alphatonos;
lastChange = "2022-04-07 18:21:36 +0000";
layers = (
{
background = {
paths = (
{
closed = 1;
nodes = (
"1732 174 LINE",
"1659 -2 OFFCURVE",
"1557 -90 OFFCURVE",
"1427 -90 CURVE SMOOTH",
"1345 -90 OFFCURVE",
"1283 -56 OFFCURVE",
"1240 11 CURVE SMOOTH",
"1207 63 OFFCURVE",
"1182 141 OFFCURVE",
"1165 244 CURVE",
"1085 147 OFFCURVE",
"1010 74 OFFCURVE",
"939 23 CURVE SMOOTH",
"834 -52 OFFCURVE",
"726 -90 OFFCURVE",
"614 -90 CURVE SMOOTH",
"501 -90 OFFCURVE",
"415 -49 OFFCURVE",
"354 33 CURVE SMOOTH",
"302 103 OFFCURVE",
"276 193 OFFCURVE",
"276 302 CURVE SMOOTH",
"276 513 OFFCURVE",
"352 714 OFFCURVE",
"503 906 CURVE SMOOTH",
"654 1098 OFFCURVE",
"815 1194 OFFCURVE",
"987 1194 CURVE SMOOTH",
"1100 1194 OFFCURVE",
"1180 1142 OFFCURVE",
"1227 1037 CURVE SMOOTH",
"1263 956 OFFCURVE",
"1283 830 OFFCURVE",
"1288 659 CURVE",
"1385 809 OFFCURVE",
"1469 975 OFFCURVE",
"1538 1157 CURVE",
"1734 1157 LINE",
"1613 874 OFFCURVE",
"1472 626 OFFCURVE",
"1310 412 CURVE",
"1320 296 OFFCURVE",
"1334 213 OFFCURVE",
"1353 162 CURVE SMOOTH",
"1374 107 OFFCURVE",
"1403 80 OFFCURVE",
"1440 80 CURVE SMOOTH",
"1510 80 OFFCURVE",
"1568 152 OFFCURVE",
"1613 295 CURVE"
);
},
{
closed = 1;
nodes = (
"1134 600 OFFCURVE",
"1124 738 OFFCURVE",
"1104 865 CURVE SMOOTH",
"1100 891 OFFCURVE",
"1092 915 OFFCURVE",
"1081 938 CURVE SMOOTH",
"1052 995 OFFCURVE",
"1008 1024 OFFCURVE",
"948 1024 CURVE SMOOTH",
"869 1024 OFFCURVE",
"786 976 OFFCURVE",
"697 879 CURVE SMOOTH",
"606 781 OFFCURVE",
"541 666 OFFCURVE",
"501 535 CURVE SMOOTH",
"480 464 OFFCURVE",
"469 396 OFFCURVE",
"469 330 CURVE SMOOTH",
"469 261 OFFCURVE",
"481 206 OFFCURVE",
"504 163 CURVE SMOOTH",
"535 108 OFFCURVE",
"580 80 OFFCURVE",
"641 80 CURVE SMOOTH",
"728 80 OFFCURVE",
"818 120 OFFCURVE",
"913 199 CURVE SMOOTH",
"962 240 OFFCURVE",
"1011 293 OFFCURVE",
"1062 356 CURVE SMOOTH",
"1110 415 OFFCURVE",
"1134 447 OFFCURVE",
"1134 452 CURVE SMOOTH"
);
},
{
closed = 1;
nodes = (
"1219 1802 LINE",
"1443 1802 LINE",
"1173 1364 LINE",
"1043 1364 LINE"
);
}
);
};
layerId = "4E782664-D0D5-4FED-AFC2-B9212141A2ED";
paths = (
{
closed = 1;
nodes = (
"1751 180 LINE",
"1710 95 OFFCURVE",
"1662 28 OFFCURVE",
"1608 -21 CURVE SMOOTH",
"1545 -77 OFFCURVE",
"1481 -105 OFFCURVE",
"1415 -105 CURVE SMOOTH",
"1274 -105 OFFCURVE",
"1184 -4 OFFCURVE",
"1143 199 CURVE",
"1071 116 OFFCURVE",
"1005 53 OFFCURVE",
"944 9 CURVE SMOOTH",
"840 -67 OFFCURVE",
"733 -105 OFFCURVE",
"622 -105 CURVE SMOOTH",
"511 -105 OFFCURVE",
"423 -65 OFFCURVE",
"356 14 CURVE SMOOTH",
"291 91 OFFCURVE",
"258 190 OFFCURVE",
"258 311 CURVE SMOOTH",
"258 426 OFFCURVE",
"286 545 OFFCURVE",
"342 668 CURVE SMOOTH",
"423 849 OFFCURVE",
"535 991 OFFCURVE",
"678 1094 CURVE SMOOTH",
"785 1171 OFFCURVE",
"892 1210 OFFCURVE",
"998 1210 CURVE SMOOTH",
"1113 1210 OFFCURVE",
"1198 1158 OFFCURVE",
"1251 1054 CURVE SMOOTH",
"1284 988 OFFCURVE",
"1305 895 OFFCURVE",
"1315 774 CURVE",
"1382 895 OFFCURVE",
"1439 1022 OFFCURVE",
"1487 1157 CURVE",
"1767 1157 LINE",
"1640 876 OFFCURVE",
"1499 629 OFFCURVE",
"1343 416 CURVE",
"1354 230 OFFCURVE",
"1384 137 OFFCURVE",
"1433 137 CURVE SMOOTH",
"1490 137 OFFCURVE",
"1545 208 OFFCURVE",
"1597 350 CURVE"
);
},
{
closed = 1;
nodes = (
"1104 621 OFFCURVE",
"1093 744 OFFCURVE",
"1071 847 CURVE SMOOTH",
"1054 929 OFFCURVE",
"1010 970 OFFCURVE",
"941 970 CURVE SMOOTH",
"866 970 OFFCURVE",
"786 912 OFFCURVE",
"699 795 CURVE SMOOTH",
"636 710 OFFCURVE",
"589 617 OFFCURVE",
"558 518 CURVE SMOOTH",
"538 452 OFFCURVE",
"528 391 OFFCURVE",
"528 334 CURVE SMOOTH",
"528 276 OFFCURVE",
"539 229 OFFCURVE",
"561 194 CURVE SMOOTH",
"584 156 OFFCURVE",
"619 137 OFFCURVE",
"666 137 CURVE SMOOTH",
"735 137 OFFCURVE",
"810 169 OFFCURVE",
"891 234 CURVE SMOOTH",
"942 275 OFFCURVE",
"993 328 OFFCURVE",
"1043 391 CURVE SMOOTH",
"1084 443 OFFCURVE",
"1104 472 OFFCURVE",
"1104 477 CURVE SMOOTH"
);
},
{
closed = 1;
nodes = (
"1179 1802 LINE",
"1503 1802 LINE",
"1203 1333 LINE",
"1003 1333 LINE"
);
}
);
vertWidth = 2048;
width = 2048;
}
);
unicode = 03AC;
},
{
color = 4;
glyphname = epsilontonos;
lastChange = "2022-04-07 18:21:36 +0000";
layers = (
{
background = {
paths = (
{
closed = 1;
nodes = (
"1520 141 LINE",
"1335 -13 OFFCURVE",
"1132 -90 OFFCURVE",
"912 -90 CURVE SMOOTH",
"793 -90 OFFCURVE",
"695 -68 OFFCURVE",
"620 -23 CURVE SMOOTH",
"514 40 OFFCURVE",
"461 135 OFFCURVE",
"461 264 CURVE SMOOTH",
"461 421 OFFCURVE",
"553 539 OFFCURVE",
"737 616 CURVE",
"639 686 OFFCURVE",
"590 770 OFFCURVE",
"590 867 CURVE SMOOTH",
"590 968 OFFCURVE",
"635 1049 OFFCURVE",
"725 1111 CURVE SMOOTH",
"805 1166 OFFCURVE",
"905 1194 OFFCURVE",
"1026 1194 CURVE SMOOTH",
"1210 1194 OFFCURVE",
"1390 1137 OFFCURVE",
"1565 1022 CURVE",
"1465 891 LINE",
"1324 989 OFFCURVE",
"1173 1038 OFFCURVE",
"1012 1038 CURVE SMOOTH",
"952 1038 OFFCURVE",
"902 1027 OFFCURVE",
"862 1005 CURVE SMOOTH",
"803 972 OFFCURVE",
"774 923 OFFCURVE",
"774 857 CURVE SMOOTH",
"774 777 OFFCURVE",
"815 713 OFFCURVE",
"897 666 CURVE",
"957 683 OFFCURVE",
"1013 691 OFFCURVE",
"1065 691 CURVE SMOOTH",
"1138 691 OFFCURVE",
"1198 678 OFFCURVE",
"1244 651 CURVE SMOOTH",
"1277 632 OFFCURVE",
"1294 610 OFFCURVE",
"1294 586 CURVE SMOOTH",
"1294 563 OFFCURVE",
"1278 542 OFFCURVE",
"1245 524 CURVE SMOOTH",
"1208 504 OFFCURVE",
"1160 494 OFFCURVE",
"1102 494 CURVE SMOOTH",
"1037 494 OFFCURVE",
"967 508 OFFCURVE",
"893 537 CURVE",
"839 522 OFFCURVE",
"795 503 OFFCURVE",
"760 479 CURVE SMOOTH",
"686 428 OFFCURVE",
"649 362 OFFCURVE",
"649 281 CURVE SMOOTH",
"649 202 OFFCURVE",
"681 143 OFFCURVE",
"744 105 CURVE SMOOTH",
"785 80 OFFCURVE",
"837 68 OFFCURVE",
"899 68 CURVE SMOOTH",
"1090 68 OFFCURVE",
"1261 138 OFFCURVE",
"1413 279 CURVE"
);
},
{
closed = 1;
nodes = (
"1259 1802 LINE",
"1483 1802 LINE",
"1213 1364 LINE",
"1083 1364 LINE"
);
}
);
};
layerId = "4E782664-D0D5-4FED-AFC2-B9212141A2ED";
paths = (
{
closed = 1;
nodes = (
"1538 102 LINE",
"1365 -35 OFFCURVE",
"1159 -104 OFFCURVE",
"920 -104 CURVE SMOOTH",
"794 -104 OFFCURVE",
"692 -81 OFFCURVE",
"615 -36 CURVE SMOOTH",
"506 29 OFFCURVE",
"451 128 OFFCURVE",
"451 262 CURVE SMOOTH",
"451 415 OFFCURVE",
"540 531 OFFCURVE",
"719 608 CURVE",
"622 675 OFFCURVE",
"574 758 OFFCURVE",
"574 859 CURVE SMOOTH",
"574 967 OFFCURVE",
"624 1055 OFFCURVE",
"723 1122 CURVE SMOOTH",
"810 1181 OFFCURVE",
"917 1210 OFFCURVE",
"1046 1210 CURVE SMOOTH",
"1237 1210 OFFCURVE",
"1420 1155 OFFCURVE",
"1596 1044 CURVE",
"1471 864 LINE",
"1340 953 OFFCURVE",
"1200 997 OFFCURVE",
"1049 997 CURVE SMOOTH",
"906 997 OFFCURVE",
"834 944 OFFCURVE",
"834 838 CURVE SMOOTH",
"834 765 OFFCURVE",
"863 711 OFFCURVE",
"920 676 CURVE",
"982 690 OFFCURVE",
"1039 697 OFFCURVE",
"1090 697 CURVE SMOOTH",
"1161 697 OFFCURVE",
"1217 686 OFFCURVE",
"1258 663 CURVE SMOOTH",
"1297 642 OFFCURVE",
"1317 614 OFFCURVE",
"1317 579 CURVE SMOOTH",
"1317 545 OFFCURVE",
"1297 518 OFFCURVE",
"1256 497 CURVE SMOOTH",
"1219 477 OFFCURVE",
"1168 467 OFFCURVE",
"1103 467 CURVE SMOOTH",
"1039 467 OFFCURVE",
"975 478 OFFCURVE",
"910 500 CURVE",
"777 463 OFFCURVE",
"711 394 OFFCURVE",
"711 291 CURVE SMOOTH",
"711 228 OFFCURVE",
"735 180 OFFCURVE",
"784 148 CURVE SMOOTH",
"821 125 OFFCURVE",
"870 113 OFFCURVE",
"931 113 CURVE SMOOTH",
"1107 113 OFFCURVE",
"1264 174 OFFCURVE",
"1403 297 CURVE"
);
},
{
closed = 1;
nodes = (
"1209 1802 LINE",
"1533 1802 LINE",
"1233 1333 LINE",
"1033 1333 LINE"
);
}
);
vertWidth = 2048;
width = 2048;
}
);
unicode = 03AD;
},
{
color = 4;
glyphname = etatonos;
lastChange = "2022-04-07 18:21:36 +0000";
layers = (
{
background = {
paths = (
{
closed = 1;
nodes = (
"484 -51 LINE",
"575 210 OFFCURVE",
"652 440 OFFCURVE",
"715 640 CURVE SMOOTH",
"753 761 OFFCURVE",
"772 845 OFFCURVE",
"772 890 CURVE SMOOTH",
"772 981 OFFCURVE",
"736 1026 OFFCURVE",
"665 1026 CURVE SMOOTH",
"582 1026 OFFCURVE",
"501 949 OFFCURVE",
"422 795 CURVE",
"279 885 LINE",
"340 979 OFFCURVE",
"395 1049 OFFCURVE",
"446 1094 CURVE SMOOTH",
"521 1161 OFFCURVE",
"601 1194 OFFCURVE",
"686 1194 CURVE SMOOTH",
"822 1194 OFFCURVE",
"897 1114 OFFCURVE",
"912 955 CURVE",
"1030 1114 OFFCURVE",
"1172 1194 OFFCURVE",
"1338 1194 CURVE SMOOTH",
"1443 1194 OFFCURVE",
"1519 1158 OFFCURVE",
"1567 1087 CURVE SMOOTH",
"1602 1036 OFFCURVE",
"1619 969 OFFCURVE",
"1619 886 CURVE SMOOTH",
"1619 833 OFFCURVE",
"1610 764 OFFCURVE",
"1591 679 CURVE SMOOTH",
"1520 356 OFFCURVE",
"1450 49 OFFCURVE",
"1379 -244 CURVE",
"1178 -244 LINE",
"1242 -17 OFFCURVE",
"1320 295 OFFCURVE",
"1413 693 CURVE SMOOTH",
"1427 753 OFFCURVE",
"1434 803 OFFCURVE",
"1434 843 CURVE SMOOTH",
"1434 965 OFFCURVE",
"1386 1026 OFFCURVE",
"1289 1026 CURVE SMOOTH",
"1216 1026 OFFCURVE",
"1144 996 OFFCURVE",
"1075 936 CURVE SMOOTH",
"1010 880 OFFCURVE",
"960 803 OFFCURVE",
"925 706 CURVE SMOOTH",
"868 545 OFFCURVE",
"796 313 OFFCURVE",
"702 13 CURVE SMOOTH",
"682 -51 LINE"
);
},
{
closed = 1;
nodes = (
"1319 1802 LINE",
"1543 1802 LINE",
"1273 1364 LINE",
"1143 1364 LINE"
);
}
);
};
layerId = "4E782664-D0D5-4FED-AFC2-B9212141A2ED";
paths = (
{
closed = 1;
nodes = (
"443 -51 LINE",
"636 475 OFFCURVE",
"733 781 OFFCURVE",
"733 867 CURVE SMOOTH",
"733 935 OFFCURVE",
"708 969 OFFCURVE",
"659 969 CURVE SMOOTH",
"598 969 OFFCURVE",
"529 897 OFFCURVE",
"451 752 CURVE",
"250 877 LINE",
"315 974 OFFCURVE",
"376 1047 OFFCURVE",
"431 1097 CURVE SMOOTH",
"514 1173 OFFCURVE",
"600 1211 OFFCURVE",
"689 1211 CURVE SMOOTH",
"774 1211 OFFCURVE",
"837 1176 OFFCURVE",
"878 1107 CURVE SMOOTH",
"900 1071 OFFCURVE",
"914 1024 OFFCURVE",
"920 965 CURVE",
"1046 1129 OFFCURVE",
"1191 1211 OFFCURVE",
"1355 1211 CURVE SMOOTH",
"1453 1211 OFFCURVE",
"1528 1180 OFFCURVE",
"1581 1118 CURVE SMOOTH",
"1629 1061 OFFCURVE",
"1653 983 OFFCURVE",
"1653 884 CURVE SMOOTH",
"1653 835 OFFCURVE",
"1647 782 OFFCURVE",
"1635 725 CURVE SMOOTH",
"1632 715 OFFCURVE",
"1579 484 OFFCURVE",
"1475 32 CURVE SMOOTH",
"1424 -189 LINE",
"1411 -244 LINE",
"1133 -244 LINE",
"1148 -187 LINE SMOOTH",
"1272 285 OFFCURVE",
"1353 576 OFFCURVE",
"1378 690 CURVE SMOOTH",
"1390 742 OFFCURVE",
"1396 786 OFFCURVE",
"1396 822 CURVE SMOOTH",
"1396 920 OFFCURVE",
"1360 969 OFFCURVE",
"1287 969 CURVE SMOOTH",
"1205 969 OFFCURVE",
"1129 929 OFFCURVE",
"1058 849 CURVE SMOOTH",
"1017 802 OFFCURVE",
"980 734 OFFCURVE",
"947 645 CURVE SMOOTH",
"878 452 OFFCURVE",
"801 220 OFFCURVE",
"717 -51 CURVE"
);
},
{
closed = 1;
nodes = (
"1274 1802 LINE",
"1598 1802 LINE",
"1298 1333 LINE",
"1098 1333 LINE"
);
}
);
vertWidth = 2048;
width = 2048;
}
);
unicode = 03AE;
},
{
color = 0;
glyphname = foursuperior;
lastChange = "2022-03-07 17:53:29 +0000";
layers = (
{
background = {
paths = (
{
closed = 1;
nodes = (
"283 920 LINE",
"283 1573 LINE",
"250 1544 OFFCURVE",
"197 1519 OFFCURVE",
"123 1497 CURVE",
"82 1634 LINE",
"161 1657 OFFCURVE",
"234 1696 OFFCURVE",
"303 1751 CURVE",
"447 1751 LINE",
"447 920 LINE"
);
},
{
closed = 1;
nodes = (
"382 1751 LINE",
"536 1751 LINE",
"536 1217 LINE",
"644 1217 LINE",
"644 1096 LINE",
"536 1096 LINE",
"536 922 LINE",
"413 922 LINE",
"413 1096 LINE",
"80 1096 LINE",
"80 1205 LINE"
);
},
{
closed = 1;
nodes = (
"413 1562 LINE",
"209 1217 LINE",
"415 1217 LINE",
"415 1386 LINE SMOOTH",
"415 1404 OFFCURVE",
"416 1438 OFFCURVE",
"418 1488 CURVE SMOOTH",
"420 1545 LINE",
"421 1562 LINE"
);
}
);
};
layerId = "4E782664-D0D5-4FED-AFC2-B9212141A2ED";
paths = (
{
closed = 1;
nodes = (
"395 1751 LINE",
"569 1751 LINE",
"569 1234 LINE",
"657 1234 LINE",
"657 1076 LINE",
"569 1076 LINE",
"569 921 LINE",
"405 921 LINE",
"405 1076 LINE",
"64 1076 LINE",
"64 1246 LINE"
);
},
{
closed = 1;
nodes = (
"401 1499 LINE",
"234 1234 LINE",
"407 1234 LINE",
"407 1392 LINE SMOOTH",
"407 1417 OFFCURVE",
"408 1452 OFFCURVE",
"409 1499 CURVE"
);
}
);
vertWidth = 2048;
width = 1024;
}
);
unicode = 2074;
},
{
color = 0;
glyphname = fraction;
lastChange = "2022-03-08 23:19:35 +0000";
layers = (
{
layerId = "4E782664-D0D5-4FED-AFC2-B9212141A2ED";
paths = (
{
closed = 1;
nodes = (
"828 1745 LINE",
"951 1690 LINE",
"197 -188 LINE",
"74 -133 LINE"
);
}
);
vertWidth = 2048;
width = 1024;
}
);
unicode = 2044;
},
{
color = 0;
glyphname = quotesinglbase;
lastChange = "2022-03-07 17:24:34 +0000";
layers = (
{
background = {
paths = (
{
closed = 1;
nodes = (
"123 367 LINE",
"459 367 LINE",
"459 195 LINE SMOOTH",
"459 70 OFFCURVE",
"426 -45 OFFCURVE",
"361 -148 CURVE SMOOTH",
"339 -183 OFFCURVE",
"312 -215 OFFCURVE",
"281 -243 CURVE",
"105 -243 LINE",
"193 -156 OFFCURVE",
"245 -61 OFFCURVE",
"262 43 CURVE",
"123 43 LINE"
);
}
);
};
layerId = "4E782664-D0D5-4FED-AFC2-B9212141A2ED";
paths = (
{
closed = 1;
nodes = (
"143 367 LINE",
"479 367 LINE",
"479 195 LINE SMOOTH",
"479 70 OFFCURVE",
"446 -45 OFFCURVE",
"381 -148 CURVE SMOOTH",
"359 -183 OFFCURVE",
"332 -215 OFFCURVE",
"301 -243 CURVE",
"125 -243 LINE",
"213 -156 OFFCURVE",
"265 -61 OFFCURVE",
"282 43 CURVE",
"143 43 LINE"
);
}
);
vertWidth = 2048;
width = 1024;
}
);
unicode = 201A;
},
{
color = 0;
glyphname = quotedblbase;
lastChange = "2022-03-07 17:32:43 +0000";
layers = (
{
background = {
paths = (
{
closed = 1;
nodes = (
"143 325 LINE",
"450 325 LINE",
"450 161 LINE SMOOTH",
"450 -14 OFFCURVE",
"395 -171 OFFCURVE",
"284 -310 CURVE",
"143 -310 LINE",
"221 -209 OFFCURVE",
"267 -99 OFFCURVE",
"280 18 CURVE",
"143 18 LINE"
);
},
{
closed = 1;
nodes = (
"553 325 LINE",
"860 325 LINE",
"860 161 LINE SMOOTH",
"860 -14 OFFCURVE",
"805 -171 OFFCURVE",
"694 -310 CURVE",
"553 -310 LINE",
"631 -209 OFFCURVE",
"677 -99 OFFCURVE",
"690 18 CURVE",
"553 18 LINE"
);
}
);
};
layerId = "4E782664-D0D5-4FED-AFC2-B9212141A2ED";
paths = (
{
closed = 1;
nodes = (
"143 367 LINE",
"479 367 LINE",
"479 195 LINE SMOOTH",
"479 70 OFFCURVE",
"446 -45 OFFCURVE",
"381 -148 CURVE SMOOTH",
"359 -183 OFFCURVE",
"332 -215 OFFCURVE",
"301 -243 CURVE",
"125 -243 LINE",
"213 -156 OFFCURVE",
"265 -61 OFFCURVE",
"282 43 CURVE",
"143 43 LINE"
);
},
{
closed = 1;
nodes = (
"553 367 LINE",
"889 367 LINE",
"889 195 LINE SMOOTH",
"889 70 OFFCURVE",
"856 -45 OFFCURVE",
"791 -148 CURVE SMOOTH",
"769 -183 OFFCURVE",
"742 -215 OFFCURVE",
"711 -243 CURVE",
"535 -243 LINE",
"623 -156 OFFCURVE",
"675 -61 OFFCURVE",
"692 43 CURVE",
"553 43 LINE"
);
}
);
vertWidth = 2048;
width = 1024;
}
);
unicode = 201E;
},
{
color = 0;
glyphname = guilsinglleft;
lastChange = "2022-03-07 17:43:36 +0000";
layers = (
{
layerId = "4E782664-D0D5-4FED-AFC2-B9212141A2ED";
paths = (
{
closed = 1;
nodes = (
"561 1014 LINE",
"725 1014 LINE",
"422 551 LINE",
"725 88 LINE",
"561 88 LINE",
"258 551 LINE"
);
}
);
vertWidth = 2048;
width = 1024;
}
);
unicode = 2039;
},
{
color = 0;
glyphname = guilsinglright;
lastChange = "2022-03-07 17:43:49 +0000";
layers = (
{
layerId = "4E782664-D0D5-4FED-AFC2-B9212141A2ED";
paths = (
{
closed = 1;
nodes = (
"463 88 LINE",
"766 551 LINE",
"463 1014 LINE",
"299 1014 LINE",
"602 551 LINE",
"299 88 LINE"
);
}
);
vertWidth = 2048;
width = 1024;
}
);
unicode = 203A;
},
{
color = 6;
glyphname = florin;
lastChange = "2022-04-07 18:21:36 +0000";
layers = (
{
background = {
paths = (
{
closed = 1;
nodes = (
"157 -143 OFFCURVE",
"36 -33 OFFCURVE",
"-10 148 CURVE",
"209 204 LINE",
"234 107 OFFCURVE",
"274 62 OFFCURVE",
"335 62 CURVE SMOOTH",
"424 62 OFFCURVE",
"454 155 OFFCURVE",
"431 358 CURVE SMOOTH",
"367 920 LINE",
"147 920 LINE",
"147 1108 LINE",
"361 1108 LINE",
"337 1456 OFFCURVE",
"414 1700 OFFCURVE",
"708 1700 CURVE SMOOTH",
"857 1700 OFFCURVE",
"963 1606 OFFCURVE",
"1024 1418 CURVE",
"805 1363 LINE",
"783 1459 OFFCURVE",
"748 1505 OFFCURVE",
"699 1505 CURVE SMOOTH",
"601 1505 OFFCURVE",
"593 1347 OFFCURVE",
"619 1108 CURVE",
"889 1108 LINE",
"889 920 LINE",
"627 920 LINE",
"693 435 LINE SMOOTH",
"745 55 OFFCURVE",
"619 -143 OFFCURVE",
"325 -143 CURVE SMOOTH"
);
}
);
};
layerId = "4E782664-D0D5-4FED-AFC2-B9212141A2ED";
paths = (
{
closed = 1;
nodes = (
"157 -143 OFFCURVE",
"36 -33 OFFCURVE",
"-10 148 CURVE",
"209 204 LINE",
"234 107 OFFCURVE",
"274 62 OFFCURVE",
"335 62 CURVE SMOOTH",
"424 62 OFFCURVE",
"454 155 OFFCURVE",
"431 358 CURVE SMOOTH",
"367 920 LINE",
"147 920 LINE",
"147 1108 LINE",
"361 1108 LINE",
"337 1456 OFFCURVE",
"414 1700 OFFCURVE",
"708 1700 CURVE SMOOTH",
"857 1700 OFFCURVE",
"963 1606 OFFCURVE",
"1024 1418 CURVE",
"805 1363 LINE",
"783 1459 OFFCURVE",
"748 1505 OFFCURVE",
"699 1505 CURVE SMOOTH",
"601 1505 OFFCURVE",
"593 1347 OFFCURVE",
"619 1108 CURVE",
"889 1108 LINE",
"889 920 LINE",
"627 920 LINE",
"693 435 LINE SMOOTH",
"745 55 OFFCURVE",
"619 -143 OFFCURVE",
"325 -143 CURVE SMOOTH"
);
}
);
vertWidth = 2048;
width = 1024;
}
);
unicode = 0192;
},
{
color = 6;
glyphname = greaterequal;
lastChange = "2022-04-07 18:21:36 +0000";
layers = (
{
layerId = "4E782664-D0D5-4FED-AFC2-B9212141A2ED";
paths = (
{
closed = 1;
nodes = (
"82 208 LINE",
"82 364 LINE",
"942 364 LINE",
"942 208 LINE"
);
},
{
closed = 1;
nodes = (
"82 463 LINE",
"82 635 LINE",
"674 928 LINE",
"82 1221 LINE",
"82 1393 LINE",
"971 928 LINE"
);
}
);
vertWidth = 2048;
width = 1024;
}
);
unicode = 2265;
},
{
color = 6;
glyphname = lessequal;
lastChange = "2022-04-07 18:21:36 +0000";
layers = (
{
layerId = "4E782664-D0D5-4FED-AFC2-B9212141A2ED";
paths = (
{
closed = 1;
nodes = (
"942 1393 LINE",
"942 1221 LINE",
"350 928 LINE",
"942 635 LINE",
"942 463 LINE",
"53 928 LINE"
);
},
{
closed = 1;
nodes = (
"82 364 LINE",
"942 364 LINE",
"942 208 LINE",
"82 208 LINE"
);
}
);
vertWidth = 2048;
width = 1024;
}
);
unicode = 2264;
},
{
color = 4;
glyphname = product;
lastChange = "2022-04-07 18:21:36 +0000";
layers = (
{
layerId = "4E782664-D0D5-4FED-AFC2-B9212141A2ED";
paths = (
{
closed = 1;
nodes = (
"1554 1393 LINE",
"1554 1235 LINE",
"1322 1235 LINE",
"1322 164 LINE",
"1163 164 LINE",
"1163 1235 LINE",
"886 1235 LINE",
"886 164 LINE",
"727 164 LINE",
"727 1235 LINE",
"494 1235 LINE",
"494 1393 LINE"
);
}
);
vertWidth = 2048;
width = 2048;
}
);
unicode = 220F;
},
{
color = 0;
glyphname = micro;
lastChange = "2022-03-10 18:31:33 +0000";
layers = (
{
background = {
paths = (
{
closed = 1;
nodes = (
"133 1157 LINE",
"362 1157 LINE",
"362 430 LINE SMOOTH",
"362 236 OFFCURVE",
"401 139 OFFCURVE",
"479 139 CURVE SMOOTH",
"584 139 OFFCURVE",
"638 308 OFFCURVE",
"662 438 CURVE",
"662 1157 LINE",
"891 1157 LINE",
"891 -51 LINE",
"676 -51 LINE",
"676 150 LINE",
"635 1 OFFCURVE",
"565 -74 OFFCURVE",
"467 -74 CURVE SMOOTH",
"392 -74 OFFCURVE",
"349 -19 OFFCURVE",
"301 73 CURVE SMOOTH",
"259 154 OFFCURVE",
"133 245 OFFCURVE",
"133 404 CURVE SMOOTH"
);
},
{
closed = 1;
nodes = (
"133 532 LINE",
"362 532 LINE",
"362 -245 LINE",
"133 -245 LINE"
);
}
);
};
layerId = "4E782664-D0D5-4FED-AFC2-B9212141A2ED";
paths = (
{
closed = 1;
nodes = (
"133 1157 LINE",
"362 1157 LINE",
"362 430 LINE SMOOTH",
"362 236 OFFCURVE",
"401 139 OFFCURVE",
"479 139 CURVE SMOOTH",
"584 139 OFFCURVE",
"638 308 OFFCURVE",
"662 438 CURVE",
"662 1157 LINE",
"891 1157 LINE",
"891 -51 LINE",
"676 -51 LINE",
"676 150 LINE",
"635 1 OFFCURVE",
"565 -74 OFFCURVE",
"467 -74 CURVE SMOOTH",
"424 -74 OFFCURVE",
"391 -56 OFFCURVE",
"362 -22 CURVE",
"362 -245 LINE",
"133 -245 LINE"
);
}
);
vertWidth = 2048;
width = 1024;
}
);
unicode = 00B5;
},
{
color = 6;
glyphname = lozenge;
lastChange = "2022-04-07 18:21:36 +0000";
layers = (
{
layerId = "4E782664-D0D5-4FED-AFC2-B9212141A2ED";
paths = (
{
closed = 1;
nodes = (
"512 1452 LINE",
"938 778 LINE",
"512 104 LINE",
"86 778 LINE"
);
},
{
closed = 1;
nodes = (
"512 1156 LINE",
"297 778 LINE",
"512 401 LINE",
"727 778 LINE"
);
}
);
vertWidth = 2048;
width = 1024;
}
);
unicode = 25CA;
},
{
color = 6;
glyphname = trademark;
lastChange = "2022-04-07 18:21:36 +0000";
layers = (
{
background = {
paths = (
{
closed = 1;
nodes = (
"26 1608 LINE",
"430 1608 LINE",
"430 1470 LINE",
"292 1470 LINE",
"292 844 LINE",
"164 844 LINE",
"164 1470 LINE",
"26 1470 LINE"
);
},
{
closed = 1;
nodes = (
"479 1608 LINE",
"655 1608 LINE",
"713 1272 LINE SMOOTH",
"718 1242 OFFCURVE",
"730 1148 OFFCURVE",
"741 1069 CURVE",
"746 1069 LINE",
"755 1148 OFFCURVE",
"767 1235 OFFCURVE",
"774 1272 CURVE SMOOTH",
"842 1608 LINE",
"998 1608 LINE",
"998 845 LINE",
"880 845 LINE",
"886 1159 LINE SMOOTH",
"888 1243 OFFCURVE",
"895 1348 OFFCURVE",
"910 1478 CURVE",
"905 1478 LINE",
"889 1401 OFFCURVE",
"870 1339 OFFCURVE",
"861 1293 CURVE SMOOTH",
"799 978 LINE",
"688 978 LINE",
"626 1293 LINE SMOOTH",
"616 1344 OFFCURVE",
"597 1406 OFFCURVE",
"583 1478 CURVE",
"578 1478 LINE",
"593 1343 OFFCURVE",
"601 1236 OFFCURVE",
"602 1159 CURVE SMOOTH",
"607 845 LINE",
"479 845 LINE"
);
}
);
};
layerId = "4E782664-D0D5-4FED-AFC2-B9212141A2ED";
paths = (
{
closed = 1;
nodes = (
"7 1608 LINE",
"478 1608 LINE",
"478 1485 LINE",
"323 1485 LINE",
"323 845 LINE",
"163 845 LINE",
"163 1485 LINE",
"7 1485 LINE"
);
},
{
closed = 1;
nodes = (
"506 1608 LINE",
"693 1608 LINE",
"724 1254 LINE SMOOTH",
"727 1219 OFFCURVE",
"733 1165 OFFCURVE",
"742 1093 CURVE",
"746 1093 LINE",
"754 1162 OFFCURVE",
"760 1216 OFFCURVE",
"763 1254 CURVE SMOOTH",
"795 1608 LINE",
"982 1608 LINE",
"982 845 LINE",
"847 845 LINE",
"852 1161 LINE SMOOTH",
"853 1215 OFFCURVE",
"854 1306 OFFCURVE",
"874 1475 CURVE",
"870 1475 LINE",
"856 1419 OFFCURVE",
"844 1340 OFFCURVE",
"836 1279 CURVE SMOOTH",
"798 973 LINE",
"690 973 LINE",
"652 1279 LINE SMOOTH",
"644 1343 OFFCURVE",
"631 1421 OFFCURVE",
"618 1475 CURVE",
"613 1475 LINE",
"634 1294 OFFCURVE",
"634 1203 OFFCURVE",
"635 1161 CURVE SMOOTH",
"641 845 LINE",
"506 845 LINE"
);
}
);
vertWidth = 2048;
width = 1024;
}
);
unicode = 2122;
},
{
color = 0;
glyphname = circumflex;
lastChange = "2022-03-07 17:46:47 +0000";
layers = (
{
layerId = "4E782664-D0D5-4FED-AFC2-B9212141A2ED";
paths = (
{
closed = 1;
nodes = (
"371 1620 LINE",
"653 1620 LINE",
"914 1333 LINE",
"711 1333 LINE",
"512 1507 LINE",
"314 1333 LINE",
"111 1333 LINE"
);
}
);
vertWidth = 2048;
width = 1024;
}
);
unicode = 02C6;
},
{
color = 0;
glyphname = ring;
lastChange = "2022-03-07 17:46:35 +0000";
layers = (
{
background = {
paths = (
{
closed = 1;
nodes = (
"549 1710 OFFCURVE",
"582 1701 OFFCURVE",
"614 1683 CURVE SMOOTH",
"685 1643 OFFCURVE",
"721 1582 OFFCURVE",
"721 1501 CURVE SMOOTH",
"721 1464 OFFCURVE",
"712 1430 OFFCURVE",
"693 1397 CURVE SMOOTH",
"653 1327 OFFCURVE",
"592 1292 OFFCURVE",
"510 1292 CURVE SMOOTH",
"460 1292 OFFCURVE",
"416 1309 OFFCURVE",
"377 1342 CURVE SMOOTH",
"328 1384 OFFCURVE",
"303 1438 OFFCURVE",
"303 1503 CURVE SMOOTH",
"303 1566 OFFCURVE",
"327 1618 OFFCURVE",
"376 1660 CURVE SMOOTH",
"415 1693 OFFCURVE",
"461 1710 OFFCURVE",
"514 1710 CURVE SMOOTH"
);
},
{
closed = 1;
nodes = (
"492 1610 OFFCURVE",
"473 1604 OFFCURVE",
"454 1593 CURVE SMOOTH",
"420 1572 OFFCURVE",
"403 1541 OFFCURVE",
"403 1501 CURVE SMOOTH",
"403 1474 OFFCURVE",
"412 1450 OFFCURVE",
"430 1429 CURVE SMOOTH",
"452 1404 OFFCURVE",
"479 1392 OFFCURVE",
"512 1392 CURVE SMOOTH",
"529 1392 OFFCURVE",
"546 1396 OFFCURVE",
"562 1404 CURVE SMOOTH",
"601 1425 OFFCURVE",
"621 1457 OFFCURVE",
"621 1501 CURVE SMOOTH",
"621 1534 OFFCURVE",
"608 1562 OFFCURVE",
"582 1584 CURVE SMOOTH",
"562 1601 OFFCURVE",
"539 1610 OFFCURVE",
"512 1610 CURVE SMOOTH"
);
}
);
};
layerId = "4E782664-D0D5-4FED-AFC2-B9212141A2ED";
paths = (
{
closed = 1;
nodes = (
"549 1710 OFFCURVE",
"582 1701 OFFCURVE",
"614 1683 CURVE SMOOTH",
"685 1643 OFFCURVE",
"721 1582 OFFCURVE",
"721 1501 CURVE SMOOTH",
"721 1464 OFFCURVE",
"712 1430 OFFCURVE",
"693 1397 CURVE SMOOTH",
"653 1327 OFFCURVE",
"592 1292 OFFCURVE",
"510 1292 CURVE SMOOTH",
"460 1292 OFFCURVE",
"416 1309 OFFCURVE",
"377 1342 CURVE SMOOTH",
"328 1384 OFFCURVE",
"303 1438 OFFCURVE",
"303 1503 CURVE SMOOTH",
"303 1566 OFFCURVE",
"327 1618 OFFCURVE",
"376 1660 CURVE SMOOTH",
"415 1693 OFFCURVE",
"461 1710 OFFCURVE",
"514 1710 CURVE SMOOTH"
);
},
{
closed = 1;
nodes = (
"492 1610 OFFCURVE",
"473 1604 OFFCURVE",
"454 1593 CURVE SMOOTH",
"420 1572 OFFCURVE",
"403 1541 OFFCURVE",
"403 1501 CURVE SMOOTH",
"403 1474 OFFCURVE",
"412 1450 OFFCURVE",
"430 1429 CURVE SMOOTH",
"452 1404 OFFCURVE",
"479 1392 OFFCURVE",
"512 1392 CURVE SMOOTH",
"529 1392 OFFCURVE",
"546 1396 OFFCURVE",
"562 1404 CURVE SMOOTH",
"601 1425 OFFCURVE",
"621 1457 OFFCURVE",
"621 1501 CURVE SMOOTH",
"621 1534 OFFCURVE",
"608 1562 OFFCURVE",
"582 1584 CURVE SMOOTH",
"562 1601 OFFCURVE",
"539 1610 OFFCURVE",
"512 1610 CURVE SMOOTH"
);
}
);
vertWidth = 2048;
width = 1024;
}
);
unicode = 02DA;
},
{
color = 6;
glyphname = tonos;
lastChange = "2022-04-07 18:21:36 +0000";
layers = (
{
layerId = "4E782664-D0D5-4FED-AFC2-B9212141A2ED";
paths = (
{
closed = 1;
nodes = (
"499 1802 LINE",
"823 1802 LINE",
"523 1333 LINE",
"323 1333 LINE"
);
}
);
vertWidth = 2048;
width = 1024;
}
);
unicode = 0384;
},
{
color = 6;
glyphname = dieresistonos;
lastChange = "2022-04-07 18:21:36 +0000";
layers = (
{
layerId = "4E782664-D0D5-4FED-AFC2-B9212141A2ED";
paths = (
{
closed = 1;
nodes = (
"25 1599 LINE",
"291 1599 LINE",
"291 1333 LINE",
"25 1333 LINE"
);
},
{
closed = 1;
nodes = (
"732 1599 LINE",
"998 1599 LINE",
"998 1333 LINE",
"732 1333 LINE"
);
},
{
closed = 1;
nodes = (
"508 1802 LINE",
"832 1802 LINE",
"532 1333 LINE",
"332 1333 LINE"
);
}
